<svg width="70" height="70" viewBox="0 0 70 70" fill="none" xmlns="http://www.w3.org/2000/svg">
<path d="M39.1168 62.0975L39.726 58.3518C42.5724 57.76 45.281 56.6275 47.707 55.0148L50.7793 57.2329C51.401 57.6932 52.2496 57.6853 52.8629 57.2134C53.5413 56.6541 54.1907 56.0598 54.8083 55.433C55.4369 54.8007 56.0162 54.1488 56.5762 53.4775C57.0453 52.8591 57.0532 52.003 56.5955 51.376L54.3932 48.2821C55.9946 45.84 57.1192 43.1126 57.7068 40.246L61.4269 39.633C62.1879 39.5163 62.7794 38.9045 62.8752 38.1348C62.9351 37.6017 62.9717 37.0646 62.9988 36.5159C63.0117 36.2494 62.9162 35.9892 62.7344 35.7953C62.5526 35.6014 62.3001 35.4906 62.0353 35.4885H54.2977C53.7761 35.4914 53.3498 35.9088 53.3321 36.4342C52.8263 46.2658 44.7676 53.976 34.9976 53.976C25.2275 53.976 17.1688 46.2658 16.663 36.4342C16.6454 35.9088 16.2192 35.4914 15.6975 35.4885H7.9666C7.70197 35.4898 7.4493 35.5999 7.267 35.7933C7.08469 35.9867 6.98872 36.2467 7.00106 36.5131C7.02358 37.0598 7.06161 37.6004 7.11496 38.1349C7.21906 38.9047 7.81289 39.5141 8.57482 39.6331L12.295 40.2461C12.8834 43.1126 14.0082 45.8399 15.6095 48.2822L13.4063 51.3761C12.9485 52.0031 12.9563 52.8592 13.4256 53.4776C13.9814 54.1593 14.5715 54.812 15.1934 55.4331C15.8066 56.0646 16.4562 56.6591 17.1389 57.2135C17.7529 57.6873 18.6037 57.6952 19.2263 57.233L22.2986 55.0149C24.7237 56.6272 27.4312 57.7597 30.2767 58.3519L30.885 62.0976C31.0012 62.8646 31.6088 63.4605 32.3729 63.5569C34.1056 63.7484 35.8539 63.7484 37.5866 63.5569C38.3633 63.4704 38.9884 62.8743 39.1168 62.0975Z" fill="url(#paint0_linear_1477_2355)"/>
<path d="M20.5482 36.4184C21.0314 44.1045 27.3589 50.0893 35.0019 50.0893C42.645 50.0893 48.9724 44.1045 49.4556 36.4184C49.4657 36.1739 49.3757 35.9358 49.2067 35.76C49.0376 35.5843 48.8044 35.4861 48.5616 35.4883H21.4423C21.1993 35.486 20.9662 35.5842 20.7972 35.76C20.6281 35.9358 20.5381 36.1739 20.5482 36.4184Z" fill="url(#paint1_linear_1477_2355)"/>
<path d="M27.2774 33.5422V23.8132C27.2774 23.2758 26.8451 22.8403 26.3118 22.8403C25.7786 22.8403 25.3463 23.2758 25.3463 23.8132V33.5422H27.2774Z" fill="url(#paint2_linear_1477_2355)"/>
<path fill-rule="evenodd" clip-rule="evenodd" d="M21.4845 33.5436V28.6791C21.4845 28.1419 21.0523 27.7063 20.519 27.7063H14.5483C14.0781 29.0465 12.718 29.8505 11.3276 29.6101C9.93718 29.3697 8.9209 28.1549 8.9209 26.7334C8.9209 25.3118 9.93718 24.0971 11.3276 23.8567C12.718 23.6163 14.0781 24.4202 14.5483 25.7605H20.519C22.1168 25.7653 23.4108 27.0691 23.4155 28.6791V33.5436H21.4845ZM13.6394 26.7499C13.6394 25.7592 12.8425 24.9561 11.8593 24.9561C10.8762 24.9561 10.0792 25.7592 10.0792 26.7499C10.0792 27.7405 10.8762 28.5436 11.8593 28.5436C12.8425 28.5436 13.6394 27.7405 13.6394 26.7499Z" fill="url(#paint3_linear_1477_2355)"/>
<path fill-rule="evenodd" clip-rule="evenodd" d="M29.7629 33.566V16.5043C29.7629 15.967 29.3306 15.5314 28.7973 15.5314H22.8266C22.3564 16.8717 20.9964 17.6756 19.6059 17.4352C18.2155 17.1948 17.1992 15.98 17.1992 14.5585C17.1992 13.1369 18.2155 11.9222 19.6059 11.6818C20.9964 11.4414 22.3564 12.2453 22.8266 13.5856H28.7973C30.3951 13.5904 31.6891 14.8943 31.6938 16.5043V33.566H29.7629ZM21.9178 14.575C21.9178 13.5843 21.1208 12.7813 20.1377 12.7813C19.1545 12.7813 18.3575 13.5843 18.3575 14.575C18.3575 15.5656 19.1545 16.3687 20.1377 16.3687C21.1208 16.3687 21.9178 15.5656 21.9178 14.575Z" fill="url(#paint4_linear_1477_2355)"/>
<path d="M42.9768 33.5424V23.8134C42.9768 23.276 43.4091 22.8404 43.9424 22.8404C44.4757 22.8404 44.9079 23.276 44.9079 23.8134V33.5424H42.9768Z" fill="url(#paint5_linear_1477_2355)"/>
<path fill-rule="evenodd" clip-rule="evenodd" d="M48.7698 33.5441V28.6797C48.7698 28.1424 49.202 27.7069 49.7353 27.7069H55.706C56.1762 29.0471 57.5363 29.851 58.9267 29.6106C60.3171 29.3702 61.3334 28.1554 61.3334 26.7339C61.3334 25.3123 60.3171 24.0976 58.9267 23.8572C57.5363 23.6169 56.1762 24.4208 55.706 25.761H49.7353C48.1375 25.7658 46.8435 27.0697 46.8388 28.6797V33.5441H48.7698ZM56.6149 26.7504C56.6149 25.7598 57.4118 24.9567 58.395 24.9567C59.3781 24.9567 60.1751 25.7598 60.1751 26.7504C60.1751 27.7411 59.3781 28.5441 58.395 28.5441C57.4118 28.5441 56.6149 27.7411 56.6149 26.7504Z" fill="url(#paint6_linear_1477_2355)"/>
<path fill-rule="evenodd" clip-rule="evenodd" d="M40.4911 33.566V16.5042C40.4911 15.967 40.9233 15.5314 41.4566 15.5314H47.4273C47.8975 16.8716 49.2576 17.6756 50.648 17.4352C52.0384 17.1948 53.0547 15.98 53.0547 14.5585C53.0547 13.1369 52.0384 11.9222 50.648 11.6818C49.2576 11.4414 47.8975 12.2453 47.4273 13.5855H41.4566C39.8588 13.5904 38.5648 14.8942 38.5601 16.5042V33.566H40.4911ZM48.3362 14.575C48.3362 13.5843 49.1331 12.7812 50.1163 12.7812C51.0994 12.7812 51.8964 13.5843 51.8964 14.575C51.8964 15.5656 51.0994 16.3687 50.1163 16.3687C49.1331 16.3687 48.3362 15.5656 48.3362 14.575Z" fill="url(#paint7_linear_1477_2355)"/>
<path fill-rule="evenodd" clip-rule="evenodd" d="M34.0353 11.9594C32.8821 11.5486 32.1093 10.4522 32.1043 9.21974C32.1017 7.73818 33.2029 6.4904 34.6634 6.32007C36.124 6.14965 37.4789 7.11081 37.8123 8.55386C38.1457 9.99692 37.3514 11.4623 35.9663 11.9594V33.5422H34.0353V11.9594ZM37.1361 9.17137C37.1361 7.9826 36.1797 7.0189 34.9999 7.0189C33.8202 7.0189 32.8638 7.9826 32.8638 9.17137C32.8638 10.3601 33.8202 11.3238 34.9999 11.3238C36.1797 11.3238 37.1361 10.3601 37.1361 9.17137Z" fill="url(#paint8_linear_1477_2355)"/>
<defs>
<linearGradient id="paint0_linear_1477_2355" x1="-43.7676" y1="72.646" x2="-52.6531" y2="15.0025" gradientUnits="userSpaceOnUse">
<stop stop-color="#0B3C5D"/>
<stop offset="1" stop-color="#1C639B"/>
</linearGradient>
<linearGradient id="paint1_linear_1477_2355" x1="-43.7676" y1="72.646" x2="-52.6531" y2="15.0025" gradientUnits="userSpaceOnUse">
<stop stop-color="#0B3C5D"/>
<stop offset="1" stop-color="#1C639B"/>
</linearGradient>
<linearGradient id="paint2_linear_1477_2355" x1="-43.7676" y1="72.646" x2="-52.6531" y2="15.0025" gradientUnits="userSpaceOnUse">
<stop stop-color="#0B3C5D"/>
<stop offset="1" stop-color="#1C639B"/>
</linearGradient>
<linearGradient id="paint3_linear_1477_2355" x1="-43.7676" y1="72.646" x2="-52.6531" y2="15.0025" gradientUnits="userSpaceOnUse">
<stop stop-color="#0B3C5D"/>
<stop offset="1" stop-color="#1C639B"/>
</linearGradient>
<linearGradient id="paint4_linear_1477_2355" x1="-43.7676" y1="72.646" x2="-52.6531" y2="15.0025" gradientUnits="userSpaceOnUse">
<stop stop-color="#0B3C5D"/>
<stop offset="1" stop-color="#1C639B"/>
</linearGradient>
<linearGradient id="paint5_linear_1477_2355" x1="-43.7676" y1="72.646" x2="-52.6531" y2="15.0025" gradientUnits="userSpaceOnUse">
<stop stop-color="#0B3C5D"/>
<stop offset="1" stop-color="#1C639B"/>
</linearGradient>
<linearGradient id="paint6_linear_1477_2355" x1="-43.7676" y1="72.646" x2="-52.6531" y2="15.0025" gradientUnits="userSpaceOnUse">
<stop stop-color="#0B3C5D"/>
<stop offset="1" stop-color="#1C639B"/>
</linearGradient>
<linearGradient id="paint7_linear_1477_2355" x1="-43.7676" y1="72.646" x2="-52.6531" y2="15.0025" gradientUnits="userSpaceOnUse">
<stop stop-color="#0B3C5D"/>
<stop offset="1" stop-color="#1C639B"/>
</linearGradient>
<linearGradient id="paint8_linear_1477_2355" x1="-43.7676" y1="72.646" x2="-52.6531" y2="15.0025" gradientUnits="userSpaceOnUse">
<stop stop-color="#0B3C5D"/>
<stop offset="1" stop-color="#1C639B"/>
</linearGradient>
</defs>
</svg>
