<svg width="70" height="70" viewBox="0 0 70 70" fill="none" xmlns="http://www.w3.org/2000/svg">
<path d="M30.3281 34.7371C28.5511 36.1127 27.406 38.2663 27.406 40.6843C27.406 41.2024 27.4585 41.7083 27.5586 42.197H7.32161C6.37136 42.197 5.6001 41.4257 5.6001 40.4754V39.897C5.6001 37.0519 7.91495 34.7371 10.7601 34.7371H30.3281Z" fill="url(#paint0_linear_1465_1975)"/>
<path d="M39.5184 34.7371C41.2954 36.1127 42.4405 38.2663 42.4405 40.6843C42.4405 41.2024 42.388 41.7083 42.2879 42.197H62.6397C63.59 42.197 64.3612 41.4257 64.3612 40.4754V39.897C64.3612 37.0519 62.0463 34.7371 59.2012 34.7371H39.5184Z" fill="url(#paint1_linear_1465_1975)"/>
<path d="M28.2134 40.684C28.2134 36.9797 31.2226 33.9705 34.9269 33.9705C38.6312 33.9705 41.6404 36.9797 41.6404 40.684C41.6404 44.3883 38.6312 47.3975 34.9269 47.3975C31.2226 47.3975 28.2134 44.3883 28.2134 40.684Z" fill="url(#paint2_linear_1465_1975)"/>
<path d="M26.9057 11.1167C26.9022 11.1179 26.8999 11.119 26.8965 11.1202C26.8976 10.8746 26.8999 11.0421 26.9057 11.1167Z" fill="url(#paint3_linear_1465_1975)"/>
<path d="M26.9072 11.1168C26.9095 11.1168 26.9129 11.1156 26.9152 11.1145C26.9118 11.1646 26.9095 11.1498 26.9072 11.1168Z" fill="url(#paint4_linear_1465_1975)"/>
<path d="M43.0459 11.1145C43.0482 11.1156 43.0516 11.1168 43.0539 11.1168C43.0516 11.151 43.0493 11.1658 43.0459 11.1145Z" fill="url(#paint5_linear_1465_1975)"/>
<path d="M43.0632 11.1203C43.0609 11.1191 43.0575 11.118 43.0552 11.1168C43.0609 11.0445 43.0632 10.8873 43.0632 11.1203Z" fill="url(#paint6_linear_1465_1975)"/>
<path d="M60.8547 33.4057C60.3199 33.3001 59.7667 33.245 59.2009 33.245H42.7937C42.353 33.245 41.9238 33.3288 41.5267 33.4861C39.7742 31.7565 37.4547 30.8051 34.9803 30.8051C32.5059 30.8051 30.1842 31.7565 28.4328 33.4872C28.0426 33.3311 27.6168 33.245 27.1715 33.245H10.7598C10.194 33.245 9.64077 33.3001 9.10596 33.4057C9.61208 27.9841 11.8076 22.8413 15.417 18.7166C16.6565 17.3004 18.0349 16.0333 19.5257 14.9293L20.6493 23.9821C20.7744 24.929 21.6455 25.5877 22.582 25.4626C23.5242 25.3375 24.1876 24.4722 24.0625 23.53L22.7427 12.8944C24.0717 12.1829 25.4615 11.5895 26.8972 11.1201C26.895 11.5689 26.8972 13.396 26.8972 19.6898C26.8972 24.1474 30.5239 27.7729 34.9803 27.7729C39.4368 27.7729 43.0634 24.1474 43.0634 19.6898C43.0634 13.3684 43.0657 11.5574 43.0623 11.1201C44.498 11.5895 45.8879 12.1829 47.218 12.8944L45.8982 23.53C45.7616 24.556 46.5581 25.4776 47.6071 25.4776C48.4575 25.4776 49.1966 24.8486 49.3114 23.9821L50.435 14.9293C51.9258 16.0333 53.3042 17.3004 54.5436 18.7166C58.1531 22.8413 60.3486 27.9841 60.8547 33.4057Z" fill="url(#paint7_linear_1465_1975)"/>
<path d="M34.9803 24.3299C37.5429 24.3299 39.6202 22.2525 39.6202 19.69V11.6399C39.6202 9.07741 37.5429 7 34.9803 7C32.4177 7 30.3403 9.07741 30.3403 11.6399V19.69C30.3403 22.2525 32.4177 24.3299 34.9803 24.3299Z" fill="url(#paint8_linear_1465_1975)"/>
<path d="M13.9292 44.2926C14.1609 45.3007 14.9769 46.0956 16.036 46.2734L18.9572 46.7661C19.2564 47.7604 19.6435 48.7195 20.1275 49.6433L18.3678 52.1158C17.6286 53.1541 17.7518 54.5707 18.6493 55.4682L21.2802 58.0902C21.7641 58.5829 22.424 58.8557 23.1191 58.8557C23.6646 58.8557 24.1926 58.6885 24.6325 58.3718L27.0522 56.6296C27.9673 57.1223 28.9263 57.5271 29.9118 57.8351L30.4221 60.8267C30.6333 62.0849 31.7156 63 32.9914 63H36.6957C37.9715 63 39.0538 62.0849 39.265 60.8267L39.7577 57.9054C40.7872 57.5975 41.7815 57.1839 42.7317 56.6824L45.1778 58.4246C45.6177 58.7413 46.1369 58.9085 46.6824 58.9085C47.3775 58.9085 48.0286 58.6357 48.5213 58.143L51.1434 55.521C52.0497 54.6235 52.1641 53.2069 51.425 52.1686L49.6828 49.7313C50.1667 48.8163 50.5626 47.8572 50.8706 46.8629L53.827 46.3614C54.9168 46.1785 55.7491 45.3422 55.941 44.2926H43.7094C42.673 48.1721 39.1307 51.0341 34.927 51.0341C30.7233 51.0341 27.1811 48.1721 26.1446 44.2926H13.9292Z" fill="url(#paint9_linear_1465_1975)"/>
<defs>
<linearGradient id="paint0_linear_1465_1975" x1="-47.6706" y1="43.3595" x2="-47.817" y2="35.6928" gradientUnits="userSpaceOnUse">
<stop stop-color="#0B3C5D"/>
<stop offset="1" stop-color="#1C639B"/>
</linearGradient>
<linearGradient id="paint1_linear_1465_1975" x1="-47.6706" y1="43.3595" x2="-47.817" y2="35.6928" gradientUnits="userSpaceOnUse">
<stop stop-color="#0B3C5D"/>
<stop offset="1" stop-color="#1C639B"/>
</linearGradient>
<linearGradient id="paint2_linear_1465_1975" x1="16.0409" y1="49.49" x2="14.0109" y2="35.9909" gradientUnits="userSpaceOnUse">
<stop stop-color="#0B3C5D"/>
<stop offset="1" stop-color="#1C639B"/>
</linearGradient>
<linearGradient id="paint3_linear_1465_1975" x1="26.8882" y1="11.1403" x2="26.8369" y2="11.116" gradientUnits="userSpaceOnUse">
<stop stop-color="#0B3C5D"/>
<stop offset="1" stop-color="#1C639B"/>
</linearGradient>
<linearGradient id="paint4_linear_1465_1975" x1="26.9" y1="11.1521" x2="26.8851" y2="11.1278" gradientUnits="userSpaceOnUse">
<stop stop-color="#0B3C5D"/>
<stop offset="1" stop-color="#1C639B"/>
</linearGradient>
<linearGradient id="paint5_linear_1465_1975" x1="43.0387" y1="11.153" x2="43.0232" y2="11.1285" gradientUnits="userSpaceOnUse">
<stop stop-color="#0B3C5D"/>
<stop offset="1" stop-color="#1C639B"/>
</linearGradient>
<linearGradient id="paint6_linear_1465_1975" x1="43.0479" y1="11.1394" x2="43.0017" y2="11.1193" gradientUnits="userSpaceOnUse">
<stop stop-color="#0B3C5D"/>
<stop offset="1" stop-color="#1C639B"/>
</linearGradient>
<linearGradient id="paint7_linear_1465_1975" x1="-37.8077" y1="36.973" x2="-39.2961" y2="14.074" gradientUnits="userSpaceOnUse">
<stop stop-color="#0B3C5D"/>
<stop offset="1" stop-color="#1C639B"/>
</linearGradient>
<linearGradient id="paint8_linear_1465_1975" x1="21.9275" y1="27.0307" x2="17.2896" y2="10.5162" gradientUnits="userSpaceOnUse">
<stop stop-color="#0B3C5D"/>
<stop offset="1" stop-color="#1C639B"/>
</linearGradient>
<linearGradient id="paint9_linear_1465_1975" x1="-24.1573" y1="65.9154" x2="-25.4395" y2="46.7681" gradientUnits="userSpaceOnUse">
<stop stop-color="#0B3C5D"/>
<stop offset="1" stop-color="#1C639B"/>
</linearGradient>
</defs>
</svg>
