<svg width="70" height="70" viewBox="0 0 70 70" fill="none" xmlns="http://www.w3.org/2000/svg">
<path fill-rule="evenodd" clip-rule="evenodd" d="M42.4972 21.8396L39.6482 16.8611L34.6364 29.381C34.5644 29.5577 34.4411 29.7089 34.2825 29.8152C34.1239 29.9215 33.9371 29.978 33.7461 29.9774H33.7068C33.5093 29.9697 33.3191 29.9011 33.1621 29.7812C33.0051 29.6612 32.8891 29.4957 32.83 29.3073L29.6255 18.9081L27.8556 21.854C27.7707 21.995 27.6509 22.1118 27.5078 22.1932C27.3646 22.2745 27.2028 22.3176 27.0381 22.3183H20.3302V20.4035H26.4958L29.0917 16.0809C29.1871 15.9223 29.3263 15.7948 29.4927 15.7136C29.659 15.6325 29.8454 15.6012 30.0291 15.6236C30.2129 15.6459 30.3862 15.721 30.5282 15.8397C30.6702 15.9584 30.7747 16.1157 30.8291 16.2925L33.864 26.1479L38.6056 14.304C38.6721 14.136 38.7848 13.9902 38.9308 13.8835C39.0767 13.7768 39.2499 13.7136 39.4303 13.701C39.6107 13.6885 39.7909 13.7273 39.9502 13.8128C40.1095 13.8983 40.2414 14.0271 40.3305 14.1843L43.8848 20.4035H52.5093C54.0339 14.0684 50.6694 10.6927 50.6694 10.6927C49.813 9.54778 48.7015 8.61798 47.4228 7.97701C46.1442 7.33603 44.7336 7.00152 43.3031 7C38.39 7 34.7044 10.6927 34.7044 10.6927C34.7044 10.6927 31.0188 7 26.1057 7C24.6745 7.00093 23.2632 7.33515 21.9839 7.97615C20.7045 8.61714 19.5923 9.54726 18.7356 10.6927C18.7356 10.6927 7.68082 21.7716 34.7044 41.4662C45.3758 33.6892 50.1069 27.2565 51.9276 22.3183L57.4263 22.3183C57.6028 22.8134 57.9122 23.2506 58.3206 23.5819C58.729 23.9133 59.2207 24.1261 59.7419 24.1972C60.2632 24.2682 60.794 24.1948 61.2763 23.9848C61.7586 23.7749 62.1739 23.4365 62.4768 23.0067C62.7796 22.5769 62.9584 22.0723 62.9936 21.5478C63.0288 21.0234 62.919 20.4994 62.6762 20.0331C62.4335 19.5667 62.0671 19.1761 61.6171 18.9037C61.1672 18.6313 60.6509 18.4878 60.1248 18.4887C59.5323 18.4912 58.9551 18.6764 58.4721 19.0192C57.989 19.362 57.6238 19.8454 57.4263 20.4035H52.0599C51.902 21.0526 51.7065 21.6919 51.4744 22.3183L43.3289 22.3183C43.1604 22.3186 42.9948 22.2745 42.8487 22.1905C42.7027 22.1065 42.5814 21.9854 42.4972 21.8396ZM60.1248 22.3183C59.9353 22.3183 59.75 22.2621 59.5924 22.1569C59.4348 22.0517 59.312 21.9022 59.2395 21.7273C59.167 21.5523 59.148 21.3598 59.1849 21.1741C59.2219 20.9884 59.3132 20.8178 59.4472 20.6839C59.5812 20.55 59.752 20.4588 59.9379 20.4219C60.1237 20.385 60.3164 20.4039 60.4915 20.4764C60.6666 20.5488 60.8163 20.6716 60.9216 20.829C61.0269 20.9864 61.0831 21.1715 61.0831 21.3609C61.0831 21.6148 60.9821 21.8583 60.8024 22.0379C60.6227 22.2174 60.379 22.3183 60.1248 22.3183Z" fill="url(#paint0_linear_1472_2208)"/>
<path d="M7.34727 20.4035H15.0135V22.3183H7.34727V20.4035Z" fill="url(#paint1_linear_1472_2208)"/>
<path d="M62.1765 41.6308C61.6943 40.8927 60.956 40.3586 60.1035 40.1315C59.251 39.9044 58.3445 40.0003 57.5585 40.4006L52.3186 43.0813C52.6762 43.932 52.715 44.883 52.4279 45.76C52.1409 46.637 51.5472 47.3814 50.7557 47.8568L40.0909 54.1756C37.5899 55.6643 34.6111 56.1333 31.773 55.4853L22.1365 53.1808L22.5821 51.3187L32.1995 53.6164C34.5583 54.1525 37.0331 53.7628 39.1125 52.5279L49.7763 46.2091C50.2118 45.9492 50.5273 45.5283 50.6543 45.0376C50.7813 44.5469 50.7096 44.026 50.4548 43.5877C49.8975 42.6238 48.9906 41.9108 47.9218 41.5963C46.853 41.2818 45.7041 41.3898 44.7127 41.8979L36.9784 45.8635C36.4373 46.1413 35.837 46.2843 35.2287 46.2803C34.6203 46.2763 34.0219 46.1254 33.4845 45.8405L28.214 43.0439C26.4668 42.1206 24.5077 41.6714 22.5324 41.7411C20.5571 41.8108 18.6346 42.3971 16.957 43.4413L19.9622 57.7533L21.5625 57.4087C22.4029 57.2282 23.2681 57.1938 24.1202 57.3072L36.0901 58.6188C38.3417 58.9188 40.6253 58.3855 42.5106 57.1195L61.6504 44.2905C62.07 44.0052 62.3606 43.5666 62.4595 43.0693C62.5585 42.572 62.4578 42.0557 62.1794 41.6318L62.1765 41.6308Z" fill="url(#paint2_linear_1472_2208)"/>
<path fill-rule="evenodd" clip-rule="evenodd" d="M15.4955 40.4077L19.7399 61.2752L11.2444 63L7 42.1324L15.4955 40.4077ZM13.5828 58.1872L13.7947 59.2287C13.9117 59.8039 14.482 60.1737 15.0685 60.0546C15.538 59.9593 15.8756 59.5795 15.9315 59.1366C15.9584 58.9232 15.8061 58.7412 15.6136 58.6449L15.1032 58.3896L15.4549 58.0203C15.6127 57.8547 15.6934 57.613 15.5738 57.418C15.3452 57.045 14.8941 56.8365 14.4329 56.9301C13.8465 57.0492 13.4659 57.612 13.5828 58.1872Z" fill="url(#paint3_linear_1472_2208)"/>
<defs>
<linearGradient id="paint0_linear_1472_2208" x1="-43.7676" y1="71.7273" x2="-52.2344" y2="15.4267" gradientUnits="userSpaceOnUse">
<stop stop-color="#0B3C5D"/>
<stop offset="1" stop-color="#1C639B"/>
</linearGradient>
<linearGradient id="paint1_linear_1472_2208" x1="-43.7676" y1="71.7273" x2="-52.2344" y2="15.4267" gradientUnits="userSpaceOnUse">
<stop stop-color="#0B3C5D"/>
<stop offset="1" stop-color="#1C639B"/>
</linearGradient>
<linearGradient id="paint2_linear_1472_2208" x1="-43.7676" y1="71.7273" x2="-52.2344" y2="15.4267" gradientUnits="userSpaceOnUse">
<stop stop-color="#0B3C5D"/>
<stop offset="1" stop-color="#1C639B"/>
</linearGradient>
<linearGradient id="paint3_linear_1472_2208" x1="-43.7676" y1="71.7273" x2="-52.2344" y2="15.4267" gradientUnits="userSpaceOnUse">
<stop stop-color="#0B3C5D"/>
<stop offset="1" stop-color="#1C639B"/>
</linearGradient>
</defs>
</svg>
