<svg width="70" height="70" viewBox="0 0 70 70" fill="none" xmlns="http://www.w3.org/2000/svg">
<path d="M27.0529 20.5855C27.2532 20.955 27.6396 21.1851 28.0598 21.1851H32.4279C33.0604 21.1851 33.5731 20.6724 33.5731 20.0398C33.5731 19.4073 33.0604 18.8946 32.4279 18.8946H30.1729L33.2857 14.1172C33.5151 13.7652 33.5333 13.3158 33.3331 12.9463C33.1328 12.5769 32.7464 12.3468 32.3262 12.3468H28.194C27.5615 12.3468 27.0488 12.8596 27.0488 13.492C27.0488 14.1244 27.5615 14.6373 28.194 14.6373H30.213L27.1002 19.4146C26.8708 19.7667 26.8527 20.2161 27.0529 20.5855Z" fill="url(#paint0_linear_1477_2361)"/>
<path d="M34.3794 17.5588C34.5773 17.9356 34.9677 18.1716 35.3934 18.1716H41.7762C42.4087 18.1716 42.9214 17.6588 42.9214 17.0264C42.9214 16.394 42.4087 15.8811 41.7762 15.8811H37.5744L42.461 8.79551C42.7027 8.44507 42.7301 7.98972 42.5323 7.61282C42.3344 7.23603 41.944 7 41.5184 7H35.5547C34.9222 7 34.4094 7.51272 34.4094 8.14524C34.4094 8.77764 34.9222 9.29048 35.5547 9.29048H39.3374L34.4508 16.3761C34.209 16.7264 34.1815 17.1819 34.3794 17.5588Z" fill="url(#paint1_linear_1477_2361)"/>
<path fill-rule="evenodd" clip-rule="evenodd" d="M48.3001 45.85C48.3001 46.4299 47.83 46.9 47.2501 46.9H21.3501C20.7702 46.9 20.3001 46.4299 20.3001 45.85C20.3001 45.2701 20.7702 44.8 21.3501 44.8H47.2501C47.83 44.8 48.3001 45.2701 48.3001 45.85Z" fill="url(#paint2_linear_1477_2361)"/>
<path fill-rule="evenodd" clip-rule="evenodd" d="M63.2517 49.4868V44.7185C63.2517 42.6297 62.0472 40.8184 60.2958 39.9407V29.9357C60.2958 26.5525 57.545 23.8 54.164 23.8H15.8362C12.4552 23.8 9.70439 26.5524 9.70439 29.9357V39.9407C7.95303 40.8184 6.74854 42.6297 6.74854 44.7185V49.4867C6.11416 49.4867 5.6001 50.0013 5.6001 50.6358V56.7385C5.6001 57.3731 6.11416 57.8876 6.74854 57.8876H9.90537V61.8509C9.90537 62.4854 10.4194 63 11.0538 63H19.8284C20.4628 63 20.9769 62.4854 20.9769 61.8509V57.8876H49.0233V61.8509C49.0233 62.4854 49.5374 63 50.1718 63H58.9464C59.5808 63 60.0948 62.4854 60.0948 61.8509V57.8876H63.2517C63.886 57.8876 64.4001 57.3731 64.4001 56.7385V50.6358C64.4001 50.0013 63.886 49.4868 63.2517 49.4868ZM9.04541 44.7185C9.04541 43.0404 10.4099 41.6752 12.0874 41.6752H57.9128C59.5903 41.6752 60.9548 43.0404 60.9548 44.7185V49.4867H9.04541V44.7185ZM18.68 60.7017H12.2022V57.8876H18.68V60.7017ZM57.798 60.7017H51.3202V57.8876H57.798V60.7017ZM39.2001 30.8C39.2001 30.4134 39.5132 30.1 39.9001 30.1H51.8001C52.187 30.1 52.5001 30.4134 52.5001 30.8V37.8C52.5001 38.1866 52.187 38.5 51.8001 38.5H39.9001C39.5132 38.5 39.2001 38.1866 39.2001 37.8V30.8ZM18.2001 30.1C17.8132 30.1 17.5001 30.4134 17.5001 30.8V37.8C17.5001 38.1866 17.8132 38.5 18.2001 38.5H30.1001C30.487 38.5 30.8001 38.1866 30.8001 37.8V30.8C30.8001 30.4134 30.487 30.1 30.1001 30.1H18.2001Z" fill="url(#paint3_linear_1477_2361)"/>
<defs>
<linearGradient id="paint0_linear_1477_2361" x1="-47.7059" y1="71.7273" x2="-55.7861" y2="15.3107" gradientUnits="userSpaceOnUse">
<stop stop-color="#0B3C5D"/>
<stop offset="1" stop-color="#1C639B"/>
</linearGradient>
<linearGradient id="paint1_linear_1477_2361" x1="-47.7059" y1="71.7273" x2="-55.7861" y2="15.3107" gradientUnits="userSpaceOnUse">
<stop stop-color="#0B3C5D"/>
<stop offset="1" stop-color="#1C639B"/>
</linearGradient>
<linearGradient id="paint2_linear_1477_2361" x1="-47.7059" y1="71.7273" x2="-55.7861" y2="15.3107" gradientUnits="userSpaceOnUse">
<stop stop-color="#0B3C5D"/>
<stop offset="1" stop-color="#1C639B"/>
</linearGradient>
<linearGradient id="paint3_linear_1477_2361" x1="-47.7059" y1="71.7273" x2="-55.7861" y2="15.3107" gradientUnits="userSpaceOnUse">
<stop stop-color="#0B3C5D"/>
<stop offset="1" stop-color="#1C639B"/>
</linearGradient>
</defs>
</svg>
