<svg width="41" height="41" viewBox="0 0 41 41" fill="none" xmlns="http://www.w3.org/2000/svg">
<path d="M17.7002 36.6478C18.768 36.6478 20.1009 35.7841 21.2581 33.5485C21.4675 33.144 21.6634 32.7069 21.8439 32.2405C20.5527 32.0489 19.1602 31.9428 17.7002 31.9428C16.2402 31.9428 14.8477 32.0489 13.5565 32.2405C13.737 32.7069 13.9329 33.144 14.1423 33.5485C15.2995 35.7841 16.6324 36.6478 17.7002 36.6478Z" fill="#1C75BC"/>
<path d="M17.7002 30.3145C19.3319 30.3145 20.9 30.4391 22.3609 30.6685C22.7794 29.1535 23.0466 27.4247 23.1059 25.5645H12.2945C12.3538 27.4247 12.621 29.1535 13.0395 30.6685C14.5004 30.4391 16.0685 30.3145 17.7002 30.3145Z" fill="#1C75BC"/>
<path d="M21.5627 35.9749C22.2785 35.0518 22.9012 33.8794 23.3968 32.5218C24.287 32.7138 25.1141 32.948 25.8644 33.2163C24.6594 34.4353 23.1947 35.3863 21.5627 35.9749Z" fill="#1C75BC"/>
<path d="M23.8898 30.955C25.0171 31.2021 26.0621 31.5145 27.0017 31.8816C28.3075 30.0974 29.1337 27.9252 29.2856 25.5645H24.655C24.5969 27.4994 24.327 29.3245 23.8898 30.955Z" fill="#1C75BC"/>
<path d="M10.7454 25.5645C10.8035 27.4994 11.0734 29.3245 11.5106 30.955C10.3833 31.2021 9.33828 31.5145 8.39872 31.8816C7.09293 30.0974 6.2667 27.9252 6.11483 25.5645H10.7454Z" fill="#1C75BC"/>
<path d="M13.8377 35.9749C12.2057 35.3863 10.741 34.4353 9.536 33.2163C10.2863 32.948 11.1134 32.7138 12.0036 32.5218C12.4992 33.8794 13.1219 35.0518 13.8377 35.9749Z" fill="#1C75BC"/>
<path d="M12.2945 23.9812H23.1059C23.0466 22.121 22.7794 20.3921 22.3609 18.8772C20.9 19.1066 19.3319 19.2312 17.7002 19.2312C16.0685 19.2312 14.5004 19.1066 13.0395 18.8772C12.621 20.3921 12.3538 22.121 12.2945 23.9812Z" fill="#1C75BC"/>
<path d="M13.5565 17.3051C13.737 16.8388 13.9329 16.4016 14.1423 15.9972C15.2995 13.7615 16.6324 12.8978 17.7002 12.8978C18.768 12.8978 20.1009 13.7615 21.2581 15.9972C21.4675 16.4016 21.6634 16.8388 21.8439 17.3051C20.5527 17.4968 19.1602 17.6028 17.7002 17.6028C16.2402 17.6028 14.8477 17.4968 13.5565 17.3051Z" fill="#1C75BC"/>
<path d="M23.8898 18.5907C24.327 20.2211 24.5969 22.0463 24.655 23.9812H29.2856C29.1337 21.6205 28.3075 19.4482 27.0017 17.6641C26.0621 18.0311 25.0171 18.3436 23.8898 18.5907Z" fill="#1C75BC"/>
<path d="M25.8644 16.3293C25.1141 16.5976 24.287 16.8319 23.3968 17.0238C22.9012 15.6663 22.2785 14.4938 21.5627 13.5707C23.1947 14.1593 24.6594 15.1104 25.8644 16.3293Z" fill="#1C75BC"/>
<path d="M12.0036 17.0238C11.1134 16.8319 10.2863 16.5976 9.536 16.3293C10.741 15.1104 12.2057 14.1593 13.8377 13.5707C13.1219 14.4938 12.4992 15.6663 12.0036 17.0238Z" fill="#1C75BC"/>
<path d="M8.39872 17.6641C9.33828 18.0311 10.3833 18.3436 11.5106 18.5907C11.0734 20.2211 10.8035 22.0463 10.7454 23.9812H6.11483C6.2667 21.6205 7.09293 19.4482 8.39872 17.6641Z" fill="#1C75BC"/>
<path fill-rule="evenodd" clip-rule="evenodd" d="M38.2568 2.07384C38.2891 2.12853 39.0519 3.4298 39.6147 5.24718C40.375 7.69982 40.3952 9.92345 39.6729 11.6776C38.9513 13.4313 37.3842 14.9664 35.1415 16.1163C34.0673 16.6671 33.0865 17.006 32.5102 17.1805C32.8862 18.0629 33.1855 18.9735 33.4059 19.9034C33.4893 20.2553 33.2168 20.5853 32.8551 20.5853C32.5827 20.5853 32.3488 20.394 32.2851 20.1292C31.8299 18.2359 31.0228 16.43 29.8833 14.797C28.9015 13.3905 27.7215 12.1832 26.3912 11.2032C26.0797 11.4803 25.5181 11.9576 24.7641 12.5096C24.6441 12.5928 24.4883 12.5981 24.362 12.5255L24.3142 12.4981L24.2741 12.4754C23.9076 12.2685 23.8677 11.7246 24.2069 11.4735C24.5052 11.2526 24.7699 11.0458 24.9959 10.8629L19.7952 9.82213L18.7571 10.6035C18.5879 10.7308 18.3812 10.7935 18.1714 10.7882C18.0609 10.7855 17.95 10.7841 17.8389 10.7841C17.4647 10.7841 17.2786 10.2636 17.5803 10.0366L18.2707 9.51696L13.5374 8.56969L9.11729 11.8966C9.40087 12.1695 9.69717 12.4338 10.0058 12.6848C10.2293 12.8666 10.2221 13.2235 9.9913 13.3956C9.7287 13.5913 9.37355 13.6153 9.11267 13.4172C8.33802 12.8289 7.71946 12.1122 6.72882 10.9643L6.72732 10.9626C6.62919 10.8489 6.52741 10.731 6.42148 10.6085C4.96657 8.72155 4.09253 6.96886 3.8619 6.48302C3.68571 6.24718 3.71924 5.88048 3.92967 5.67858C3.99529 5.61559 5.56813 4.11657 7.92014 2.75182C11.0758 0.920766 14.1254 0.231069 16.7401 0.756459C21.1127 1.63584 24.7623 6.14154 26.643 9.95641C27.7564 10.7233 28.7779 11.6341 29.6859 12.6754C29.2596 10.703 29.3459 8.91759 29.9468 7.45714C30.6686 5.70348 32.2355 4.16833 34.4786 3.01842C36.1402 2.16637 37.5806 1.82116 37.6409 1.807C37.8742 1.75207 38.1317 1.86217 38.2568 2.07384ZM15.0812 1.75573C15.5608 1.76256 16.0421 1.81017 16.5209 1.90661C20.2888 2.66401 23.4497 6.50741 25.2185 9.71349L20.0202 8.67297L15.0812 1.75573ZM32.4812 5.80846L34.103 9.84411L36.769 3.29918C36.5252 3.38643 36.1398 4.06848 35.7314 4.79105C35.2907 5.57075 34.8234 6.39762 34.4786 6.57528C34.1133 6.76341 33.8251 6.44071 33.5408 6.1224C33.2182 5.7612 32.9006 5.40565 32.4812 5.80846ZM37.5284 5.50198C37.7351 4.726 37.9302 3.99407 37.8212 3.75353L35.2512 10.0621L39.0519 8.45202C39.028 7.90342 38.5732 7.92381 38.1147 7.94437C37.7091 7.96255 37.3006 7.98086 37.1851 7.60543C37.0686 7.22726 37.3053 6.33899 37.5284 5.50198ZM31.6351 6.77599C31.3838 7.12585 31.1663 7.50475 30.9979 7.91344C30.2247 9.79211 30.6184 11.9928 31.0852 13.5077C31.3177 14.2643 31.5919 14.9303 31.8247 15.4374L33.4814 11.3695L31.6351 6.77599ZM32.9077 15.8151C33.4046 15.6351 34.0148 15.3856 34.6541 15.056C36.0375 14.3439 37.8487 13.1 38.6217 11.2213C38.8188 10.7428 38.9399 10.2438 39.0033 9.74035L34.627 11.5946L32.9077 15.8151ZM5.39432 6.93957C5.96283 7.963 6.9529 9.56139 8.30366 11.0563L12.0126 8.26452L5.39432 6.93957ZM12.2416 7.11632L9.47252 3.23815C7.80339 4.08239 6.4191 5.10314 5.58049 5.78307L12.2416 7.11632ZM10.5356 2.74499L13.8926 7.44689L18.3693 8.34264L13.7252 1.83873C12.6194 1.98717 11.5406 2.32091 10.5356 2.74499Z" fill="#1C75BC"/>
<path d="M33.3006 23.4697C32.9808 23.4697 32.7245 23.7328 32.7199 24.0526C32.7088 24.829 32.6411 25.61 32.5156 26.3903C31.1544 34.8519 23.343 40.5997 15.1007 39.2015C11.1084 38.5245 7.61199 36.2921 5.25523 32.9149C3.34102 30.1724 2.36493 26.9414 2.41893 23.6286C3.2406 23.4448 3.85589 22.6936 3.85589 21.7948C3.85589 20.7583 3.03753 19.918 2.02804 19.918C1.01855 19.918 0.200195 20.7583 0.200195 21.7948C0.200195 22.5576 0.643325 23.214 1.27966 23.5076C1.1992 27.1064 2.24932 30.6197 4.32722 33.5978C6.86159 37.2289 10.6219 39.6298 14.9148 40.358C15.8126 40.5101 16.7114 40.5853 17.604 40.5853C20.9779 40.5853 24.2601 39.5096 27.0569 37.4518C30.5942 34.8495 32.9327 30.9891 33.6415 26.5812C33.7785 25.729 33.8514 24.876 33.8616 24.0283C33.8653 23.718 33.6109 23.4697 33.3006 23.4697Z" fill="#1C75BC"/>
</svg>
