<svg width="40" height="40" viewBox="0 0 40 40" fill="none" xmlns="http://www.w3.org/2000/svg">
<g clip-path="url(#clip0_privacy_icon)">
<!-- User/Person silhouette representing personal data -->
<path d="M20 4C17.7909 4 16 5.79086 16 8C16 10.2091 17.7909 12 20 12C22.2091 12 24 10.2091 24 8C24 5.79086 22.2091 4 20 4ZM17.5 8C17.5 6.61929 18.6193 5.5 20 5.5C21.3807 5.5 22.5 6.61929 22.5 8C22.5 9.38071 21.3807 10.5 20 10.5C18.6193 10.5 17.5 9.38071 17.5 8Z" fill="#1C75BC"/>

<!-- Body/shoulders of person -->
<path d="M14.5 13.5C12.567 13.5 11 15.067 11 17V18.5C11 18.7761 11.2239 19 11.5 19H28.5C28.7761 19 29 18.7761 29 18.5V17C29 15.067 27.433 13.5 25.5 13.5H14.5ZM12.5 17C12.5 15.8954 13.3954 15 14.5 15H25.5C26.6046 15 27.5 15.8954 27.5 17V17.5H12.5V17Z" fill="#1C75BC"/>

<!-- Lock body -->
<path d="M24.5 23.5H15.5C14.6716 23.5 14 24.1716 14 25V30C14 30.8284 14.6716 31.5 15.5 31.5H24.5C25.3284 31.5 26 30.8284 26 30V25C26 24.1716 25.3284 23.5 24.5 23.5ZM15.5 25H24.5V30H15.5V25Z" fill="#1C75BC"/>

<!-- Lock shackle -->
<path d="M17 23.5V21.5C17 19.567 18.567 18 20.5 18H19.5C17.567 18 16 19.567 16 21.5V23.5H17Z" fill="#1C75BC"/>
<path d="M23 23.5V21.5C23 19.567 21.433 18 19.5 18H20.5C22.433 18 24 19.567 24 21.5V23.5H23Z" fill="#1C75BC"/>
<path d="M16 21.5C16 19.567 17.567 18 19.5 18C21.433 18 23 19.567 23 21.5V23.5H24V21.5C24 19.0147 21.9853 17 19.5 17C17.0147 17 15 19.0147 15 21.5V23.5H16V21.5Z" fill="#1C75BC"/>

<!-- Keyhole in lock -->
<path d="M20 26C19.4477 26 19 26.4477 19 27C19 27.3522 19.1906 27.6572 19.4746 27.8321L19 29.5H21L20.5254 27.8321C20.8094 27.6572 21 27.3522 21 27C21 26.4477 20.5523 26 20 26Z" fill="#1C75BC"/>

<!-- Shield outline for privacy protection -->
<path d="M20 1L4 6V16C4 25.6 10.4 34.4 20 37C29.6 34.4 36 25.6 36 16V6L20 1ZM20 2.8L34.5 7.2V16C34.5 24.7 28.7 32.8 20 35.4C11.3 32.8 5.5 24.7 5.5 16V7.2L20 2.8Z" fill="#1C75BC"/>

<!-- Additional privacy symbols - document/data lines -->
<path d="M28 22H30V23.5H28V22Z" fill="#1C75BC"/>
<path d="M28 25H31V26.5H28V25Z" fill="#1C75BC"/>
<path d="M28 28H30.5V29.5H28V28Z" fill="#1C75BC"/>
<path d="M10 22H12V23.5H10V22Z" fill="#1C75BC"/>
<path d="M9 25H12V26.5H9V25Z" fill="#1C75BC"/>
<path d="M9.5 28H12V29.5H9.5V28Z" fill="#1C75BC"/>
</g>
<defs>
<clipPath id="clip0_privacy_icon">
<rect width="40" height="40" fill="white"/>
</clipPath>
</defs>
</svg>
