<svg width="40" height="40" viewBox="0 0 40 40" fill="none" xmlns="http://www.w3.org/2000/svg">
<g clip-path="url(#clip0_1310_8770)">
<path fill-rule="evenodd" clip-rule="evenodd" d="M24.1324 13.7622V16.3341C25.0621 16.3675 25.8082 17.1336 25.8082 18.0713V24.0689C25.8082 25.0277 25.0281 25.8077 24.0693 25.8077H15.9302C14.9714 25.8077 14.1913 25.0277 14.1914 24.0689V18.0713C14.1914 17.1337 14.9374 16.3676 15.8669 16.3341V13.7622C15.8669 11.4834 17.7209 9.62952 19.9996 9.62952C22.2785 9.62952 24.1324 11.4834 24.1324 13.7622ZM19.9997 11.192C18.5824 11.192 17.4294 12.345 17.4294 13.7622L17.4293 16.3325H22.5698V13.7622C22.5698 12.345 21.4169 11.192 19.9997 11.192ZM18.9074 20.5954C18.9074 19.9938 19.3981 19.5031 19.9998 19.5031C20.6014 19.5031 21.0921 19.9938 21.0921 20.5954C21.0921 20.8912 20.9731 21.1598 20.781 21.3568V22.1214C20.781 22.5529 20.4313 22.9027 19.9998 22.9027C19.5683 22.9027 19.2185 22.5529 19.2185 22.1214V21.3568C19.0264 21.1599 18.9074 20.8912 18.9074 20.5954Z" fill="#1C75BC"/>
<path d="M20.3564 0.0991695C25.2911 3.04822 30.7881 5.40805 36.253 6.92359C36.5751 7.01297 36.8001 7.3239 36.8002 7.67984V11.2187C36.8002 11.6502 36.4731 12 36.0697 12C35.6662 12 35.3392 11.6502 35.3392 11.2187V8.28163C30.0675 6.76711 24.7844 4.49165 20.0002 1.67455C15.0916 4.56915 10.0635 6.735 4.66098 8.28187V16.3043C4.66098 24.6105 8.44548 30.1073 11.6202 33.256C13.6331 35.2523 15.5892 36.5126 16.8756 37.2183C18.506 38.1127 19.6374 38.4373 20.0001 38.4373C20.3629 38.4373 21.4944 38.1126 23.1246 37.2183C24.4112 36.5126 26.3672 35.2523 28.38 33.256C31.5548 30.1073 35.3391 24.6105 35.3392 16.3043V15.9813C35.3392 15.5498 35.6662 15.2 36.0697 15.2C36.4731 15.2 36.8002 15.5498 36.8002 15.9813V16.3044C36.8002 25.1744 32.7614 31.0418 29.3733 34.402C25.739 38.0065 21.5242 40 20.0002 40C18.4762 40 14.2614 38.0065 10.627 34.402C7.23888 31.0418 3.2002 25.1743 3.2002 16.3044V7.67991C3.2002 7.32398 3.42517 7.01304 3.74729 6.92367C9.36742 5.365 14.5673 3.13275 19.6439 0.0991695C19.8654 -0.0330955 20.1351 -0.0330174 20.3564 0.0991695Z" fill="#1C75BC"/>
<path d="M13.9394 27.9925L13.9248 27.9757C13.6545 27.6589 13.1953 27.6345 12.8969 27.9219C12.597 28.2105 12.5727 28.7044 12.8425 29.0251L12.8571 29.0419C13.0011 29.2105 13.1985 29.2963 13.3967 29.2963C13.5708 29.2963 13.7455 29.2301 13.8851 29.0958C14.1849 28.8072 14.2092 28.3131 13.9394 27.9925Z" fill="#1C75BC"/>
<path d="M17.8791 31.5386C16.9992 30.9447 16.152 30.2601 15.361 29.5039C15.0603 29.2162 14.5986 29.244 14.3297 29.5656C14.0609 29.8873 14.0867 30.3811 14.3875 30.6687C15.2387 31.4826 16.1512 32.2198 17.0995 32.86C17.2206 32.9416 17.3553 32.9806 17.4886 32.9806C17.731 32.9806 17.9681 32.8517 18.107 32.6162C18.3223 32.2513 18.2203 31.7688 17.8791 31.5386Z" fill="#1C75BC"/>
<path fill-rule="evenodd" clip-rule="evenodd" d="M33.717 9.01312C29.0907 7.57461 24.5913 5.62064 20.3438 3.20557C20.1292 3.08346 19.8718 3.08369 19.6574 3.20604C15.4034 5.63118 10.904 7.58547 6.28403 9.01461C5.97163 9.11125 5.75652 9.41718 5.75652 9.76507V16.3043C5.75652 19.3571 6.2974 22.2543 7.36404 24.9153C8.42536 27.563 10.0083 29.9794 12.0687 32.0975C13.5423 33.6124 15.2438 34.9473 16.9893 35.9579C17.3021 36.139 18.9107 37.0519 19.8674 37.2408C19.9112 37.2494 19.9555 37.2538 19.9999 37.2538C20.0444 37.2538 20.0887 37.2494 20.1325 37.2408C21.0892 37.0519 22.6978 36.139 23.0106 35.9579C24.7559 34.9473 26.4574 33.6124 27.9312 32.0975C29.9916 29.9795 31.5745 27.5631 32.6358 24.9153C33.7025 22.2544 34.2434 19.3572 34.2434 16.3043V9.76335C34.2434 9.41593 34.0288 9.11023 33.717 9.01312ZM32.7826 16.3043C32.7826 22.0367 30.8098 26.9712 26.919 30.9709C25.5386 32.3898 23.9467 33.6391 22.3152 34.5838C21.5726 35.0137 20.57 35.5149 19.9999 35.6724C19.4298 35.5149 18.4273 35.0137 17.6848 34.5838C16.0532 33.639 14.4613 32.3897 13.081 30.9709C9.19019 26.9713 7.21737 22.0367 7.21737 16.3043V10.35C11.6258 8.94617 15.922 7.07414 20.0013 4.77923C24.0739 7.06446 28.3697 8.93578 32.7825 10.3475L32.7826 16.3043Z" fill="#1C75BC"/>
</g>
<defs>
<clipPath id="clip0_1310_8770">
<rect width="40" height="40" fill="white"/>
</clipPath>
</defs>
</svg>
