<svg width="38" height="38" viewBox="0 0 38 38" fill="none" xmlns="http://www.w3.org/2000/svg">
<g clip-path="url(#clip0_1310_8771)">
<path d="M32.7771 26.915C32.4743 26.8537 32.1797 27.0545 32.1195 27.364C31.4782 30.6601 29.2013 33.4763 26.1771 34.7138C25.8904 34.8311 25.7511 35.1637 25.8659 35.4566C25.9808 35.7496 26.3064 35.8918 26.5931 35.7745C30.0748 34.3498 32.5159 31.189 33.2166 27.5867C33.2769 27.2772 33.08 26.9765 32.7771 26.915Z" fill="#1C75BC"/>
<path d="M31.8272 18.0796C30.3311 18.943 28.9199 18.9718 27.6326 18.1653C26.6092 17.5241 26.0357 16.5851 26.0128 16.5471C25.8244 16.232 25.5025 16.0384 25.1441 16.0207C24.1035 13.0449 22.3669 10.9778 21.0587 9.74717C20.2244 8.96233 19.1414 8.53015 18.0092 8.53015C17.4655 8.53015 13.2788 8.53015 12.7494 8.53015C11.5407 8.53015 10.3901 8.9941 9.50987 9.83644C7.69742 11.571 4.65406 15.3602 4.63624 21.2488C4.63244 22.4835 5.59213 23.515 6.77545 23.5483C8.01157 23.5853 9.03853 22.572 9.03853 21.3008C9.03853 19.0909 9.64618 17.0105 10.809 15.201V36.2979C10.809 37.3908 11.6795 38.28 12.7495 38.28H13.9983C14.5382 38.28 15.0273 38.0536 15.3794 37.6889C15.7315 38.0536 16.2206 38.28 16.7606 38.28H18.0094C19.0794 38.28 19.9499 37.3908 19.9499 36.2979V33.2861C20.9845 34.3478 22.2164 35.1855 23.5775 35.7425C23.8645 35.8598 24.19 35.7173 24.3047 35.4246C24.4196 35.1317 24.2803 34.7992 23.9936 34.6818C20.3927 33.2082 17.8596 29.5549 17.8596 25.3339V19.1067C20.124 20.3877 22.3164 20.0753 24.1074 18.368C24.5183 17.9824 24.8531 17.5744 25.0794 17.2118C25.0829 17.2064 25.0875 17.1994 25.0906 17.1946C25.2512 17.448 25.9223 18.434 27.0481 19.1393C28.1802 19.8487 30.0106 20.4144 32.3216 19.1066V24.7774C32.3216 25.093 32.572 25.3487 32.8809 25.3487C33.1898 25.3487 33.4402 25.093 33.4402 24.7774V19.041C33.4399 18.1966 32.5483 17.6638 31.8272 18.0796ZM19.9497 18.6977V15.3488C20.5941 16.3823 21.0559 17.4961 21.3292 18.678C20.8809 18.7784 20.4219 18.7847 19.9497 18.6977ZM22.3805 18.2585C21.9313 16.4249 21.07 14.7445 19.8141 13.2548C19.4759 12.8537 18.8309 13.1002 18.8309 13.6276V18.3286C18.59 18.2166 18.2878 18.0451 18.2795 18.0412C17.5689 17.6996 16.7406 18.2282 16.7406 19.0411V19.0608V25.3341C16.7406 27.7256 17.4646 30.0128 18.8309 31.9431V36.298H18.8312C18.8312 36.7609 18.4625 37.1376 18.0093 37.1376H16.7605C16.3074 37.1376 15.9386 36.7611 15.9386 36.298V24.5574C15.9386 24.2418 15.6882 23.9861 15.3794 23.9861C15.0705 23.9861 14.8201 24.2418 14.8201 24.5574V36.2979C14.8201 36.7608 14.4514 37.1375 13.9982 37.1375H12.7494C12.2963 37.1375 11.9275 36.761 11.9275 36.2979V13.5153C11.9275 12.9898 11.2884 12.7442 10.9488 13.1374C8.96716 15.4313 7.91978 18.2542 7.91978 21.3009C7.91978 21.9159 7.42808 22.4214 6.80618 22.4062C6.22454 22.3899 5.75283 21.8723 5.75477 21.2524C5.77132 15.7928 8.59365 12.279 10.2746 10.6704C10.9469 10.0271 11.8257 9.67276 12.7493 9.67276H12.9336C17.8248 9.67276 12.9336 9.67276 17.8248 9.67276H18.0091C18.8598 9.67276 19.6737 9.99769 20.3009 10.5876C21.5398 11.7532 23.1931 13.7258 24.1497 16.5755C23.7238 17.232 23.0742 17.8585 22.3805 18.2585Z" fill="#1C75BC"/>
<path d="M15.3691 0.380005C13.2626 0.380005 11.5488 2.13051 11.5488 4.28227C11.5488 6.43404 13.2626 8.18455 15.3691 8.18455C17.4757 8.18455 19.1894 6.43404 19.1894 4.28227C19.1894 2.13051 17.4757 0.380005 15.3691 0.380005ZM15.3691 7.04194C13.8794 7.04194 12.6674 5.80397 12.6674 4.28227C12.6674 2.76058 13.8795 1.52261 15.3691 1.52261C16.8588 1.52261 18.0708 2.76065 18.0708 4.28227C18.0708 5.8039 16.8588 7.04194 15.3691 7.04194Z" fill="#1C75BC"/>
<path d="M22.3874 25.9304V25.4445C22.3874 25.2077 22.5753 25.0157 22.8071 25.0157H23.7306V24.0724C23.7306 23.8356 23.9185 23.6436 24.1504 23.6436H24.6261V19.0413C23.5537 20.415 22.282 21.4213 21.3933 21.7899C20.3952 22.2037 19.6458 22.2723 19.6392 22.2729C19.4211 22.2908 19.2531 22.4768 19.2531 22.7003C19.2531 25.0931 19.2378 25.2974 19.3006 25.9304H22.3874V25.9304Z" fill="#1C75BC"/>
<path d="M25.4658 23.6435H25.9416C26.1734 23.6435 26.3613 23.8355 26.3613 24.0723V25.0156H27.2848C27.5166 25.0156 27.7046 25.2076 27.7046 25.4444V25.9303H30.7913C30.8544 25.2947 30.8388 25.0853 30.8388 22.7002C30.8388 22.4767 30.6708 22.2907 30.4527 22.2728C30.4236 22.2704 27.5601 21.7251 25.4658 19.0413V23.6435Z" fill="#1C75BC"/>
<path d="M25.5218 27.274C25.5218 27.0372 25.7097 26.8452 25.9415 26.8452H26.865V25.8733H25.9415C25.7097 25.8733 25.5218 25.6813 25.5218 25.4445V24.5012H24.5703V25.4445C24.5703 25.6813 24.3824 25.8733 24.1505 25.8733H23.2271V26.8452H24.1505C24.3824 26.8452 24.5703 27.0372 24.5703 27.274V28.2173H25.5218V27.274Z" fill="#1C75BC"/>
<path d="M24.6264 29.0747H24.1507C23.9189 29.0747 23.7309 28.8827 23.7309 28.6459V27.7026H22.8075C22.5756 27.7026 22.3877 27.5106 22.3877 27.2738V26.7879H19.4253C19.6559 27.9915 20.1159 29.2901 20.7888 30.3261C21.7415 31.7928 23.0644 32.9464 24.6264 33.6769V29.0747Z" fill="#1C75BC"/>
<path d="M27.7046 26.7879V27.2738C27.7046 27.5106 27.5166 27.7026 27.2848 27.7026H26.3613V28.6459C26.3613 28.8827 26.1734 29.0747 25.9416 29.0747H25.4658V33.6769C27.0279 32.9464 28.3507 31.7928 29.3034 30.3261C29.9763 29.2901 30.4363 27.9916 30.667 26.7879H27.7046Z" fill="#1C75BC"/>
</g>
<defs>
<clipPath id="clip0_1310_8771">
<rect width="38" height="38" fill="white"/>
</clipPath>
</defs>
</svg>
