<svg width="70" height="70" viewBox="0 0 70 70" fill="none" xmlns="http://www.w3.org/2000/svg">
<path fill-rule="evenodd" clip-rule="evenodd" d="M33.4913 36.1901C34.1255 36.2091 34.6548 35.7027 34.6738 35.0589L34.7295 33.1777C34.7485 32.5333 34.2492 31.9954 33.6146 31.9764L33.0412 31.9593C32.4987 31.9431 32.0482 31.5416 31.9017 31.0111C31.8145 30.6953 31.7115 30.3817 31.5925 30.0712C31.3941 29.5538 31.5209 28.9532 31.9517 28.6111L32.3805 28.2706C32.884 27.8709 32.9695 27.1309 32.5708 26.6238L31.4049 25.1406C31.0118 24.6405 30.2953 24.5551 29.7988 24.9492L29.338 25.315C28.9138 25.6518 28.3197 25.6382 27.8745 25.3306C27.5973 25.1391 27.3115 24.9621 27.0183 24.8C26.5386 24.5346 26.2549 23.9931 26.3667 23.4502L26.4772 22.9135C26.6074 22.281 26.2065 21.6615 25.5831 21.5318L23.7277 21.1456C23.1078 21.0166 22.5019 21.4205 22.3721 22.0493L22.2583 22.6005C22.1469 23.1403 21.6774 23.52 21.1365 23.5712C20.8017 23.6029 20.467 23.6516 20.1337 23.7176C19.6033 23.8227 19.0503 23.5956 18.7921 23.1136L18.5208 22.6072C18.2193 22.0445 17.5273 21.8338 16.9706 22.1351L15.3057 23.0363C14.7423 23.3412 14.5317 24.0539 14.8367 24.6233L15.0916 25.0992C15.3532 25.5874 15.2338 26.1902 14.8487 26.5851C14.6154 26.8243 14.3952 27.0738 14.1884 27.3325C13.8478 27.7585 13.2803 27.945 12.7774 27.7439L12.233 27.5261C11.6454 27.291 10.9811 27.5814 10.7455 28.1764L10.0518 29.9282C9.81391 30.5289 10.1032 31.2113 10.6965 31.4488L11.2178 31.6575C11.7254 31.8607 12.015 32.3982 11.9717 32.9505C11.9461 33.2767 11.936 33.6047 11.9418 33.9335C11.9516 34.4865 11.6313 35.0041 11.1136 35.1762L10.58 35.3535C9.97436 35.5548 9.64573 36.2181 9.84755 36.8318L10.4359 38.6211C10.6361 39.2297 11.2828 39.5601 11.8834 39.3605L12.4391 39.1758C12.9526 39.0052 13.5081 39.2253 13.8234 39.6706C14.0171 39.9442 14.2226 40.2058 14.4389 40.4551C14.8008 40.8724 14.8849 41.4816 14.5951 41.9534L14.3126 42.4132C13.9747 42.9634 14.1434 43.6878 14.6883 44.0261L16.2959 45.0238C16.834 45.3578 17.5366 45.1892 17.8704 44.646L18.176 44.1486C18.4615 43.6839 19.0257 43.4903 19.5482 43.6269C19.8754 43.7124 20.207 43.7817 20.5414 43.8344C21.0774 43.9188 21.5222 44.3264 21.6012 44.8712L21.6822 45.4294C21.7744 46.0657 22.3565 46.5062 22.9835 46.4142L24.8597 46.1388C25.4889 46.0465 25.9247 45.453 25.8322 44.8144L25.7537 44.2717C25.6743 43.724 25.9884 43.2014 26.4815 42.965C26.6305 42.8935 26.7785 42.818 26.9255 42.7385C27.0765 42.6569 27.2246 42.5718 27.3697 42.4836C27.8317 42.2025 28.4255 42.2242 28.8296 42.5858L29.2675 42.9776C29.7402 43.4006 30.4602 43.3583 30.8817 42.8827L32.134 41.4697C32.5615 40.9872 32.5192 40.2433 32.0397 39.8141L31.631 39.4482C31.2209 39.0811 31.129 38.4742 31.3565 37.9695C31.4923 37.6684 31.6134 37.3611 31.7196 37.0488C31.8964 36.5291 32.3688 36.1566 32.9101 36.1728L33.4913 36.1901ZM24.6453 38.4822C22.044 39.8897 18.7887 38.9086 17.3889 36.2952C15.988 33.6816 16.9644 30.4092 19.5657 29.0024C22.1656 27.5945 25.4207 28.5764 26.8216 31.1901C28.2212 33.8039 27.2455 37.0745 24.6453 38.4822Z" fill="url(#paint0_linear_1477_2319)"/>
<path fill-rule="evenodd" clip-rule="evenodd" d="M41.0734 17.5381C41.5169 17.5514 41.887 17.1973 41.9003 16.747L41.9393 15.4314C41.9526 14.9808 41.6034 14.6046 41.1596 14.5913L40.7585 14.5793C40.3792 14.568 40.0642 14.2872 39.9617 13.9162C39.9007 13.6954 39.8287 13.476 39.7454 13.2589C39.6067 12.897 39.6954 12.477 39.9966 12.2378L40.2965 11.9997C40.6486 11.7201 40.7084 11.2026 40.4296 10.8479L39.6142 9.81066C39.3393 9.46091 38.8382 9.40121 38.491 9.67682L38.1688 9.93265C37.8721 10.1682 37.4566 10.1587 37.1452 9.94356C36.9514 9.80966 36.7515 9.68586 36.5465 9.57246C36.211 9.38691 36.0126 9.00818 36.0907 8.62853L36.168 8.25315C36.2591 7.81085 35.9788 7.37762 35.5428 7.28687L34.2452 7.01679C33.8117 6.92656 33.3879 7.20906 33.2972 7.64876L33.2176 8.0343C33.1397 8.4118 32.8114 8.67734 32.4331 8.71314C32.1989 8.7353 31.9648 8.76934 31.7318 8.81552C31.3608 8.88899 30.9741 8.73019 30.7935 8.39312L30.6037 8.03897C30.3929 7.64544 29.909 7.49806 29.5196 7.70882L28.3553 8.33904C27.9613 8.55229 27.814 9.05069 28.0273 9.4489L28.2056 9.78171C28.3885 10.1231 28.305 10.5447 28.0357 10.8209C27.8726 10.9882 27.7186 11.1627 27.5739 11.3436C27.3357 11.6415 26.9388 11.7719 26.5872 11.6313L26.2064 11.479C25.7955 11.3146 25.3309 11.5177 25.1661 11.9337L24.681 13.1589C24.5146 13.5789 24.717 14.0562 25.1319 14.2223L25.4964 14.3682C25.8515 14.5104 26.054 14.8863 26.0237 15.2725C26.0058 15.5006 25.9987 15.73 26.0028 15.96C26.0096 16.3467 25.7856 16.7087 25.4236 16.829L25.0504 16.9531C24.6269 17.0939 24.397 17.5577 24.5382 17.9869L24.9496 19.2382C25.0896 19.6639 25.5419 19.8949 25.962 19.7553L26.3506 19.6262C26.7097 19.5069 27.0981 19.6608 27.3187 19.9722C27.4541 20.1635 27.5979 20.3465 27.7491 20.5208C28.0022 20.8127 28.061 21.2387 27.8583 21.5687L27.6608 21.8902C27.4244 22.275 27.5425 22.7816 27.9236 23.0182L29.0478 23.716C29.4241 23.9495 29.9155 23.8316 30.1489 23.4517L30.3626 23.1039C30.5623 22.7789 30.9569 22.6435 31.3223 22.739C31.5511 22.7988 31.783 22.8473 32.0169 22.8841C32.3917 22.9431 32.7028 23.2282 32.758 23.6092L32.8147 23.9996C32.8792 24.4446 33.2863 24.7527 33.7248 24.6883L35.0369 24.4957C35.4769 24.4311 35.7817 24.0161 35.717 23.5695L35.6621 23.1899C35.6066 22.8069 35.8262 22.4414 36.171 22.2761C36.2752 22.2261 36.3788 22.1733 36.4816 22.1177C36.5872 22.0607 36.6908 22.0012 36.7922 21.9394C37.1154 21.7429 37.5306 21.758 37.8132 22.0109L38.1194 22.2849C38.45 22.5808 38.9536 22.5512 39.2483 22.2186L40.1241 21.2304C40.4231 20.893 40.3935 20.3727 40.0582 20.0726L39.7723 19.8167C39.4856 19.5599 39.4213 19.1355 39.5804 18.7825C39.6753 18.572 39.76 18.3571 39.8343 18.1387C39.9579 17.7752 40.2883 17.5147 40.6669 17.526L41.0734 17.5381ZM34.8869 19.1411C33.0677 20.1254 30.7912 19.4393 29.8122 17.6116C28.8324 15.7838 29.5153 13.4953 31.3345 12.5114C33.1527 11.5268 35.4292 12.2135 36.4089 14.0413C37.3878 15.8693 36.7054 18.1566 34.8869 19.1411Z" fill="url(#paint1_linear_1477_2319)"/>
<path d="M50.796 45.2477C50.796 46.3523 51.6914 47.2477 52.796 47.2477H55.8674C56.972 47.2477 57.8674 46.3523 57.8674 45.2477V42.2293C57.8674 41.1247 56.972 40.2293 55.8674 40.2293H52.796C51.6914 40.2293 50.796 41.1247 50.796 42.2293V45.2477Z" fill="url(#paint2_linear_1477_2319)"/>
<path d="M39.7276 45.2477C39.7276 46.3523 40.623 47.2477 41.7276 47.2477H44.7991C45.9036 47.2477 46.7991 46.3523 46.7991 45.2477V42.2293C46.7991 41.1247 45.9036 40.2293 44.7991 40.2293H41.7276C40.623 40.2293 39.7276 41.1247 39.7276 42.2293V45.2477Z" fill="url(#paint3_linear_1477_2319)"/>
<path fill-rule="evenodd" clip-rule="evenodd" d="M36.0301 55.5138C36.0301 56.8918 34.9288 58.0092 33.5705 58.0092C32.2122 58.0092 31.1109 56.8918 31.1109 55.5138C31.1109 54.1357 32.2122 53.0183 33.5705 53.0183C34.9288 53.0183 36.0301 54.1357 36.0301 55.5138ZM34.8003 55.5138C34.8003 56.2029 34.2497 56.7615 33.5705 56.7615C32.8913 56.7615 32.3407 56.2029 32.3407 55.5138C32.3407 54.8247 32.8913 54.2661 33.5705 54.2661C34.2497 54.2661 34.8003 54.8247 34.8003 55.5138Z" fill="url(#paint4_linear_1477_2319)"/>
<path fill-rule="evenodd" clip-rule="evenodd" d="M25.1661 55.5138C25.1661 56.8918 24.0648 58.0092 22.7065 58.0092C21.3482 58.0092 20.2468 56.8918 20.2468 55.5138C20.2468 54.1357 21.3482 53.0183 22.7065 53.0183C24.0648 53.0183 25.1661 54.1357 25.1661 55.5138ZM22.7065 56.7615C23.3856 56.7615 23.9363 56.2029 23.9363 55.5138C23.9363 54.8247 23.3856 54.2661 22.7065 54.2661C22.0273 54.2661 21.4767 54.8247 21.4767 55.5138C21.4767 56.2029 22.0273 56.7615 22.7065 56.7615Z" fill="url(#paint5_linear_1477_2319)"/>
<path fill-rule="evenodd" clip-rule="evenodd" d="M44.4345 58.0092C45.7928 58.0092 46.8941 56.8918 46.8941 55.5138C46.8941 54.1357 45.7928 53.0183 44.4345 53.0183C43.0762 53.0183 41.9749 54.1357 41.9749 55.5138C41.9749 56.8918 43.0762 58.0092 44.4345 58.0092ZM44.4345 56.7615C45.1137 56.7615 45.6643 56.2029 45.6643 55.5138C45.6643 54.8247 45.1137 54.2661 44.4345 54.2661C43.7553 54.2661 43.2047 54.8247 43.2047 55.5138C43.2047 56.2029 43.7553 56.7615 44.4345 56.7615Z" fill="url(#paint6_linear_1477_2319)"/>
<path fill-rule="evenodd" clip-rule="evenodd" d="M14.3021 55.5138C14.3021 56.8918 13.2008 58.0092 11.8425 58.0092C10.4841 58.0092 9.38284 56.8918 9.38284 55.5138C9.38284 54.1357 10.4841 53.0183 11.8425 53.0183C13.2008 53.0183 14.3021 54.1357 14.3021 55.5138ZM13.0723 55.5138C13.0723 56.2029 12.5216 56.7615 11.8425 56.7615C11.1633 56.7615 10.6127 56.2029 10.6127 55.5138C10.6127 54.8247 11.1633 54.2661 11.8425 54.2661C12.5216 54.2661 13.0723 54.8247 13.0723 55.5138Z" fill="url(#paint7_linear_1477_2319)"/>
<path fill-rule="evenodd" clip-rule="evenodd" d="M55.2985 58.0092C56.6568 58.0092 57.7581 56.8918 57.7581 55.5138C57.7581 54.1357 56.6568 53.0183 55.2985 53.0183C53.9402 53.0183 52.8389 54.1357 52.8389 55.5138C52.8389 56.8918 53.9402 58.0092 55.2985 58.0092ZM56.5283 55.5138C56.5283 56.2029 55.9777 56.7615 55.2985 56.7615C54.6193 56.7615 54.0687 56.2029 54.0687 55.5138C54.0687 54.8247 54.6193 54.2661 55.2985 54.2661C55.9777 54.2661 56.5283 54.8247 56.5283 55.5138Z" fill="url(#paint8_linear_1477_2319)"/>
<path fill-rule="evenodd" clip-rule="evenodd" d="M61.0957 38.0458V48.0275C64.4903 48.0318 66.4958 50.8221 66.5 54.2661V56.7615C66.4958 60.2055 64.4903 62.9958 61.0957 63H9.64909C6.25448 62.9958 3.5042 60.2055 3.5 56.7615V54.2661C3.5042 50.8221 6.25448 48.0318 9.64909 48.0275H36.4993V38.0458C36.4993 37.3568 37.05 36.7981 37.7292 36.7981H43.8783V26.8164C43.8783 26.1274 44.4289 25.5687 45.1081 25.5687H56.1764C56.8556 25.5687 57.4062 26.1274 57.4062 26.8164V36.7981H59.8659C60.545 36.7981 61.0957 37.3568 61.0957 38.0458ZM50.0273 48.0275H58.6361V39.2935H50.0273V48.0275ZM47.5677 39.2935H38.959V48.0275H47.5677V39.2935ZM29.881 55.5138C29.881 53.4466 31.533 51.7706 33.5705 51.7706C35.608 51.7706 37.2599 53.4466 37.2599 55.5138C37.2599 57.5809 35.608 59.2569 33.5705 59.2569C31.533 59.2569 29.881 57.5809 29.881 55.5138ZM22.7065 51.7706C20.669 51.7706 19.017 53.4466 19.017 55.5138C19.017 57.5809 20.669 59.2569 22.7065 59.2569C24.744 59.2569 26.3959 57.5809 26.3959 55.5138C26.3959 53.4466 24.744 51.7706 22.7065 51.7706ZM40.745 55.5138C40.745 53.4466 42.397 51.7706 44.4345 51.7706C46.472 51.7706 48.124 53.4466 48.124 55.5138C48.124 57.5809 46.472 59.2569 44.4345 59.2569C42.397 59.2569 40.745 57.5809 40.745 55.5138ZM11.8425 51.7706C9.80499 51.7706 8.15302 53.4466 8.15302 55.5138C8.15302 57.5809 9.80499 59.2569 11.8425 59.2569C13.88 59.2569 15.5319 57.5809 15.5319 55.5138C15.5319 53.4466 13.88 51.7706 11.8425 51.7706ZM51.6091 55.5138C51.6091 53.4466 53.261 51.7706 55.2985 51.7706C57.336 51.7706 58.988 53.4466 58.988 55.5138C58.988 57.5809 57.336 59.2569 55.2985 59.2569C53.261 59.2569 51.6091 57.5809 51.6091 55.5138ZM56.1764 38.0458V26.8164H45.1081V38.0458H56.1764Z" fill="url(#paint9_linear_1477_2319)"/>
<path d="M53.4078 37.266C54.5124 37.266 55.4078 36.3706 55.4078 35.266V29.5963C55.4078 28.4917 54.5124 27.5963 53.4078 27.5963H47.8767C46.7721 27.5963 45.8767 28.4917 45.8767 29.5963V35.266C45.8767 36.3706 46.7721 37.266 47.8767 37.266H53.4078Z" fill="url(#paint10_linear_1477_2319)"/>
<defs>
<linearGradient id="paint0_linear_1477_2319" x1="-12.8234" y1="50.37" x2="-16.7024" y2="24.9459" gradientUnits="userSpaceOnUse">
<stop stop-color="#0B3C5D"/>
<stop offset="1" stop-color="#1C639B"/>
</linearGradient>
<linearGradient id="paint1_linear_1477_2319" x1="8.68333" y1="27.4548" x2="5.97055" y2="9.67449" gradientUnits="userSpaceOnUse">
<stop stop-color="#0B3C5D"/>
<stop offset="1" stop-color="#1C639B"/>
</linearGradient>
<linearGradient id="paint2_linear_1477_2319" x1="-53.6136" y1="68.8335" x2="-57.0249" y2="30.655" gradientUnits="userSpaceOnUse">
<stop stop-color="#0B3C5D"/>
<stop offset="1" stop-color="#1C639B"/>
</linearGradient>
<linearGradient id="paint3_linear_1477_2319" x1="-53.6136" y1="68.8335" x2="-57.0249" y2="30.655" gradientUnits="userSpaceOnUse">
<stop stop-color="#0B3C5D"/>
<stop offset="1" stop-color="#1C639B"/>
</linearGradient>
<linearGradient id="paint4_linear_1477_2319" x1="-53.6136" y1="68.8335" x2="-57.0249" y2="30.655" gradientUnits="userSpaceOnUse">
<stop stop-color="#0B3C5D"/>
<stop offset="1" stop-color="#1C639B"/>
</linearGradient>
<linearGradient id="paint5_linear_1477_2319" x1="-53.6136" y1="68.8335" x2="-57.0249" y2="30.655" gradientUnits="userSpaceOnUse">
<stop stop-color="#0B3C5D"/>
<stop offset="1" stop-color="#1C639B"/>
</linearGradient>
<linearGradient id="paint6_linear_1477_2319" x1="-53.6136" y1="68.8335" x2="-57.0249" y2="30.655" gradientUnits="userSpaceOnUse">
<stop stop-color="#0B3C5D"/>
<stop offset="1" stop-color="#1C639B"/>
</linearGradient>
<linearGradient id="paint7_linear_1477_2319" x1="-53.6136" y1="68.8335" x2="-57.0249" y2="30.655" gradientUnits="userSpaceOnUse">
<stop stop-color="#0B3C5D"/>
<stop offset="1" stop-color="#1C639B"/>
</linearGradient>
<linearGradient id="paint8_linear_1477_2319" x1="-53.6136" y1="68.8335" x2="-57.0249" y2="30.655" gradientUnits="userSpaceOnUse">
<stop stop-color="#0B3C5D"/>
<stop offset="1" stop-color="#1C639B"/>
</linearGradient>
<linearGradient id="paint9_linear_1477_2319" x1="-53.6136" y1="68.8335" x2="-57.0249" y2="30.655" gradientUnits="userSpaceOnUse">
<stop stop-color="#0B3C5D"/>
<stop offset="1" stop-color="#1C639B"/>
</linearGradient>
<linearGradient id="paint10_linear_1477_2319" x1="-53.6136" y1="68.8335" x2="-57.0249" y2="30.655" gradientUnits="userSpaceOnUse">
<stop stop-color="#0B3C5D"/>
<stop offset="1" stop-color="#1C639B"/>
</linearGradient>
</defs>
</svg>
