<svg width="60" height="60" viewBox="0 0 60 60" fill="none" xmlns="http://www.w3.org/2000/svg">
<g clip-path="url(#clip0_66_2)">
<path d="M51.7532 42.4974C51.2752 42.4006 50.81 42.7176 50.715 43.2064C49.7024 48.4107 46.1073 52.8573 41.3322 54.8113C40.8795 54.9966 40.6596 55.5216 40.8409 55.9842C41.0222 56.4467 41.5364 56.6713 41.9891 56.4861C47.4865 54.2365 51.3408 49.2458 52.4472 43.558C52.5424 43.0693 52.2315 42.5945 51.7532 42.4974Z" fill="#1C75BC"/>
<path d="M50.2535 28.5467C47.8912 29.91 45.663 29.9554 43.6303 28.6819C42.0145 27.6696 41.1089 26.1869 41.0728 26.127C40.7752 25.6294 40.2671 25.3237 39.7011 25.2958C38.0582 20.5971 35.3161 17.3334 33.2505 15.3902C31.9331 14.151 30.2232 13.4686 28.4356 13.4686C27.577 13.4686 20.9664 13.4686 20.1306 13.4686C18.222 13.4686 16.4054 14.2012 15.0155 15.5312C12.1538 18.2699 7.34847 24.2529 7.32033 33.5507C7.31433 35.5002 8.82963 37.1289 10.698 37.1815C12.6498 37.2398 14.2713 35.6399 14.2713 33.6328C14.2713 30.1434 15.2308 26.8586 17.0668 24.0015V57.3124C17.0668 59.0381 18.4413 60.4421 20.1307 60.4421H22.1025C22.9549 60.4421 23.7273 60.0846 24.2833 59.5087C24.8392 60.0846 25.6115 60.4421 26.464 60.4421H28.4358C30.1253 60.4421 31.4997 59.0381 31.4997 57.3124V52.5569C33.1334 54.2333 35.0784 55.556 37.2276 56.4354C37.6807 56.6207 38.1946 56.3957 38.3758 55.9335C38.5573 55.4711 38.3372 54.946 37.8845 54.7607C32.1989 52.4339 28.1994 46.6656 28.1994 40.0009V30.1684C31.7747 32.1911 35.2363 31.6977 38.0643 29.0021C38.713 28.3933 39.2417 27.749 39.599 27.1766C39.6046 27.1679 39.6119 27.1569 39.6167 27.1493C39.8703 27.5494 40.9298 29.1062 42.7075 30.2199C44.495 31.34 47.3851 32.2333 51.0341 30.1683V39.1222C51.0341 39.6205 51.4295 40.0242 51.9171 40.0242C52.4048 40.0242 52.8002 39.6205 52.8002 39.1222V30.0647C52.7998 28.7315 51.392 27.8902 50.2535 28.5467ZM31.4995 29.5226V24.235C32.5169 25.8667 33.2461 27.6254 33.6777 29.4916C32.9698 29.6501 32.245 29.6599 31.4995 29.5226ZM35.3376 28.8291C34.6283 25.934 33.2683 23.2808 31.2853 20.9286C30.7514 20.2953 29.7329 20.6845 29.7329 21.5172V28.9399C29.3525 28.763 28.8755 28.4923 28.8624 28.486C27.7403 27.9466 26.4325 28.7814 26.4325 30.0649V30.0959V40.0011C26.4325 43.7773 27.5756 47.3886 29.7329 50.4364V57.3126H29.7334C29.7334 58.0435 29.1513 58.6382 28.4357 58.6382H26.4639C25.7484 58.6382 25.1662 58.0437 25.1662 57.3126V38.7748C25.1662 38.2765 24.7708 37.8728 24.2831 37.8728C23.7955 37.8728 23.4001 38.2765 23.4001 38.7748V57.3125C23.4001 58.0434 22.818 58.6381 22.1024 58.6381H20.1306C19.4151 58.6381 18.8329 58.0436 18.8329 57.3125V21.3399C18.8329 20.5102 17.8237 20.1223 17.2875 20.7432C14.1586 24.3651 12.5049 28.8224 12.5049 33.6329C12.5049 34.6041 11.7285 35.4022 10.7465 35.3782C9.82818 35.3524 9.08336 34.5352 9.08642 33.5564C9.11256 24.936 13.5689 19.3879 16.2231 16.848C17.2845 15.8322 18.672 15.2727 20.1305 15.2727H20.4214C28.1444 15.2727 20.4214 15.2727 28.1444 15.2727H28.4353C29.7786 15.2727 31.0636 15.7858 32.0539 16.7172C34.0102 18.5576 36.6207 21.6723 38.1311 26.1718C37.4585 27.2084 36.4329 28.1976 35.3376 28.8291Z" fill="#1C75BC"/>
<path d="M24.2669 0.6C20.9407 0.6 18.2349 3.36396 18.2349 6.76148C18.2349 10.159 20.9409 12.923 24.2669 12.923C27.593 12.923 30.2989 10.159 30.2989 6.76148C30.2989 3.36396 27.593 0.6 24.2669 0.6ZM24.2669 11.1188C21.9147 11.1188 20.0011 9.16416 20.0011 6.76148C20.0011 4.3588 21.9148 2.40411 24.2669 2.40411C26.6191 2.40411 28.5327 4.35892 28.5327 6.76148C28.5327 9.16404 26.6191 11.1188 24.2669 11.1188Z" fill="#1C75BC"/>
<path d="M35.3484 40.9428V40.1755C35.3484 39.8016 35.6451 39.4985 36.0112 39.4985H37.4693V38.0091C37.4693 37.6352 37.766 37.3321 38.1321 37.3321H38.8832V30.0653C37.1899 32.2343 35.182 33.8232 33.7788 34.4051C32.2029 35.0586 31.0196 35.1669 31.0092 35.1677C30.6649 35.196 30.3996 35.4897 30.3996 35.8426C30.3996 39.6207 30.3754 39.9433 30.4745 40.9428H35.3484V40.9428Z" fill="#1C75BC"/>
<path d="M40.209 37.3319H40.9601C41.3262 37.3319 41.6229 37.635 41.6229 38.0089V39.4984H43.0811C43.4471 39.4984 43.7439 39.8015 43.7439 40.1754V40.9427H48.6177C48.7172 39.939 48.6927 39.6084 48.6927 35.8425C48.6927 35.4896 48.4273 35.1959 48.083 35.1676C48.0371 35.1639 43.5157 34.3028 40.209 30.0653V37.3319Z" fill="#1C75BC"/>
<path d="M40.2971 43.0642C40.2971 42.6903 40.5938 42.3872 40.9599 42.3872H42.418V40.8526H40.9599C40.5938 40.8526 40.2971 40.5495 40.2971 40.1756V38.6862H38.7948V40.1756C38.7948 40.5495 38.498 40.8526 38.132 40.8526H36.6738V42.3872H38.132C38.498 42.3872 38.7948 42.6903 38.7948 43.0642V44.5536H40.2971V43.0642Z" fill="#1C75BC"/>
<path d="M38.8837 45.9074H38.1326C37.7665 45.9074 37.4698 45.6043 37.4698 45.2304V43.741H36.0116C35.6456 43.741 35.3489 43.4379 35.3489 43.064V42.2967H30.6714C31.0355 44.1972 31.7618 46.2475 32.8243 47.8833C34.3286 50.1992 36.4173 52.0206 38.8837 53.174V45.9074Z" fill="#1C75BC"/>
<path d="M43.7439 42.2967V43.064C43.7439 43.4379 43.4471 43.741 43.0811 43.741H41.6229V45.2304C41.6229 45.6043 41.3262 45.9074 40.9601 45.9074H40.209V53.174C42.6754 52.0206 44.7641 50.1991 46.2684 47.8833C47.3309 46.2475 48.0572 44.1972 48.4213 42.2967H43.7439Z" fill="#1C75BC"/>
</g>
<defs>
<clipPath id="clip0_66_2">
<rect width="60" height="60" fill="white"/>
</clipPath>
</defs>
</svg>
