<svg width="60" height="60" viewBox="0 0 60 60" fill="none" xmlns="http://www.w3.org/2000/svg">
<g clip-path="url(#clip0_1310_8833)">
<path fill-rule="evenodd" clip-rule="evenodd" d="M36.1991 20.6432V24.5012C37.5936 24.5512 38.7128 25.7004 38.7128 27.1069V36.1033C38.7128 37.5415 37.5426 38.7115 36.1044 38.7115H23.8958C22.4576 38.7115 21.2875 37.5415 21.2876 36.1033V27.1069C21.2876 25.7006 22.4066 24.5514 23.8009 24.5012V20.6432C23.8009 17.2251 26.5818 14.4443 29.9999 14.4443C33.4182 14.4443 36.1991 17.2251 36.1991 20.6432ZM30 16.788C27.8741 16.788 26.1445 18.5175 26.1445 20.6432L26.1444 24.4987H33.8552V20.6432C33.8552 18.5175 32.1258 16.788 30 16.788ZM28.3616 30.8931C28.3616 29.9907 29.0977 29.2546 30.0001 29.2546C30.9026 29.2546 31.6387 29.9907 31.6387 30.8931C31.6387 31.3368 31.4602 31.7397 31.172 32.0352V33.1822C31.172 33.8293 30.6474 34.354 30.0001 34.354C29.3529 34.354 28.8283 33.8293 28.8283 33.1822V32.0352C28.5401 31.7398 28.3616 31.3368 28.3616 30.8931Z" fill="#1C75BC"/>
<path d="M30.5342 0.148754C37.9362 4.57233 46.1817 8.11208 54.3789 10.3854C54.8622 10.5194 55.1997 10.9859 55.1998 11.5198V16.828C55.1998 17.4753 54.7092 18 54.1041 18C53.4989 18 53.0083 17.4753 53.0083 16.828V12.4224C45.1007 10.1507 37.176 6.73747 29.9998 2.51183C22.6369 6.85372 15.0948 10.1025 6.99098 12.4228V24.4564C6.99098 36.9157 12.6677 45.161 17.4298 49.884C20.4492 52.8784 23.3833 54.7689 25.313 55.8274C27.7585 57.169 29.4556 57.6559 29.9997 57.6559C30.5438 57.6559 32.2411 57.1689 34.6864 55.8274C36.6163 54.7689 39.5503 52.8784 42.5696 49.884C47.3317 45.161 53.0082 36.9157 53.0083 24.4564V23.972C53.0083 23.3247 53.4989 22.8 54.1041 22.8C54.7092 22.8 55.1998 23.3247 55.1998 23.972V24.4566C55.1998 37.7616 49.1416 46.5626 44.0595 51.603C38.6079 57.0097 32.2858 60 29.9998 60C27.7139 60 21.3917 57.0097 15.9401 51.603C10.8578 46.5626 4.7998 37.7614 4.7998 24.4566V11.5199C4.7998 10.986 5.13726 10.5196 5.62044 10.3855C14.0506 8.04751 21.8504 4.69912 29.4653 0.148754C29.7975 -0.0496433 30.2022 -0.0495262 30.5342 0.148754Z" fill="#1C75BC"/>
<path d="M20.9086 41.9887L20.8867 41.9635C20.4812 41.4883 19.7925 41.4518 19.3448 41.8828C18.8951 42.3157 18.8586 43.0567 19.2633 43.5377L19.2852 43.5629C19.5012 43.8158 19.7972 43.9445 20.0946 43.9445C20.3557 43.9445 20.6177 43.8451 20.8271 43.6436C21.2769 43.2108 21.3134 42.4697 20.9086 41.9887Z" fill="#1C75BC"/>
<path d="M26.8181 47.3078C25.4983 46.417 24.2274 45.3902 23.0411 44.2558C22.59 43.8243 21.8973 43.8659 21.494 44.3484C21.0908 44.831 21.1296 45.5717 21.5808 46.0031C22.8576 47.2239 24.2262 48.3297 25.6488 49.2899C25.8304 49.4124 26.0325 49.4709 26.2325 49.4709C26.596 49.4709 26.9517 49.2775 27.16 48.9243C27.483 48.3769 27.33 47.6532 26.8181 47.3078Z" fill="#1C75BC"/>
<path fill-rule="evenodd" clip-rule="evenodd" d="M50.5749 13.5197C43.6356 11.3619 36.8864 8.43095 30.5152 4.80835C30.1933 4.62519 29.8073 4.62554 29.4856 4.80906C23.1046 8.44677 16.3555 11.3782 9.42556 13.5219C8.95695 13.6669 8.63429 14.1258 8.63429 14.6476V24.4564C8.63429 29.0357 9.44561 33.3815 11.0456 37.373C12.6375 41.3445 15.0119 44.969 18.1025 48.1463C20.313 50.4186 22.8652 52.4209 25.4835 53.9369C25.9527 54.2085 28.3656 55.5778 29.8006 55.8612C29.8663 55.8741 29.9328 55.8807 29.9994 55.8807C30.066 55.8807 30.1326 55.8741 30.1983 55.8612C31.6333 55.5778 34.0462 54.2085 34.5153 53.9369C37.1334 52.4209 39.6857 50.4186 41.8964 48.1463C44.9869 44.9693 47.3612 41.3447 48.9533 37.373C50.5533 33.3816 51.3646 29.0358 51.3646 24.4564V14.645C51.3647 14.1239 51.0428 13.6653 50.5749 13.5197ZM49.1734 24.4564C49.1734 33.0551 46.2143 40.4569 40.378 46.4564C38.3075 48.5847 35.9195 50.4586 33.4723 51.8757C32.3584 52.5206 30.8546 53.2724 29.9994 53.5086C29.1443 53.2724 27.6405 52.5206 26.5267 51.8757C24.0793 50.4585 21.6914 48.5846 19.621 46.4564C13.7848 40.457 10.8256 33.055 10.8256 24.4564V15.525C17.4382 13.4193 23.8826 10.6112 30.0014 7.16885C36.1104 10.5967 42.5541 13.4037 49.1733 15.5212L49.1734 24.4564Z" fill="#1C75BC"/>
</g>
<defs>
<clipPath id="clip0_1310_8833">
<rect width="60" height="60" fill="white"/>
</clipPath>
</defs>
</svg>
