<svg width="60" height="60" viewBox="0 0 60 60" fill="none" xmlns="http://www.w3.org/2000/svg">
<g clip-path="url(#clip0_66_72)">
<path d="M24.2576 1.87524L24.2576 5.47512C24.2576 5.53359 24.2197 5.58492 24.1675 5.59746C21.5933 6.21059 19.1406 7.22731 16.8775 8.61938C16.8273 8.65032 16.7647 8.64422 16.7255 8.60485L14.173 6.05239C13.8187 5.69825 13.348 5.50325 12.8473 5.50325C12.3464 5.50325 11.8755 5.69825 11.5215 6.05239L6.05203 11.522C5.69777 11.876 5.50277 12.3469 5.50277 12.8477C5.50277 13.3485 5.69777 13.8192 6.05191 14.1735L8.60437 16.7259C8.64375 16.7653 8.64984 16.828 8.6189 16.8779C7.22683 19.1411 6.21011 21.5938 5.59699 24.1679C5.58457 24.2201 5.53312 24.258 5.47476 24.258L1.87488 24.258C0.841053 24.2579 -1.52559e-06 25.099 -1.4804e-06 26.1328L-1.14228e-06 33.868C-1.0971e-06 34.9017 0.841053 35.7429 1.87488 35.7429L5.47476 35.7429C5.53324 35.7429 5.58457 35.7807 5.59699 35.833C6.21023 38.4072 7.22683 40.8599 8.6189 43.123C8.64996 43.173 8.64387 43.2359 8.60437 43.275L6.05191 45.8275C5.69777 46.1817 5.50277 46.6525 5.50277 47.1532C5.50277 47.6541 5.69777 48.1249 6.05191 48.4789L11.5216 53.9482C11.8757 54.3025 12.3465 54.4975 12.8474 54.4975C13.3481 54.4975 13.8189 54.3025 14.1731 53.9483L16.7256 51.3959C16.7648 51.3565 16.8274 51.3504 16.8776 51.3813C19.1407 52.7734 21.5934 53.7901 24.1676 54.4032C24.2197 54.4157 24.2577 54.4671 24.2577 54.5256L24.2577 58.1255C24.2576 59.1593 25.0986 60.0004 26.1325 60.0004L33.8677 60.0004C34.9014 60.0004 35.7425 59.1593 35.7425 58.1255L35.7425 54.5256C35.7425 54.4671 35.7804 54.4158 35.8327 54.4032C38.4068 53.7901 40.8595 52.7734 43.1227 51.3813C43.1728 51.3504 43.2354 51.3565 43.2746 51.3959L45.8272 53.9483C46.1814 54.3025 46.6522 54.4975 47.153 54.4975C47.6538 54.4975 48.1247 54.3025 48.4787 53.9483L53.9482 48.4787C54.3023 48.1247 54.4975 47.6538 54.4975 47.153C54.4975 46.6522 54.3025 46.1815 53.9483 45.8272L51.3959 43.2748C51.3562 43.2356 51.3502 43.1728 51.3813 43.1228C52.7733 40.8598 53.7901 38.407 54.4034 35.8325C54.4158 35.7805 54.4672 35.7427 54.5256 35.7427L58.1255 35.7427C59.1592 35.7427 60.0003 34.9016 60.0003 33.8678L60.0003 26.1326C60.0003 25.0989 59.1593 24.2577 58.1255 24.2577L54.5256 24.2577C54.4672 24.2577 54.4159 24.2198 54.4034 24.1676C53.7901 21.5933 52.7733 19.1407 51.3813 16.8776C51.3503 16.8277 51.3564 16.7648 51.3959 16.7256L53.9483 14.1731C54.3023 13.8189 54.4975 13.3481 54.4975 12.8474C54.4975 12.3465 54.3025 11.8757 53.9483 11.5218L52.6581 10.2315C52.3157 9.88899 51.7603 9.88899 51.4179 10.2314C51.0755 10.5739 51.0753 11.1293 51.4178 11.4716L52.7081 12.7621C52.7373 12.7912 52.7435 12.8246 52.7435 12.8475C52.7435 12.8704 52.7373 12.9036 52.708 12.9329L50.1555 15.4854C49.5395 16.1016 49.4292 17.0521 49.8873 17.7967C51.1817 19.9009 52.1271 22.1813 52.6972 24.574C52.8987 25.4204 53.6505 26.0118 54.5256 26.0118L58.1255 26.0118C58.1921 26.0118 58.2464 26.066 58.2464 26.1327L58.2464 33.8679C58.2464 33.9346 58.1921 33.9888 58.1255 33.9888L54.5256 33.9888C53.6505 33.9888 52.8987 34.58 52.6972 35.4264C52.1271 37.8193 51.1818 40.0997 49.8873 42.2039C49.4294 42.9488 49.5395 43.899 50.1555 44.5152L52.708 47.0677C52.7373 47.0968 52.7435 47.1302 52.7435 47.1531C52.7435 47.1759 52.7373 47.2092 52.708 47.2385L47.2384 52.7082C47.2092 52.7374 47.1758 52.7436 47.153 52.7436C47.1301 52.7436 47.0968 52.7374 47.0675 52.7081L44.5151 50.1557C43.899 49.5397 42.9486 49.4295 42.2038 49.8874C40.0994 51.182 37.8191 52.1272 35.4262 52.6972C34.5799 52.8989 33.9887 53.6508 33.9887 54.5257L33.9887 58.1255C33.9887 58.1922 33.9344 58.2464 33.8678 58.2464L26.1326 58.2464C26.0659 58.2464 26.0116 58.1922 26.0116 58.1255L26.0116 54.5256C26.0116 53.6507 25.4205 52.8988 24.5741 52.6971C22.1812 52.1271 19.9009 51.1819 17.7966 49.8873C17.0517 49.4293 16.1013 49.5396 15.4853 50.1555L12.9328 52.708C12.9036 52.7373 12.8702 52.7435 12.8474 52.7435C12.8245 52.7435 12.7912 52.7373 12.762 52.708L7.29223 47.2384C7.26305 47.2092 7.25683 47.1758 7.25683 47.153C7.25683 47.1301 7.26305 47.0968 7.29234 47.0675L9.8448 44.5151C10.4606 43.8989 10.571 42.9486 10.113 42.2038C8.81847 40.0995 7.87324 37.8191 7.30324 35.4263C7.10156 34.5799 6.34969 33.9887 5.47476 33.9887L1.87488 33.9887C1.8082 33.9887 1.75394 33.9345 1.75394 33.8678L1.75394 26.1326C1.75394 26.0659 1.8082 26.0116 1.87488 26.0116L5.47476 26.0116C6.34969 26.0116 7.10156 25.4206 7.30324 24.5741C7.87324 22.1813 8.81847 19.9009 10.113 17.7966C10.5709 17.0517 10.4609 16.1014 9.8448 15.4853L7.29234 12.9328C7.26304 12.9036 7.25683 12.8702 7.25683 12.8474C7.25683 12.8245 7.26304 12.7913 7.29234 12.762L12.7619 7.29223C12.7911 7.26305 12.8245 7.25684 12.8474 7.25684C12.8702 7.25684 12.9035 7.26305 12.9328 7.29235L15.4853 9.84481C16.1013 10.4607 17.0517 10.571 17.7966 10.1131C19.9009 8.81848 22.1812 7.87324 24.5741 7.30324C25.4204 7.10157 26.0116 6.34969 26.0116 5.47477L26.0116 1.87488C26.0116 1.80821 26.0659 1.75395 26.1326 1.75395L33.8678 1.75395C33.9344 1.75395 33.9887 1.80821 33.9887 1.87488L33.9887 5.47477C33.9887 6.34969 34.5798 7.10156 35.4262 7.30324C37.8191 7.87324 40.0994 8.81848 42.2038 10.1131C42.9486 10.571 43.899 10.4607 44.5151 9.84481L47.0675 7.29234C47.0967 7.26305 47.1301 7.25684 47.153 7.25684C47.1758 7.25684 47.2091 7.26305 47.2384 7.29234L48.5434 8.59735C48.8859 8.93977 49.4412 8.93977 49.7837 8.59735C50.1259 8.25492 50.1261 7.69969 49.7837 7.35703L48.4787 6.05215C48.1247 5.69789 47.6538 5.50289 47.153 5.50289C46.6522 5.50289 46.1815 5.69789 45.8272 6.05203L43.2746 8.60449C43.2354 8.64387 43.1728 8.64996 43.1227 8.61902C40.8595 7.22695 38.4068 6.21024 35.8327 5.59711C35.7805 5.58469 35.7425 5.53324 35.7425 5.47477L35.7425 1.87488C35.7425 0.841174 34.9015 2.2891e-06 33.8677 2.33429e-06L26.1325 2.67241e-06C25.0986 0.00035367 24.2576 0.841407 24.2576 1.87524Z" fill="#1C75BC"/>
<path fill-rule="evenodd" clip-rule="evenodd" d="M30 48.75C40.3553 48.75 48.75 40.3553 48.75 30C48.75 19.6447 40.3553 11.25 30 11.25C19.6447 11.25 11.25 19.6447 11.25 30C11.25 40.3553 19.6447 48.75 30 48.75ZM28.6413 37.9391L41.2529 25.3285C42.1866 24.3937 42.1866 22.8791 41.2525 21.9449C40.3184 21.0111 38.8035 21.0104 37.8691 21.9449L26.95 32.864L22.1308 28.0447C21.1968 27.1106 19.682 27.1106 18.7476 28.0451C17.8133 28.9793 17.8133 30.4944 18.7476 31.4285L25.2577 37.9391C26.1925 38.8732 27.7074 38.8732 28.6413 37.9391Z" fill="#1C75BC"/>
</g>
<defs>
<clipPath id="clip0_66_72">
<rect width="60" height="60" fill="white"/>
</clipPath>
</defs>
</svg>
