<svg width="61" height="61" viewBox="0 0 61 61" fill="none" xmlns="http://www.w3.org/2000/svg">
<path d="M26.5498 54.9718C28.1515 54.9718 30.1509 53.6762 31.8866 50.3228C32.2007 49.716 32.4947 49.0604 32.7654 48.3608C30.8286 48.0733 28.7398 47.9143 26.5498 47.9143C24.3598 47.9143 22.271 48.0733 20.3342 48.3608C20.605 49.0604 20.8989 49.716 21.213 50.3228C22.9487 53.6762 24.9482 54.9718 26.5498 54.9718Z" fill="#1C75BC"/>
<path d="M26.5498 45.4718C28.9974 45.4718 31.3495 45.6586 33.5408 46.0028C34.1686 43.7303 34.5694 41.1371 34.6584 38.3468H18.4412C18.5302 41.1371 18.931 43.7303 19.5588 46.0028C21.7501 45.6586 24.1022 45.4718 26.5498 45.4718Z" fill="#1C75BC"/>
<path d="M32.3435 53.9624C33.4173 52.5778 34.3513 50.8191 35.0947 48.7828C36.43 49.0707 37.6707 49.4221 38.7961 49.8245C36.9886 51.653 34.7915 53.0796 32.3435 53.9624Z" fill="#1C75BC"/>
<path d="M35.8342 46.4325C37.5252 46.8031 39.0927 47.2718 40.502 47.8224C42.4607 45.1462 43.7001 41.8878 43.9279 38.3468H36.982C36.8948 41.2491 36.49 43.9869 35.8342 46.4325Z" fill="#1C75BC"/>
<path d="M16.1176 38.3468C16.2048 41.2491 16.6096 43.9869 17.2654 46.4325C15.5744 46.8031 14.0069 47.2718 12.5976 47.8224C10.6389 45.1462 9.39956 41.8878 9.17176 38.3468H16.1176Z" fill="#1C75BC"/>
<path d="M20.7561 53.9624C18.3081 53.0796 16.1111 51.653 14.3035 49.8245C15.429 49.4221 16.6696 49.0707 18.0049 48.7828C18.7483 50.8191 19.6824 52.5778 20.7561 53.9624Z" fill="#1C75BC"/>
<path d="M18.4412 35.9718H34.6584C34.5694 33.1815 34.1686 30.5883 33.5408 28.3158C31.3495 28.6599 28.9974 28.8468 26.5498 28.8468C24.1022 28.8468 21.7501 28.6599 19.5588 28.3158C18.931 30.5883 18.5302 33.1815 18.4412 35.9718Z" fill="#1C75BC"/>
<path d="M20.3342 25.9577C20.605 25.2582 20.8989 24.6025 21.213 23.9958C22.9487 20.6423 24.9482 19.3468 26.5498 19.3468C28.1515 19.3468 30.1509 20.6423 31.8866 23.9958C32.2007 24.6025 32.4947 25.2582 32.7654 25.9577C30.8286 26.2452 28.7398 26.4043 26.5498 26.4043C24.3598 26.4043 22.271 26.2452 20.3342 25.9577Z" fill="#1C75BC"/>
<path d="M35.8342 27.886C36.49 30.3317 36.8948 33.0695 36.982 35.9718H43.9279C43.7001 32.4308 42.4607 29.1724 40.502 26.4962C39.0927 27.0467 37.5252 27.5154 35.8342 27.886Z" fill="#1C75BC"/>
<path d="M38.7961 24.4941C37.6707 24.8964 36.43 25.2478 35.0947 25.5358C34.3513 23.4995 33.4173 21.7408 32.3435 20.3561C34.7915 21.239 36.9886 22.6656 38.7961 24.4941Z" fill="#1C75BC"/>
<path d="M18.0049 25.5358C16.6696 25.2478 15.429 24.8964 14.3035 24.4941C16.1111 22.6656 18.3081 21.239 20.7561 20.3561C19.6824 21.7408 18.7483 23.4995 18.0049 25.5358Z" fill="#1C75BC"/>
<path d="M12.5976 26.4962C14.0069 27.0467 15.5744 27.5154 17.2654 27.886C16.6096 30.3317 16.2048 33.0695 16.1176 35.9718H9.17176C9.39956 32.4308 10.6389 29.1724 12.5976 26.4962Z" fill="#1C75BC"/>
<path fill-rule="evenodd" clip-rule="evenodd" d="M57.3847 3.11081C57.4332 3.19284 58.5773 5.14475 59.4215 7.87082C60.5621 11.5498 60.5924 14.8852 59.5089 17.5165C58.4264 20.1469 56.0758 22.4497 52.7118 24.1745C51.1005 25.0007 49.6293 25.509 48.7648 25.7708C49.3288 27.0944 49.7777 28.4602 50.1084 29.8551C50.2335 30.383 49.8248 30.878 49.2822 30.878C48.8736 30.878 48.5227 30.5911 48.4272 30.1938C47.7444 27.3539 46.5338 24.645 44.8244 22.1955C43.3518 20.0858 41.5817 18.2749 39.5863 16.8049C39.1191 17.2206 38.2766 17.9365 37.1457 18.7645C36.9656 18.8893 36.732 18.8972 36.5425 18.7882L36.4708 18.7472L36.4106 18.7131C35.8609 18.4027 35.801 17.5869 36.3098 17.2102C36.7574 16.8789 37.1544 16.5687 37.4934 16.2944L29.6924 14.7332L28.1352 15.9053C27.8814 16.0963 27.5713 16.1903 27.2566 16.1824C27.0908 16.1782 26.9246 16.1761 26.7579 16.1761C26.1965 16.1761 25.9175 15.3954 26.3699 15.0549L27.4055 14.2755L20.3056 12.8546L13.6755 17.8449C14.1008 18.2543 14.5453 18.6507 15.0082 19.0272C15.3435 19.3 15.3327 19.8353 14.9865 20.0934C14.5926 20.387 14.0598 20.4231 13.6685 20.1259C12.5065 19.2434 11.5787 18.1683 10.0927 16.4465L10.0905 16.4439C9.9433 16.2734 9.79064 16.0965 9.63173 15.9128C7.44937 13.0824 6.13831 10.4533 5.79236 9.72458C5.52808 9.37082 5.57838 8.82077 5.89401 8.51792C5.99245 8.42343 8.35171 6.1749 11.8797 4.12778C16.6132 1.3812 21.1876 0.346651 25.1097 1.13474C31.6686 2.45381 37.143 9.21236 39.964 14.9347C41.6342 16.0849 43.1664 17.4513 44.5284 19.0132C43.8889 16.0545 44.0184 13.3764 44.9197 11.1858C46.0025 8.55527 48.3528 6.25254 51.7175 4.52768C54.2097 3.24961 56.3703 2.73178 56.4609 2.71054C56.8108 2.62815 57.1971 2.79331 57.3847 3.11081ZM22.6214 2.63364C23.3407 2.64389 24.0626 2.7153 24.7809 2.85996C30.4327 3.99607 35.1741 9.76117 37.8272 14.5703L30.0298 13.0095L22.6214 2.63364ZM48.7212 8.71274L51.154 14.7662L55.1531 4.94882C54.7874 5.0797 54.2092 6.10277 53.5966 7.18662C52.9356 8.35617 52.2347 9.59649 51.7175 9.86296C51.1695 10.1452 50.7371 9.66112 50.3107 9.18364C49.8268 8.64185 49.3505 8.10852 48.7212 8.71274ZM56.2921 8.25302C56.6022 7.08904 56.8948 5.99116 56.7313 5.63034L52.8762 15.0932L58.5773 12.6781C58.5415 11.8552 57.8593 11.8858 57.1716 11.9166C56.5632 11.9439 55.9505 11.9713 55.7772 11.4082C55.6025 10.8409 55.9575 9.50853 56.2921 8.25302ZM47.4522 10.164C47.0753 10.6888 46.7489 11.2572 46.4964 11.8702C45.3366 14.6882 45.9272 17.9892 46.6273 20.2616C46.9761 21.3965 47.3873 22.3955 47.7365 23.1561L50.2217 17.0543L47.4522 10.164ZM49.3611 23.7226C50.1065 23.4527 51.0217 23.0785 51.9807 22.5841C54.0557 21.5158 56.7726 19.65 57.9321 16.832C58.2278 16.1142 58.4093 15.3657 58.5045 14.6106L51.94 17.3919L49.3611 23.7226ZM8.091 10.4094C8.94376 11.9446 10.4289 14.3421 12.455 16.5844L18.0184 12.3968L8.091 10.4094ZM18.3619 10.6745L14.2083 4.85727C11.7046 6.12363 9.62816 7.65476 8.37024 8.67465L18.3619 10.6745ZM15.8029 4.11753L20.8385 11.1704L27.5535 12.514L20.5874 2.75815C18.9286 2.98081 17.3105 3.48142 15.8029 4.11753Z" fill="#1C75BC"/>
<path d="M49.9505 35.2047C49.4707 35.2047 49.0863 35.5993 49.0794 36.079C49.0627 37.2436 48.9611 38.415 48.7729 39.5854C46.7311 52.2779 35.014 60.8996 22.6506 58.8023C16.6621 57.7868 11.4175 54.4382 7.88236 49.3724C5.01104 45.2586 3.54691 40.4121 3.62791 35.443C4.86041 35.1673 5.78334 34.0404 5.78334 32.6923C5.78334 31.1374 4.55581 29.877 3.04157 29.877C1.52734 29.877 0.299805 31.1374 0.299805 32.6923C0.299805 33.8364 0.964499 34.8211 1.91901 35.2615C1.79831 40.6597 3.37349 45.9296 6.49034 50.3967C10.2919 55.8434 15.9323 59.4447 22.3717 60.5371C23.7184 60.7652 25.0666 60.878 26.4055 60.878C31.4664 60.878 36.3896 59.2645 40.5849 56.1777C45.8908 52.2743 49.3985 46.4837 50.4617 39.8718C50.6673 38.5935 50.7767 37.3141 50.7919 36.0424C50.7975 35.577 50.4159 35.2047 49.9505 35.2047Z" fill="#1C75BC"/>
</svg>
