<svg width="70" height="70" viewBox="0 0 70 70" fill="none" xmlns="http://www.w3.org/2000/svg">
<path d="M34.204 53.3589H21.1904V63H34.204V53.3589ZM30.6549 59.3846H29.4718C28.8184 59.3846 28.2888 58.845 28.2888 58.1794C28.2888 57.6975 28.5664 57.2817 28.9677 57.0889C29.2621 56.9474 29.5833 57.1339 29.7703 57.4017L30.0293 57.7725L30.3546 57.3575C30.5441 57.1156 30.8469 56.9496 31.1277 57.0744C31.5457 57.2603 31.8379 57.6851 31.8379 58.1794C31.8379 58.845 31.3082 59.3846 30.6549 59.3846Z" fill="url(#paint0_linear_1477_2328)"/>
<path d="M9.69804 27.9714C9.47741 27.4441 8.96886 27.1021 8.40614 27.1025C7.92798 27.1027 7.48265 27.3503 7.22384 27.7599C6.96504 28.1695 6.92822 28.6849 7.12608 29.1284L11.7625 39.5179C12.2714 40.6607 12.9788 41.7006 13.8506 42.5873L22.0586 50.9486H31.8413V48.7058C31.877 46.3994 31.1461 44.1485 29.7674 42.3186C29.0436 41.3364 28.0551 40.5898 26.9221 40.1698C24.1418 39.0173 21.5858 37.3686 19.3742 35.3011C18.2679 34.3724 16.6785 34.3454 15.5423 35.236C15.969 35.886 16.4576 36.4915 17.001 37.0437L22.4052 42.55C22.7128 42.8526 22.8361 43.3006 22.7278 43.722C22.6196 44.1433 22.2965 44.4724 21.8829 44.5827C21.4693 44.693 21.0294 44.5673 20.7324 44.2541L15.3282 38.7478C14.0602 37.4601 13.0473 35.9361 12.3445 34.2586L9.69804 27.9714Z" fill="url(#paint1_linear_1477_2328)"/>
<path d="M37.2301 53.3589H50.2437V63H37.2301V53.3589ZM40.7792 59.3846H41.9623C42.6157 59.3846 43.1453 58.845 43.1453 58.1794C43.1453 57.6975 42.8677 57.2817 42.4664 57.0889C42.172 56.9474 41.8508 57.1339 41.6638 57.4017L41.4048 57.7725L41.0795 57.3575C40.8899 57.1156 40.5872 56.9496 40.3064 57.0744C39.8883 57.2603 39.5962 57.6851 39.5962 58.1794C39.5962 58.845 40.1258 59.3846 40.7792 59.3846Z" fill="url(#paint2_linear_1477_2328)"/>
<path d="M61.736 27.9714C61.9567 27.4441 62.4652 27.1021 63.0279 27.1025C63.5061 27.1027 63.9514 27.3503 64.2102 27.7599C64.469 28.1695 64.5059 28.6849 64.308 29.1284L59.6716 39.5179C59.1627 40.6607 58.4553 41.7006 57.5835 42.5873L49.3755 50.9486H39.5928V48.7058C39.5571 46.3994 40.288 44.1485 41.6667 42.3186C42.3904 41.3364 43.379 40.5898 44.512 40.1698C47.2923 39.0173 49.8483 37.3686 52.0598 35.3011C53.1662 34.3724 54.7556 34.3454 55.8918 35.236C55.4651 35.886 54.9765 36.4915 54.4331 37.0437L49.0289 42.55C48.7213 42.8526 48.598 43.3006 48.7062 43.722C48.8145 44.1433 49.1375 44.4724 49.5512 44.5827C49.9648 44.693 50.4047 44.5673 50.7017 44.2541L56.1059 38.7478C57.3738 37.4601 58.3868 35.9361 59.0896 34.2586L61.736 27.9714Z" fill="url(#paint3_linear_1477_2328)"/>
<path fill-rule="evenodd" clip-rule="evenodd" d="M43.1848 28.2426C45.2282 25.3421 46.3083 21.9432 46.3083 18.4131V15.4632C46.3083 15.225 46.1559 15.0138 45.9291 14.9375C44.0936 14.3198 42.6232 12.8727 41.9962 11.0662C41.9186 10.8427 41.7057 10.6924 41.4669 10.6924H29.5601C29.321 10.6924 29.1084 10.8427 29.0308 11.0662C28.4038 12.8727 26.9334 14.3198 25.0979 14.9375C24.8711 15.0138 24.7187 15.225 24.7187 15.4632V18.4131C24.7187 21.9434 25.7988 25.3423 27.842 28.2426C29.7104 30.895 32.2846 32.9704 35.2865 34.2443C35.4308 34.3057 35.5964 34.3055 35.7403 34.2443C38.742 32.9704 41.3163 30.895 43.1848 28.2426ZM37.9354 16.6561C37.9354 17.9629 36.851 19.0222 35.5135 19.0222C34.1759 19.0222 33.0916 17.9629 33.0916 16.6561C33.0916 15.3493 34.1759 14.2899 35.5135 14.2899C36.851 14.2899 37.9354 15.3493 37.9354 16.6561ZM40.413 19.0222C41.2586 19.0222 41.9441 18.3525 41.9441 17.5263C41.9441 16.7002 41.2586 16.0305 40.413 16.0305C39.5674 16.0305 38.8819 16.7002 38.8819 17.5263C38.8819 18.3525 39.5674 19.0222 40.413 19.0222ZM32.145 17.5263C32.145 18.3525 31.4595 19.0222 30.6139 19.0222C29.7684 19.0222 29.0829 18.3525 29.0829 17.5263C29.0829 16.7002 29.7684 16.0305 30.6139 16.0305C31.4595 16.0305 32.145 16.7002 32.145 17.5263ZM32.1225 20.3655C31.5841 19.9346 31.0912 19.9395 30.4954 19.9455C30.4242 19.9462 30.3515 19.9469 30.2771 19.9469C29.2349 19.9469 28.3869 20.7704 28.3869 21.7824V24.7526C28.3869 25.1921 28.7541 25.5495 29.2056 25.5495C29.6634 25.5495 30.0007 25.5514 30.2489 25.5528C30.8145 25.556 30.9173 25.5565 30.928 25.5261C30.9304 25.5193 30.9282 25.511 30.9255 25.5009C30.9231 25.4914 30.9202 25.4803 30.9202 25.4673C30.9202 25.1855 30.9156 24.9136 30.9112 24.6508C30.8825 22.9509 30.8602 21.6245 32.1225 20.3655ZM32.9883 20.6948C33.9008 19.9589 34.9588 19.8586 36.176 19.9578C37.5544 19.9578 39.2713 21.3011 39.2713 23.2383C39.2713 23.7634 39.2727 24.1717 39.2738 24.4917C39.2773 25.4607 39.2779 25.6198 39.2265 25.7607C39.2164 25.7884 39.2043 25.8153 39.1898 25.8476L39.1883 25.8511C38.9078 26.4578 38.7016 26.4563 35.568 26.4325C34.8083 26.4268 33.8765 26.4197 32.7299 26.4197C32.1888 26.4197 31.755 25.9881 31.755 25.4673C31.755 25.1863 31.7491 24.9126 31.7432 24.6464C31.7082 23.0479 31.6792 21.7192 32.9883 20.6948ZM40.5317 19.9455C39.9332 19.9396 39.4423 19.9348 38.9043 20.3654C40.1606 21.6186 40.1416 22.8681 40.1149 24.6297C40.1109 24.8965 40.1066 25.1752 40.1066 25.4673C40.1066 25.4787 40.1048 25.4886 40.1032 25.4972C40.1012 25.5081 40.0996 25.517 40.1024 25.5243C40.1149 25.5568 40.2168 25.5562 40.7758 25.5529C41.0184 25.5514 41.3471 25.5494 41.7919 25.5494C42.2596 25.5494 42.6399 25.1793 42.6399 24.7243V21.7824C42.6399 20.7704 41.7919 19.9469 40.7497 19.9469C40.6754 19.9469 40.6028 19.9462 40.5317 19.9455Z" fill="url(#paint4_linear_1477_2328)"/>
<path fill-rule="evenodd" clip-rule="evenodd" d="M44.8548 8.69696C45.4116 10.2934 46.716 11.572 48.3443 12.1171C49.3804 12.4642 50.0765 13.4174 50.0765 14.4892V17.9754C50.0765 22.5245 48.6777 26.9051 46.0316 30.6431C43.6105 34.0633 40.2742 36.74 36.383 38.3834C36.0574 38.5211 35.708 38.5897 35.3586 38.5897C35.0089 38.5897 34.6595 38.5211 34.3339 38.3834C30.4427 36.7397 27.1064 34.0633 24.6853 30.6431C22.0392 26.9051 20.6406 22.5247 20.6406 17.9754V14.4892C20.6406 13.4174 21.3367 12.4642 22.3728 12.1171C24.0011 11.572 25.3055 10.2934 25.8624 8.69696C26.2165 7.68182 27.1917 7 28.2889 7H42.4282C43.5257 7 44.5007 7.68182 44.8548 8.69696ZM43.5103 10.5621C43.9792 11.913 45.0777 12.9948 46.4489 13.4561C47.3214 13.7498 47.9076 14.5563 47.9076 15.4632V18.4131C47.9076 22.2623 46.7296 25.969 44.5013 29.132C42.4625 32.026 39.653 34.2908 36.3762 35.6814C36.102 35.7979 35.8077 35.856 35.5135 35.856C35.2191 35.856 34.9248 35.7979 34.6506 35.6814C31.3738 34.2906 28.5643 32.026 26.5255 29.132C24.2972 25.969 23.1194 22.2625 23.1194 18.4131V15.4632C23.1194 14.5563 23.7056 13.7498 24.5781 13.4561C25.9493 12.9948 27.0478 11.913 27.5167 10.5621C27.8149 9.70316 28.6362 9.12623 29.5601 9.12623H41.4669C42.391 9.12623 43.2121 9.70316 43.5103 10.5621Z" fill="url(#paint5_linear_1477_2328)"/>
<defs>
<linearGradient id="paint0_linear_1477_2328" x1="9.39276" y1="64.5025" x2="8.30198" y2="54.712" gradientUnits="userSpaceOnUse">
<stop stop-color="#0B3C5D"/>
<stop offset="1" stop-color="#1C639B"/>
</linearGradient>
<linearGradient id="paint1_linear_1477_2328" x1="-15.5213" y1="54.6649" x2="-18.9881" y2="30.6491" gradientUnits="userSpaceOnUse">
<stop stop-color="#0B3C5D"/>
<stop offset="1" stop-color="#1C639B"/>
</linearGradient>
<linearGradient id="paint2_linear_1477_2328" x1="62.0413" y1="64.5025" x2="63.1321" y2="54.712" gradientUnits="userSpaceOnUse">
<stop stop-color="#0B3C5D"/>
<stop offset="1" stop-color="#1C639B"/>
</linearGradient>
<linearGradient id="paint3_linear_1477_2328" x1="86.9554" y1="54.6649" x2="90.4222" y2="30.6491" gradientUnits="userSpaceOnUse">
<stop stop-color="#0B3C5D"/>
<stop offset="1" stop-color="#1C639B"/>
</linearGradient>
<linearGradient id="paint4_linear_1477_2328" x1="-6.04493" y1="43.5128" x2="-11.1534" y2="11.8597" gradientUnits="userSpaceOnUse">
<stop stop-color="#0B3C5D"/>
<stop offset="1" stop-color="#1C639B"/>
</linearGradient>
<linearGradient id="paint5_linear_1477_2328" x1="-6.04493" y1="43.5128" x2="-11.1534" y2="11.8597" gradientUnits="userSpaceOnUse">
<stop stop-color="#0B3C5D"/>
<stop offset="1" stop-color="#1C639B"/>
</linearGradient>
</defs>
</svg>
