<svg width="70" height="70" viewBox="0 0 70 70" fill="none" xmlns="http://www.w3.org/2000/svg">
<path fill-rule="evenodd" clip-rule="evenodd" d="M61.6439 25.8734C62.4503 25.8971 63.1233 25.2629 63.1475 24.4565L63.2183 22.1003C63.2425 21.2932 62.6076 20.6195 61.8006 20.5957L61.0714 20.5743C60.3816 20.554 59.8088 20.0511 59.6224 19.3866C59.5115 18.9912 59.3806 18.5983 59.2293 18.2095C58.977 17.5614 59.1382 16.8091 59.686 16.3807L60.2313 15.9542C60.8715 15.4535 60.9802 14.5267 60.4733 13.8915L58.9907 12.0338C58.4908 11.4074 57.5797 11.3005 56.9484 11.7941L56.3624 12.2523C55.8229 12.6741 55.0675 12.657 54.5013 12.2718C54.1488 12.032 53.7854 11.8103 53.4126 11.6072C52.8027 11.2749 52.4418 10.5966 52.5839 9.91664L52.7245 9.24435C52.89 8.45219 52.3803 7.67631 51.5875 7.51378L49.2281 7.03006C48.4399 6.86847 47.6694 7.37442 47.5044 8.16191L47.3597 8.85239C47.218 9.52849 46.621 10.0041 45.9332 10.0682C45.5073 10.1079 45.0818 10.1688 44.658 10.2515C43.9835 10.3831 43.2802 10.0987 42.9519 9.49503L42.6069 8.86076C42.2236 8.15595 41.3437 7.89201 40.6357 8.26946L38.5185 9.39818C37.8021 9.7801 37.5344 10.6727 37.9222 11.3859L38.2464 11.9819C38.5789 12.5934 38.4272 13.3484 37.9374 13.843C37.6408 14.1426 37.3608 14.4552 37.0978 14.7791C36.6647 15.3127 35.943 15.5464 35.3036 15.2944L34.6113 15.0216C33.864 14.7272 33.0192 15.091 32.7196 15.8361L31.8375 18.0303C31.5351 18.7826 31.903 19.6374 32.6573 19.9349L33.3202 20.1963C33.9658 20.4508 34.3341 21.124 34.2789 21.8158C34.2464 22.2243 34.2336 22.6352 34.241 23.047C34.2533 23.7396 33.8461 24.3879 33.1878 24.6034L32.5093 24.8256C31.7391 25.0777 31.3212 25.9084 31.5778 26.6771L32.326 28.9182C32.5805 29.6805 33.4029 30.0942 34.1667 29.8443L34.8733 29.613C35.5263 29.3993 36.2326 29.675 36.6336 30.2328C36.88 30.5754 37.1413 30.903 37.4163 31.2153C37.8765 31.7379 37.9834 32.501 37.6149 33.0919L37.2557 33.6678C36.826 34.3569 37.0406 35.2643 37.7335 35.6879L39.7778 36.9377C40.4619 37.3559 41.3554 37.1447 41.7798 36.4644L42.1685 35.8415C42.5316 35.2594 43.249 35.0169 43.9134 35.188C44.3296 35.2951 44.7511 35.3818 45.1765 35.4478C45.858 35.5536 46.4236 36.0641 46.5241 36.7464L46.627 37.4456C46.7443 38.2426 47.4846 38.7944 48.2819 38.6791L50.6676 38.3342C51.4678 38.2185 52.0219 37.4752 51.9044 36.6753L51.8044 35.9956C51.7036 35.3096 52.103 34.655 52.7299 34.3589C52.9194 34.2694 53.1077 34.1749 53.2945 34.0752C53.4866 33.9731 53.6749 33.8665 53.8594 33.756C54.447 33.4039 55.202 33.4311 55.7159 33.884L56.2727 34.3747C56.8738 34.9045 57.7894 34.8515 58.3253 34.2559L59.9178 32.486C60.4614 31.8818 60.4076 30.9501 59.798 30.4125L59.2782 29.9542C58.7568 29.4943 58.6399 28.7342 58.9292 28.1021C59.1018 27.7249 59.2558 27.3401 59.3908 26.9489C59.6156 26.2979 60.2164 25.8314 60.9048 25.8516L61.6439 25.8734ZM50.395 28.7443C47.0872 30.5072 42.9477 29.2783 41.1677 26.0051C39.3861 22.7314 40.6278 18.6328 43.9356 16.8707C47.2417 15.1074 51.381 16.3372 53.1625 19.6108C54.9423 22.8846 53.7015 26.9811 50.395 28.7443Z" fill="url(#paint0_linear_1477_2306)"/>
<path fill-rule="evenodd" clip-rule="evenodd" d="M35.9628 11.0574C35.8898 10.7281 35.6609 10.4343 35.3293 10.3724C23.8787 8.23383 12.8382 17.9174 14.2362 29.9218C14.865 35.3214 17.94 40.1564 22.6085 43.0862C24.3129 44.1223 25.3597 45.9399 25.3843 47.9061V51.9613C25.3843 53.624 26.759 54.9719 28.4549 54.9719H36.6432C38.3391 54.9719 39.7138 53.624 39.7138 51.9613V47.9894C39.7398 45.9771 40.8081 44.116 42.549 43.05C43.6162 41.9955 44.5602 40.8537 45.3783 39.6497C45.5788 39.3547 45.5161 38.9637 45.3081 38.674C45.0448 38.3073 44.8628 37.8739 44.7925 37.3966L44.6928 36.7199C44.6907 36.7053 44.6861 36.691 44.6754 36.6808C44.6541 36.6607 44.6153 36.638 44.5637 36.63C44.0911 36.5567 43.6227 36.4603 43.1604 36.3413C43.1102 36.3284 43.0661 36.3338 43.0389 36.3437C43.0252 36.3487 43.0153 36.3599 43.0076 36.3723L42.631 36.976C41.782 38.3367 39.9952 38.7592 38.6268 37.9226L36.5825 36.6729C35.1966 35.8256 34.7675 34.0109 35.627 32.6326L35.9737 32.0768C35.9818 32.0638 35.9877 32.0493 35.986 32.0341C35.9824 32.0039 35.9666 31.9599 35.9308 31.9191C35.6243 31.5711 35.333 31.2059 35.0584 30.8239C35.0271 30.7804 34.9886 30.7555 34.9606 30.7453C34.9465 30.7402 34.9313 30.7426 34.917 30.7472L34.2325 30.9712C32.7049 31.4712 31.0602 30.6437 30.5511 29.1191L29.803 26.878C29.2897 25.3407 30.1255 23.6792 31.6658 23.1749L32.3218 22.9601C32.3364 22.9553 32.3503 22.948 32.3588 22.9352C32.3757 22.9097 32.3921 22.8657 32.3911 22.8112C32.3829 22.3518 32.3972 21.8935 32.4335 21.4378C32.4378 21.3835 32.4241 21.3387 32.4088 21.3122C32.4011 21.2989 32.3876 21.2908 32.3732 21.2851L31.7325 21.0325C30.2238 20.4376 29.488 18.728 30.0929 17.2233L30.975 15.0292C31.5742 13.5388 33.2638 12.8113 34.7582 13.4001L35.429 13.6644C35.443 13.6699 35.458 13.6731 35.4723 13.6689C35.5009 13.6604 35.5408 13.6377 35.5745 13.5962C35.8675 13.2353 36.1796 12.8869 36.5102 12.553C36.5485 12.5143 36.567 12.4712 36.5723 12.441C36.575 12.4258 36.5698 12.4108 36.5624 12.3973L36.2497 11.8222C36.1156 11.5756 36.0207 11.3183 35.9628 11.0574ZM33.5726 51.9613H31.5255V48.9508H33.5726V51.9613ZM31.5255 46.9437C31.5249 44.2904 29.8561 41.9121 27.329 40.9627C19.9584 38.1371 16.3197 29.9883 19.2017 22.7618C20.3176 19.9636 22.3192 17.5899 24.9124 15.9891L25.9984 17.687C20.257 21.2291 18.5314 28.6637 22.1441 34.2928C23.5438 36.4737 25.6202 38.157 28.068 39.0952C31.3853 40.3392 33.5751 43.4615 33.5726 46.9437H31.5255Z" fill="url(#paint1_linear_1477_2306)"/>
<path d="M13.3124 33.2188C13.5216 33.1035 13.7525 33.0719 13.9691 33.113C14.4777 35.0473 15.3074 36.8746 16.4141 38.5254C14.0505 39.0777 12.2855 41.2625 12.2855 43.8736C12.2855 46.9018 14.6594 49.3566 17.5879 49.3566C20.2926 49.3566 22.5243 47.2626 22.8495 44.5568C23.9718 45.6134 24.6334 47.0785 24.6529 48.6368V52.1272C24.4614 52.1008 24.2752 52.0174 24.1196 51.8755L23.7347 51.5248C23.3796 51.2011 22.8578 51.1817 22.4517 51.4333C22.3242 51.5123 22.194 51.5884 22.0613 51.6615C21.9321 51.7327 21.802 51.8002 21.6711 51.8642C21.2377 52.0758 20.9617 52.5436 21.0314 53.0339L21.1005 53.5197C21.1817 54.0913 20.7987 54.6225 20.2458 54.7052L18.5969 54.9517C18.0458 55.0341 17.5343 54.6398 17.4532 54.0702L17.382 53.5705C17.3126 53.0828 16.9217 52.718 16.4506 52.6424C16.1567 52.5952 15.8653 52.5332 15.5777 52.4567C15.1185 52.3345 14.6227 52.5077 14.3717 52.9237L14.1032 53.3689C13.8098 53.8551 13.1923 54.0061 12.7195 53.7071L11.3066 52.814C10.8277 52.5112 10.6794 51.8628 10.9764 51.3703L11.2246 50.9587C11.4793 50.5364 11.4055 49.9911 11.0874 49.6175C10.8973 49.3943 10.7167 49.1602 10.5465 48.9153C10.2693 48.5167 9.78112 48.3197 9.32988 48.4724L8.84151 48.6377C8.31361 48.8164 7.74526 48.5207 7.56936 47.9758L7.05226 46.3743C6.87489 45.8249 7.16371 45.2312 7.696 45.051L8.16495 44.8922C8.61989 44.7382 8.90137 44.2748 8.89282 43.7799C8.88774 43.4856 8.89658 43.192 8.91907 42.9C8.95716 42.4056 8.70265 41.9245 8.25647 41.7426L7.79834 41.5557C7.27698 41.3432 7.02269 40.7323 7.23174 40.1946L7.8414 38.6265C8.04845 38.094 8.63231 37.834 9.14874 38.0444L9.62722 38.2394C10.0691 38.4194 10.5679 38.2524 10.8673 37.8711C11.049 37.6396 11.2425 37.4162 11.4475 37.2021C11.786 36.8486 11.8909 36.309 11.6611 35.872L11.437 35.446C11.169 34.9363 11.354 34.2984 11.8492 34.0255L13.3124 33.2188Z" fill="url(#paint2_linear_1477_2306)"/>
<path d="M36.6436 55.9753H28.4552C28.4552 55.9753 28.2687 57.2211 28.4552 57.9824C29.3698 57.4161 31.0027 57.7771 32.5885 58.1277C34.3436 58.5157 36.0411 58.891 36.6436 57.9824C36.8302 57.2211 36.6436 55.9753 36.6436 55.9753Z" fill="url(#paint3_linear_1477_2306)"/>
<path d="M28.4549 59.9894C28.4072 60.3784 28.4549 60.993 28.4549 60.993C28.4549 62.1015 29.3713 63 30.502 63H34.5961C35.7267 63 36.6432 62.1015 36.6432 60.993C36.6432 60.993 36.6909 60.3784 36.6432 59.9894C35.3699 60.1835 34.441 60.0265 33.4715 59.8627C32.1768 59.644 30.81 59.413 28.4549 59.9894Z" fill="url(#paint4_linear_1477_2306)"/>
<defs>
<linearGradient id="paint0_linear_1477_2306" x1="-43.9662" y1="71.7273" x2="-52.4014" y2="15.417" gradientUnits="userSpaceOnUse">
<stop stop-color="#0B3C5D"/>
<stop offset="1" stop-color="#1C639B"/>
</linearGradient>
<linearGradient id="paint1_linear_1477_2306" x1="-43.9662" y1="71.7273" x2="-52.4014" y2="15.417" gradientUnits="userSpaceOnUse">
<stop stop-color="#0B3C5D"/>
<stop offset="1" stop-color="#1C639B"/>
</linearGradient>
<linearGradient id="paint2_linear_1477_2306" x1="-43.9662" y1="71.7273" x2="-52.4014" y2="15.417" gradientUnits="userSpaceOnUse">
<stop stop-color="#0B3C5D"/>
<stop offset="1" stop-color="#1C639B"/>
</linearGradient>
<linearGradient id="paint3_linear_1477_2306" x1="-43.9662" y1="71.7273" x2="-52.4014" y2="15.417" gradientUnits="userSpaceOnUse">
<stop stop-color="#0B3C5D"/>
<stop offset="1" stop-color="#1C639B"/>
</linearGradient>
<linearGradient id="paint4_linear_1477_2306" x1="-43.9662" y1="71.7273" x2="-52.4014" y2="15.417" gradientUnits="userSpaceOnUse">
<stop stop-color="#0B3C5D"/>
<stop offset="1" stop-color="#1C639B"/>
</linearGradient>
</defs>
</svg>
