<svg width="38" height="38" viewBox="0 0 38 38" fill="none" xmlns="http://www.w3.org/2000/svg">
<path d="M35.114 12.7606C35.2325 12.1263 35.2924 11.4825 35.2932 10.8373C35.286 4.8448 30.4188 -0.00722378 24.4221 8.07373e-06C19.8571 0.00549157 15.7831 2.86366 14.2272 7.15231C11.4415 6.04417 8.28418 7.40249 7.17518 10.1863C7.07919 10.4272 7.00062 10.6747 6.9401 10.9269C2.492 11.5916 -0.574563 15.7339 0.0906798 20.1789C0.687291 24.1654 4.11443 27.1147 8.14804 27.113H14.9343C15.6839 27.113 16.2916 26.5058 16.2916 25.7567C16.2916 25.0076 15.6839 24.4004 14.9343 24.4004H8.14804C5.14963 24.4004 2.71897 21.9714 2.71897 18.9751C2.71897 15.9788 5.14963 13.5499 8.14804 13.5499C8.89766 13.5499 9.50532 12.9426 9.50532 12.1936C9.50779 10.6954 10.7251 9.48296 12.2243 9.48542C12.9333 9.48662 13.6137 9.76492 14.12 10.2608C14.6538 10.7866 15.5132 10.7803 16.0393 10.2468C16.2369 10.0465 16.3672 9.7898 16.4123 9.51213C17.1491 5.08297 21.3393 2.0893 25.7716 2.82552C30.2039 3.56174 33.1997 7.74906 32.4629 12.1782C32.419 12.4423 32.362 12.7041 32.2923 12.9625C32.1362 13.5287 32.3625 14.1308 32.8529 14.4544C35.3513 16.111 36.0327 19.4779 34.3749 21.9746C33.3715 23.4857 31.679 24.3959 29.8641 24.4002H25.7924C25.0427 24.4002 24.4351 25.0075 24.4351 25.7565C24.4351 26.5056 25.0427 27.1129 25.7924 27.1129H29.8641C34.3617 27.1087 38.0043 23.4617 38 18.9673C37.9978 16.5752 36.9423 14.3051 35.114 12.7606Z" fill="#1C75BC"/>
<path d="M28.0726 28.8673C27.5467 28.3598 26.7128 28.3598 26.1869 28.8673L21.7147 33.3337V13.5505C21.7147 12.8014 21.107 12.1942 20.3574 12.1942C19.6078 12.1942 19.0001 12.8014 19.0001 13.5505V33.3336L14.5306 28.8673C13.9914 28.3469 13.1322 28.3618 12.6115 28.9006C12.1035 29.4262 12.1035 30.2595 12.6115 30.7851L19.3978 37.5666C19.9271 38.0969 20.7865 38.098 21.3172 37.569C21.318 37.5682 21.3188 37.5674 21.3197 37.5666L28.106 30.7851C28.6268 30.2463 28.6118 29.3877 28.0726 28.8673Z" fill="#1C75BC"/>
</svg>
