<svg width="50" height="68" viewBox="0 0 50 68" fill="none" xmlns="http://www.w3.org/2000/svg">
<path d="M34.4872 19.71C32.013 19.71 30 17.6469 30 15.111V0H7.05128C3.16321 0 0 3.24204 0 7.22701V60.0499C0 64.0348 3.16321 67.2769 7.05128 67.2769H42.9487C46.8368 67.2769 50 64.0348 50 60.0499V19.71H34.4872ZM10.5128 47.3041H19.8359C20.8979 47.3041 21.759 48.1865 21.759 49.2751C21.759 50.3636 20.8979 51.2461 19.8359 51.2461H10.5128C9.45077 51.2461 8.58974 50.3636 8.58974 49.2751C8.58974 48.1865 9.45077 47.3041 10.5128 47.3041ZM8.58974 38.763C8.58974 37.6745 9.45077 36.792 10.5128 36.792H38.718C39.78 36.792 40.641 37.6745 40.641 38.763C40.641 39.8516 39.78 40.734 38.718 40.734H10.5128C9.45077 40.734 8.58974 39.8516 8.58974 38.763ZM38.718 26.28C39.78 26.28 40.641 27.1625 40.641 28.251C40.641 29.3396 39.78 30.222 38.718 30.222H10.5128C9.45077 30.222 8.58974 29.3396 8.58974 28.251C8.58974 27.1625 9.45077 26.28 10.5128 26.28H38.718Z" fill="#1C75BC"/>
<path d="M33.8477 15.1135C33.8477 15.4758 34.1352 15.7706 34.4887 15.7706H49.1443C48.7925 15.1048 48.34 14.4933 47.7963 13.9659L35.4343 1.97675C34.9546 1.51149 34.4202 1.12338 33.8478 0.816895V15.1135H33.8477Z" fill="#1C75BC"/>
</svg>
