<svg width="1025" height="415" viewBox="0 0 1025 415" fill="none" xmlns="http://www.w3.org/2000/svg">
<path d="M784.748 334.832H790.068L789.816 333.992C789.181 331.976 788.659 330.287 788.248 328.924C787.856 327.543 787.613 326.675 787.52 326.32L787.408 325.76C787.24 326.693 786.437 329.447 785 334.02L784.748 334.832ZM792.308 342L790.964 337.716H783.824L782.48 342H778.784L785.168 323.128H789.732L796.116 342H792.308ZM805.731 339.312C806.702 339.312 807.514 338.911 808.167 338.108C808.821 337.305 809.147 336.26 809.147 334.972C809.147 333.553 808.811 332.452 808.139 331.668C807.486 330.865 806.674 330.464 805.703 330.464C804.789 330.464 803.977 330.828 803.267 331.556C802.558 332.265 802.203 333.339 802.203 334.776C802.203 336.251 802.539 337.38 803.211 338.164C803.883 338.929 804.723 339.312 805.731 339.312ZM802.203 322.204V329.96C803.193 328.392 804.611 327.608 806.459 327.608C808.233 327.608 809.689 328.271 810.827 329.596C811.985 330.903 812.563 332.676 812.563 334.916C812.563 336.932 812.013 338.649 810.911 340.068C809.829 341.487 808.354 342.196 806.487 342.196C804.621 342.196 803.193 341.403 802.203 339.816V342H798.815V322.204H802.203ZM824.024 328.252V331.22C823.09 330.66 821.924 330.38 820.524 330.38C819.945 330.38 819.488 330.511 819.152 330.772C818.834 331.015 818.676 331.332 818.676 331.724C818.676 331.873 818.694 332.013 818.732 332.144C818.788 332.275 818.872 332.405 818.984 332.536C819.114 332.648 819.236 332.751 819.348 332.844C819.46 332.937 819.618 333.04 819.824 333.152C820.029 333.245 820.206 333.329 820.356 333.404C820.505 333.479 820.71 333.572 820.972 333.684C821.233 333.796 821.438 333.889 821.588 333.964C822.577 334.449 823.361 334.991 823.94 335.588C824.518 336.185 824.808 336.96 824.808 337.912C824.808 339.237 824.332 340.273 823.38 341.02C822.428 341.767 821.158 342.14 819.572 342.14C817.817 342.14 816.398 341.851 815.316 341.272V338.192C816.566 339.032 817.92 339.452 819.376 339.452C819.992 339.452 820.468 339.34 820.804 339.116C821.158 338.873 821.336 338.547 821.336 338.136C821.336 337.893 821.28 337.679 821.168 337.492C821.056 337.287 820.841 337.091 820.524 336.904C820.206 336.717 819.954 336.587 819.768 336.512C819.6 336.419 819.254 336.26 818.732 336.036C818.676 336.017 818.629 335.999 818.592 335.98C818.573 335.961 818.536 335.943 818.48 335.924C818.424 335.905 818.377 335.887 818.34 335.868C816.268 334.935 815.232 333.591 815.232 331.836C815.232 330.529 815.726 329.503 816.716 328.756C817.705 328.009 818.946 327.636 820.44 327.636C821.877 327.636 823.072 327.841 824.024 328.252ZM836.129 333.74V333.32C836.091 332.405 835.839 331.677 835.373 331.136C834.925 330.576 834.262 330.296 833.385 330.296C832.582 330.296 831.882 330.595 831.285 331.192C830.706 331.771 830.333 332.62 830.165 333.74H836.129ZM838.425 338.304V341.216C837.435 341.832 836.007 342.14 834.141 342.14C831.882 342.14 830.099 341.468 828.793 340.124C827.486 338.78 826.833 337.044 826.833 334.916C826.833 332.657 827.449 330.884 828.681 329.596C829.913 328.308 831.453 327.664 833.301 327.664C835.149 327.664 836.614 328.224 837.697 329.344C838.779 330.464 839.321 332.097 839.321 334.244C839.321 334.767 839.255 335.439 839.125 336.26H830.221C830.463 337.287 830.967 338.071 831.733 338.612C832.517 339.153 833.487 339.424 834.645 339.424C836.138 339.424 837.398 339.051 838.425 338.304ZM845.869 327.804V330.24C846.672 328.504 848.128 327.636 850.237 327.636C851.656 327.636 852.776 328.065 853.597 328.924C854.418 329.783 854.829 330.996 854.829 332.564V342H851.469V333.264C851.469 332.331 851.245 331.631 850.797 331.164C850.349 330.679 849.742 330.436 848.977 330.436C848.1 330.436 847.362 330.781 846.765 331.472C846.168 332.144 845.869 333.115 845.869 334.384V342H842.509V327.804H845.869ZM862.529 330.324V337.548C862.529 338.145 862.688 338.603 863.005 338.92C863.322 339.219 863.761 339.368 864.321 339.368C865.03 339.368 865.684 339.172 866.281 338.78V341.664C865.628 341.981 864.788 342.14 863.761 342.14C860.7 342.14 859.169 340.591 859.169 337.492V330.324H857.041V327.804H859.169V324.388H862.529V327.804H866.057V330.324H862.529ZM877.69 333.74V333.32C877.653 332.405 877.401 331.677 876.934 331.136C876.486 330.576 875.824 330.296 874.946 330.296C874.144 330.296 873.444 330.595 872.846 331.192C872.268 331.771 871.894 332.62 871.726 333.74H877.69ZM879.986 338.304V341.216C878.997 341.832 877.569 342.14 875.702 342.14C873.444 342.14 871.661 341.468 870.354 340.124C869.048 338.78 868.394 337.044 868.394 334.916C868.394 332.657 869.01 330.884 870.242 329.596C871.474 328.308 873.014 327.664 874.862 327.664C876.71 327.664 878.176 328.224 879.258 329.344C880.341 330.464 880.882 332.097 880.882 334.244C880.882 334.767 880.817 335.439 880.686 336.26H871.782C872.025 337.287 872.529 338.071 873.294 338.612C874.078 339.153 875.049 339.424 876.206 339.424C877.7 339.424 878.96 339.051 879.986 338.304ZM892.611 333.74V333.32C892.573 332.405 892.321 331.677 891.855 331.136C891.407 330.576 890.744 330.296 889.867 330.296C889.064 330.296 888.364 330.595 887.767 331.192C887.188 331.771 886.815 332.62 886.647 333.74H892.611ZM894.907 338.304V341.216C893.917 341.832 892.489 342.14 890.623 342.14C888.364 342.14 886.581 341.468 885.275 340.124C883.968 338.78 883.315 337.044 883.315 334.916C883.315 332.657 883.931 330.884 885.163 329.596C886.395 328.308 887.935 327.664 889.783 327.664C891.631 327.664 893.096 328.224 894.179 329.344C895.261 330.464 895.803 332.097 895.803 334.244C895.803 334.767 895.737 335.439 895.607 336.26H886.703C886.945 337.287 887.449 338.071 888.215 338.612C888.999 339.153 889.969 339.424 891.127 339.424C892.62 339.424 893.88 339.051 894.907 338.304ZM899.131 342V327.804H902.491V342H899.131ZM898.795 323.548C898.795 322.988 898.991 322.512 899.383 322.12C899.775 321.728 900.251 321.532 900.811 321.532C901.371 321.532 901.847 321.728 902.239 322.12C902.631 322.512 902.827 322.988 902.827 323.548C902.827 324.127 902.631 324.612 902.239 325.004C901.847 325.396 901.371 325.592 900.811 325.592C900.251 325.592 899.775 325.396 899.383 325.004C898.991 324.612 898.795 324.127 898.795 323.548ZM914.849 328.252V331.22C913.915 330.66 912.749 330.38 911.349 330.38C910.77 330.38 910.313 330.511 909.977 330.772C909.659 331.015 909.501 331.332 909.501 331.724C909.501 331.873 909.519 332.013 909.557 332.144C909.613 332.275 909.697 332.405 909.809 332.536C909.939 332.648 910.061 332.751 910.173 332.844C910.285 332.937 910.443 333.04 910.649 333.152C910.854 333.245 911.031 333.329 911.181 333.404C911.33 333.479 911.535 333.572 911.797 333.684C912.058 333.796 912.263 333.889 912.413 333.964C913.402 334.449 914.186 334.991 914.765 335.588C915.343 336.185 915.633 336.96 915.633 337.912C915.633 339.237 915.157 340.273 914.205 341.02C913.253 341.767 911.983 342.14 910.397 342.14C908.642 342.14 907.223 341.851 906.141 341.272V338.192C907.391 339.032 908.745 339.452 910.201 339.452C910.817 339.452 911.293 339.34 911.629 339.116C911.983 338.873 912.161 338.547 912.161 338.136C912.161 337.893 912.105 337.679 911.993 337.492C911.881 337.287 911.666 337.091 911.349 336.904C911.031 336.717 910.779 336.587 910.593 336.512C910.425 336.419 910.079 336.26 909.557 336.036C909.501 336.017 909.454 335.999 909.417 335.98C909.398 335.961 909.361 335.943 909.305 335.924C909.249 335.905 909.202 335.887 909.165 335.868C907.093 334.935 906.057 333.591 906.057 331.836C906.057 330.529 906.551 329.503 907.541 328.756C908.53 328.009 909.771 327.636 911.265 327.636C912.702 327.636 913.897 327.841 914.849 328.252ZM921.774 327.804V330.044C922.576 328.439 923.911 327.636 925.778 327.636C927.85 327.636 929.194 328.532 929.81 330.324C930.183 329.465 930.743 328.803 931.49 328.336C932.236 327.869 933.086 327.636 934.038 327.636C935.475 327.636 936.586 328.075 937.37 328.952C938.154 329.811 938.546 331.043 938.546 332.648V342H935.158V333.292C935.158 331.388 934.43 330.436 932.974 330.436C932.246 330.436 931.592 330.753 931.014 331.388C930.454 332.023 930.174 333.021 930.174 334.384V342H926.786V333.292C926.786 331.388 926.058 330.436 924.602 330.436C923.874 330.436 923.22 330.753 922.642 331.388C922.063 332.023 921.774 333.021 921.774 334.384V342H918.414V327.804H921.774ZM956.409 335.896H954.673C953.795 335.896 953.123 336.083 952.657 336.456C952.19 336.811 951.957 337.268 951.957 337.828C951.957 339.023 952.647 339.62 954.029 339.62C954.775 339.62 955.354 339.405 955.765 338.976C956.194 338.528 956.409 337.949 956.409 337.24V335.896ZM949.521 331.64V328.532C950.585 327.879 952.115 327.552 954.113 327.552C957.958 327.552 959.881 329.344 959.881 332.928V342H956.549V340.292C955.895 341.505 954.663 342.112 952.853 342.112C951.509 342.112 950.435 341.72 949.633 340.936C948.849 340.152 948.457 339.163 948.457 337.968C948.457 336.624 948.961 335.569 949.969 334.804C950.977 334.039 952.433 333.656 954.337 333.656H956.409V332.788C956.409 332.004 956.203 331.407 955.793 330.996C955.382 330.585 954.682 330.38 953.693 330.38C952.181 330.38 950.79 330.8 949.521 331.64ZM966.808 327.804V330.24C967.611 328.504 969.067 327.636 971.176 327.636C972.595 327.636 973.715 328.065 974.536 328.924C975.357 329.783 975.768 330.996 975.768 332.564V342H972.408V333.264C972.408 332.331 972.184 331.631 971.736 331.164C971.288 330.679 970.681 330.436 969.916 330.436C969.039 330.436 968.301 330.781 967.704 331.472C967.107 332.144 966.808 333.115 966.808 334.384V342H963.448V327.804H966.808ZM985.484 339.312C986.492 339.312 987.332 338.929 988.004 338.164C988.676 337.38 989.012 336.251 989.012 334.776C989.012 333.339 988.657 332.265 987.948 331.556C987.239 330.828 986.427 330.464 985.512 330.464C984.541 330.464 983.72 330.865 983.048 331.668C982.395 332.452 982.068 333.553 982.068 334.972C982.068 336.26 982.395 337.305 983.048 338.108C983.701 338.911 984.513 339.312 985.484 339.312ZM989.012 322.204H992.372V342H989.012V339.788C988.041 341.393 986.604 342.196 984.7 342.196C982.833 342.196 981.349 341.487 980.248 340.068C979.165 338.649 978.624 336.932 978.624 334.916C978.624 332.676 979.193 330.903 980.332 329.596C981.489 328.271 982.964 327.608 984.756 327.608C986.604 327.608 988.023 328.401 989.012 329.988V322.204ZM783.516 371.116H791.216V374H779.96V355.128H791.104V358.012H783.516V363.136H790.264V365.992H783.516V371.116ZM798.073 359.804V362.044C798.876 360.439 800.21 359.636 802.077 359.636C804.149 359.636 805.493 360.532 806.109 362.324C806.482 361.465 807.042 360.803 807.789 360.336C808.536 359.869 809.385 359.636 810.337 359.636C811.774 359.636 812.885 360.075 813.669 360.952C814.453 361.811 814.845 363.043 814.845 364.648V374H811.457V365.292C811.457 363.388 810.729 362.436 809.273 362.436C808.545 362.436 807.892 362.753 807.313 363.388C806.753 364.023 806.473 365.021 806.473 366.384V374H803.085V365.292C803.085 363.388 802.357 362.436 800.901 362.436C800.173 362.436 799.52 362.753 798.941 363.388C798.362 364.023 798.073 365.021 798.073 366.384V374H794.713V359.804H798.073ZM825.299 371.312C826.307 371.312 827.128 370.929 827.763 370.164C828.397 369.38 828.715 368.288 828.715 366.888C828.715 365.488 828.397 364.405 827.763 363.64C827.128 362.856 826.325 362.464 825.355 362.464C824.384 362.464 823.544 362.828 822.835 363.556C822.125 364.284 821.771 365.367 821.771 366.804C821.771 368.241 822.116 369.352 822.807 370.136C823.497 370.92 824.328 371.312 825.299 371.312ZM821.771 359.804V361.988C822.779 360.401 824.225 359.608 826.111 359.608C827.959 359.608 829.424 360.271 830.507 361.596C831.608 362.921 832.159 364.667 832.159 366.832C832.159 368.96 831.608 370.724 830.507 372.124C829.424 373.505 827.949 374.196 826.083 374.196C824.179 374.196 822.741 373.421 821.771 371.872V379.348H818.411V359.804H821.771ZM835.276 374V354.204H838.636V374H835.276ZM848.585 374.224C846.438 374.224 844.758 373.552 843.545 372.208C842.35 370.864 841.753 369.147 841.753 367.056C841.753 364.891 842.378 363.108 843.629 361.708C844.88 360.289 846.532 359.58 848.585 359.58C850.769 359.58 852.458 360.271 853.653 361.652C854.848 363.015 855.445 364.751 855.445 366.86C855.445 369.007 854.838 370.771 853.625 372.152C852.43 373.533 850.75 374.224 848.585 374.224ZM848.585 362.324C847.521 362.324 846.7 362.763 846.121 363.64C845.561 364.517 845.281 365.619 845.281 366.944C845.281 368.251 845.57 369.343 846.149 370.22C846.728 371.097 847.549 371.536 848.613 371.536C849.714 371.536 850.545 371.107 851.105 370.248C851.665 369.389 851.945 368.297 851.945 366.972C851.945 365.609 851.674 364.499 851.133 363.64C850.592 362.763 849.742 362.324 848.585 362.324ZM862.389 373.72L856.789 359.804H860.513L862.165 364.34C862.669 365.684 863.07 366.813 863.369 367.728C863.686 368.643 863.882 369.221 863.957 369.464L864.041 369.856C864.228 369.203 864.825 367.364 865.833 364.34L867.317 359.804H870.845L865.721 373.608C864.302 377.397 862.137 379.292 859.225 379.292C858.684 379.292 858.217 379.245 857.825 379.152V376.38C858.124 376.455 858.441 376.492 858.777 376.492C860.476 376.492 861.68 375.568 862.389 373.72ZM881.546 365.74V365.32C881.509 364.405 881.257 363.677 880.79 363.136C880.342 362.576 879.679 362.296 878.802 362.296C877.999 362.296 877.299 362.595 876.702 363.192C876.123 363.771 875.75 364.62 875.582 365.74H881.546ZM883.842 370.304V373.216C882.853 373.832 881.425 374.14 879.558 374.14C877.299 374.14 875.517 373.468 874.21 372.124C872.903 370.78 872.25 369.044 872.25 366.916C872.25 364.657 872.866 362.884 874.098 361.596C875.33 360.308 876.87 359.664 878.718 359.664C880.566 359.664 882.031 360.224 883.114 361.344C884.197 362.464 884.738 364.097 884.738 366.244C884.738 366.767 884.673 367.439 884.542 368.26H875.638C875.881 369.287 876.385 370.071 877.15 370.612C877.934 371.153 878.905 371.424 880.062 371.424C881.555 371.424 882.815 371.051 883.842 370.304ZM896.466 365.74V365.32C896.429 364.405 896.177 363.677 895.71 363.136C895.262 362.576 894.6 362.296 893.722 362.296C892.92 362.296 892.22 362.595 891.622 363.192C891.044 363.771 890.67 364.62 890.502 365.74H896.466ZM898.762 370.304V373.216C897.773 373.832 896.345 374.14 894.478 374.14C892.22 374.14 890.437 373.468 889.13 372.124C887.824 370.78 887.17 369.044 887.17 366.916C887.17 364.657 887.786 362.884 889.018 361.596C890.25 360.308 891.79 359.664 893.638 359.664C895.486 359.664 896.952 360.224 898.034 361.344C899.117 362.464 899.658 364.097 899.658 366.244C899.658 366.767 899.593 367.439 899.462 368.26H890.558C890.801 369.287 891.305 370.071 892.07 370.612C892.854 371.153 893.825 371.424 894.982 371.424C896.476 371.424 897.736 371.051 898.762 370.304ZM921.932 355.128V358.04H917.144V374H913.588V358.04H908.8V355.128H921.932ZM933.331 359.804H936.719V374H933.331V371.676C932.584 373.319 931.128 374.14 928.963 374.14C927.525 374.14 926.405 373.729 925.603 372.908C924.8 372.087 924.399 370.92 924.399 369.408V359.804H927.759V368.624C927.759 369.52 927.973 370.201 928.403 370.668C928.851 371.135 929.457 371.368 930.223 371.368C931.193 371.368 931.949 371.041 932.491 370.388C933.051 369.735 933.331 368.745 933.331 367.42V359.804ZM943.831 359.804V362.324C944.484 360.569 945.679 359.692 947.415 359.692C947.807 359.692 948.124 359.72 948.367 359.776V363.024C947.937 362.837 947.461 362.744 946.939 362.744C946.024 362.744 945.277 363.117 944.699 363.864C944.12 364.611 943.831 365.544 943.831 366.664V374H940.443L940.471 359.804H943.831ZM953.802 359.804V362.24C954.605 360.504 956.061 359.636 958.17 359.636C959.589 359.636 960.709 360.065 961.53 360.924C962.351 361.783 962.762 362.996 962.762 364.564V374H959.402V365.264C959.402 364.331 959.178 363.631 958.73 363.164C958.282 362.679 957.675 362.436 956.91 362.436C956.033 362.436 955.295 362.781 954.698 363.472C954.101 364.144 953.802 365.115 953.802 366.384V374H950.442V359.804H953.802ZM972.45 374.224C970.303 374.224 968.623 373.552 967.41 372.208C966.215 370.864 965.618 369.147 965.618 367.056C965.618 364.891 966.243 363.108 967.494 361.708C968.745 360.289 970.397 359.58 972.45 359.58C974.634 359.58 976.323 360.271 977.518 361.652C978.713 363.015 979.31 364.751 979.31 366.86C979.31 369.007 978.703 370.771 977.49 372.152C976.295 373.533 974.615 374.224 972.45 374.224ZM972.45 362.324C971.386 362.324 970.565 362.763 969.986 363.64C969.426 364.517 969.146 365.619 969.146 366.944C969.146 368.251 969.435 369.343 970.014 370.22C970.593 371.097 971.414 371.536 972.478 371.536C973.579 371.536 974.41 371.107 974.97 370.248C975.53 369.389 975.81 368.297 975.81 366.972C975.81 365.609 975.539 364.499 974.998 363.64C974.457 362.763 973.607 362.324 972.45 362.324ZM985.974 374L980.85 359.804H984.378L986.254 365.824C986.627 367 986.945 368.055 987.206 368.988C987.467 369.903 987.635 370.528 987.71 370.864L987.794 371.368C987.981 370.323 988.513 368.475 989.39 365.824L991.35 359.804H994.822L989.614 374H985.974ZM1005.63 365.74V365.32C1005.59 364.405 1005.34 363.677 1004.87 363.136C1004.43 362.576 1003.76 362.296 1002.89 362.296C1002.08 362.296 1001.38 362.595 1000.79 363.192C1000.21 363.771 999.834 364.62 999.666 365.74H1005.63ZM1007.93 370.304V373.216C1006.94 373.832 1005.51 374.14 1003.64 374.14C1001.38 374.14 999.6 373.468 998.294 372.124C996.987 370.78 996.334 369.044 996.334 366.916C996.334 364.657 996.95 362.884 998.182 361.596C999.414 360.308 1000.95 359.664 1002.8 359.664C1004.65 359.664 1006.11 360.224 1007.2 361.344C1008.28 362.464 1008.82 364.097 1008.82 366.244C1008.82 366.767 1008.76 367.439 1008.63 368.26H999.722C999.964 369.287 1000.47 370.071 1001.23 370.612C1002.02 371.153 1002.99 371.424 1004.15 371.424C1005.64 371.424 1006.9 371.051 1007.93 370.304ZM1015.37 359.804V362.324C1016.02 360.569 1017.22 359.692 1018.95 359.692C1019.35 359.692 1019.66 359.72 1019.91 359.776V363.024C1019.48 362.837 1019 362.744 1018.48 362.744C1017.56 362.744 1016.82 363.117 1016.24 363.864C1015.66 364.611 1015.37 365.544 1015.37 366.664V374H1011.98L1012.01 359.804H1015.37ZM783.488 390.04V396.2H785.84C786.923 396.2 787.735 395.929 788.276 395.388C788.817 394.828 789.088 394.053 789.088 393.064C789.088 392.093 788.799 391.347 788.22 390.824C787.66 390.301 786.848 390.04 785.784 390.04H783.488ZM789.704 406L785.42 399.112H783.488V406H779.96V387.128H785.784C787.931 387.128 789.611 387.669 790.824 388.752C792.056 389.835 792.672 391.281 792.672 393.092C792.653 394.436 792.327 395.575 791.692 396.508C791.057 397.423 790.189 398.104 789.088 398.552L793.932 406H789.704ZM804.948 397.74V397.32C804.911 396.405 804.659 395.677 804.192 395.136C803.744 394.576 803.082 394.296 802.204 394.296C801.402 394.296 800.702 394.595 800.104 395.192C799.526 395.771 799.152 396.62 798.984 397.74H804.948ZM807.244 402.304V405.216C806.255 405.832 804.827 406.14 802.96 406.14C800.702 406.14 798.919 405.468 797.612 404.124C796.306 402.78 795.652 401.044 795.652 398.916C795.652 396.657 796.268 394.884 797.5 393.596C798.732 392.308 800.272 391.664 802.12 391.664C803.968 391.664 805.434 392.224 806.516 393.344C807.599 394.464 808.14 396.097 808.14 398.244C808.14 398.767 808.075 399.439 807.944 400.26H799.04C799.283 401.287 799.787 402.071 800.552 402.612C801.336 403.153 802.307 403.424 803.464 403.424C804.958 403.424 806.218 403.051 807.244 402.304ZM817.433 403.312C818.441 403.312 819.281 402.929 819.953 402.164C820.625 401.38 820.961 400.251 820.961 398.776C820.961 397.339 820.606 396.265 819.897 395.556C819.187 394.828 818.375 394.464 817.461 394.464C816.49 394.464 815.669 394.865 814.997 395.668C814.343 396.452 814.017 397.553 814.017 398.972C814.017 400.26 814.343 401.305 814.997 402.108C815.65 402.911 816.462 403.312 817.433 403.312ZM820.961 386.204H824.321V406H820.961V403.788C819.99 405.393 818.553 406.196 816.649 406.196C814.782 406.196 813.298 405.487 812.197 404.068C811.114 402.649 810.573 400.932 810.573 398.916C810.573 396.676 811.142 394.903 812.281 393.596C813.438 392.271 814.913 391.608 816.705 391.608C818.553 391.608 819.971 392.401 820.961 393.988V386.204ZM836.846 391.804H840.234V406H836.846V403.676C836.099 405.319 834.643 406.14 832.478 406.14C831.04 406.14 829.92 405.729 829.118 404.908C828.315 404.087 827.914 402.92 827.914 401.408V391.804H831.274V400.624C831.274 401.52 831.488 402.201 831.918 402.668C832.366 403.135 832.972 403.368 833.738 403.368C834.708 403.368 835.464 403.041 836.006 402.388C836.566 401.735 836.846 400.745 836.846 399.42V391.804ZM846.674 398.944C846.711 400.288 847.112 401.371 847.878 402.192C848.662 403.013 849.716 403.424 851.042 403.424C852.199 403.424 853.272 403.107 854.262 402.472V405.384C853.272 405.963 852.04 406.252 850.566 406.252C848.382 406.252 846.608 405.561 845.246 404.18C843.902 402.799 843.23 401.053 843.23 398.944C843.248 396.872 843.92 395.127 845.246 393.708C846.59 392.289 848.419 391.58 850.734 391.58C852.115 391.58 853.291 391.841 854.262 392.364V395.332C853.328 394.735 852.264 394.436 851.07 394.436C849.763 394.436 848.708 394.847 847.906 395.668C847.103 396.489 846.692 397.581 846.674 398.944ZM861.326 394.324V401.548C861.326 402.145 861.485 402.603 861.802 402.92C862.119 403.219 862.558 403.368 863.118 403.368C863.827 403.368 864.481 403.172 865.078 402.78V405.664C864.425 405.981 863.585 406.14 862.558 406.14C859.497 406.14 857.966 404.591 857.966 401.492V394.324H855.838V391.804H857.966V388.388H861.326V391.804H864.854V394.324H861.326ZM868.087 406V391.804H871.447V406H868.087ZM867.751 387.548C867.751 386.988 867.947 386.512 868.339 386.12C868.731 385.728 869.207 385.532 869.767 385.532C870.327 385.532 870.803 385.728 871.195 386.12C871.587 386.512 871.783 386.988 871.783 387.548C871.783 388.127 871.587 388.612 871.195 389.004C870.803 389.396 870.327 389.592 869.767 389.592C869.207 389.592 868.731 389.396 868.339 389.004C867.947 388.612 867.751 388.127 867.751 387.548ZM881.397 406.224C879.25 406.224 877.57 405.552 876.357 404.208C875.162 402.864 874.565 401.147 874.565 399.056C874.565 396.891 875.19 395.108 876.441 393.708C877.691 392.289 879.343 391.58 881.397 391.58C883.581 391.58 885.27 392.271 886.465 393.652C887.659 395.015 888.257 396.751 888.257 398.86C888.257 401.007 887.65 402.771 886.437 404.152C885.242 405.533 883.562 406.224 881.397 406.224ZM881.397 394.324C880.333 394.324 879.511 394.763 878.933 395.64C878.373 396.517 878.093 397.619 878.093 398.944C878.093 400.251 878.382 401.343 878.961 402.22C879.539 403.097 880.361 403.536 881.425 403.536C882.526 403.536 883.357 403.107 883.917 402.248C884.477 401.389 884.757 400.297 884.757 398.972C884.757 397.609 884.486 396.499 883.945 395.64C883.403 394.763 882.554 394.324 881.397 394.324ZM894.613 391.804V394.24C895.415 392.504 896.871 391.636 898.981 391.636C900.399 391.636 901.519 392.065 902.341 392.924C903.162 393.783 903.573 394.996 903.573 396.564V406H900.213V397.264C900.213 396.331 899.989 395.631 899.541 395.164C899.093 394.679 898.486 394.436 897.721 394.436C896.843 394.436 896.106 394.781 895.509 395.472C894.911 396.144 894.613 397.115 894.613 398.384V406H891.253V391.804H894.613Z" fill="url(#paint0_linear_5019_1825)"/>
<path d="M779.408 70V51.128H782.936V70H779.408ZM790.406 55.804V58.24C791.209 56.504 792.665 55.636 794.774 55.636C796.193 55.636 797.313 56.0653 798.134 56.924C798.956 57.7827 799.366 58.996 799.366 60.564V70H796.006V61.264C796.006 60.3307 795.782 59.6307 795.334 59.164C794.886 58.6787 794.28 58.436 793.514 58.436C792.637 58.436 791.9 58.7813 791.302 59.472C790.705 60.144 790.406 61.1147 790.406 62.384V70H787.046V55.804H790.406ZM805.666 62.944C805.704 64.288 806.105 65.3707 806.87 66.192C807.654 67.0133 808.709 67.424 810.034 67.424C811.192 67.424 812.265 67.1067 813.254 66.472V69.384C812.265 69.9627 811.033 70.252 809.558 70.252C807.374 70.252 805.601 69.5613 804.238 68.18C802.894 66.7987 802.222 65.0533 802.222 62.944C802.241 60.872 802.913 59.1267 804.238 57.708C805.582 56.2893 807.412 55.58 809.726 55.58C811.108 55.58 812.284 55.8413 813.254 56.364V59.332C812.321 58.7347 811.257 58.436 810.062 58.436C808.756 58.436 807.701 58.8467 806.898 59.668C806.096 60.4893 805.685 61.5813 805.666 62.944ZM816.371 70V55.804H819.731V70H816.371ZM816.035 51.548C816.035 50.988 816.231 50.512 816.623 50.12C817.015 49.728 817.491 49.532 818.051 49.532C818.611 49.532 819.087 49.728 819.479 50.12C819.871 50.512 820.067 50.988 820.067 51.548C820.067 52.1267 819.871 52.612 819.479 53.004C819.087 53.396 818.611 53.592 818.051 53.592C817.491 53.592 817.015 53.396 816.623 53.004C816.231 52.612 816.035 52.1267 816.035 51.548ZM829.708 67.312C830.716 67.312 831.556 66.9293 832.228 66.164C832.9 65.38 833.236 64.2507 833.236 62.776C833.236 61.3387 832.881 60.2653 832.172 59.556C831.463 58.828 830.651 58.464 829.736 58.464C828.765 58.464 827.944 58.8653 827.272 59.668C826.619 60.452 826.292 61.5533 826.292 62.972C826.292 64.26 826.619 65.3053 827.272 66.108C827.925 66.9107 828.737 67.312 829.708 67.312ZM833.236 50.204H836.596V70H833.236V67.788C832.265 69.3933 830.828 70.196 828.924 70.196C827.057 70.196 825.573 69.4867 824.472 68.068C823.389 66.6493 822.848 64.932 822.848 62.916C822.848 60.676 823.417 58.9027 824.556 57.596C825.713 56.2707 827.188 55.608 828.98 55.608C830.828 55.608 832.247 56.4013 833.236 57.988V50.204ZM848.869 61.74V61.32C848.832 60.4053 848.58 59.6773 848.113 59.136C847.665 58.576 847.002 58.296 846.125 58.296C845.322 58.296 844.622 58.5947 844.025 59.192C843.446 59.7707 843.073 60.62 842.905 61.74H848.869ZM851.165 66.304V69.216C850.176 69.832 848.748 70.14 846.881 70.14C844.622 70.14 842.84 69.468 841.533 68.124C840.226 66.78 839.573 65.044 839.573 62.916C839.573 60.6573 840.189 58.884 841.421 57.596C842.653 56.308 844.193 55.664 846.041 55.664C847.889 55.664 849.354 56.224 850.437 57.344C851.52 58.464 852.061 60.0973 852.061 62.244C852.061 62.7667 851.996 63.4387 851.865 64.26H842.961C843.204 65.2867 843.708 66.0707 844.473 66.612C845.257 67.1533 846.228 67.424 847.385 67.424C848.878 67.424 850.138 67.0507 851.165 66.304ZM858.609 55.804V58.24C859.412 56.504 860.868 55.636 862.977 55.636C864.396 55.636 865.516 56.0653 866.337 56.924C867.159 57.7827 867.569 58.996 867.569 60.564V70H864.209V61.264C864.209 60.3307 863.985 59.6307 863.537 59.164C863.089 58.6787 862.483 58.436 861.717 58.436C860.84 58.436 860.103 58.7813 859.505 59.472C858.908 60.144 858.609 61.1147 858.609 62.384V70H855.249V55.804H858.609ZM875.269 58.324V65.548C875.269 66.1453 875.428 66.6027 875.745 66.92C876.063 67.2187 876.501 67.368 877.061 67.368C877.771 67.368 878.424 67.172 879.021 66.78V69.664C878.368 69.9813 877.528 70.14 876.501 70.14C873.44 70.14 871.909 68.5907 871.909 65.492V58.324H869.781V55.804H871.909V52.388H875.269V55.804H878.797V58.324H875.269ZM892.604 66.864H899.968V70H889.076V51.128H892.604V66.864ZM911.139 61.74V61.32C911.101 60.4053 910.849 59.6773 910.383 59.136C909.935 58.576 909.272 58.296 908.395 58.296C907.592 58.296 906.892 58.5947 906.295 59.192C905.716 59.7707 905.343 60.62 905.175 61.74H911.139ZM913.435 66.304V69.216C912.445 69.832 911.017 70.14 909.151 70.14C906.892 70.14 905.109 69.468 903.803 68.124C902.496 66.78 901.843 65.044 901.843 62.916C901.843 60.6573 902.459 58.884 903.691 57.596C904.923 56.308 906.463 55.664 908.311 55.664C910.159 55.664 911.624 56.224 912.707 57.344C913.789 58.464 914.331 60.0973 914.331 62.244C914.331 62.7667 914.265 63.4387 914.135 64.26H905.231C905.473 65.2867 905.977 66.0707 906.743 66.612C907.527 67.1533 908.497 67.424 909.655 67.424C911.148 67.424 912.408 67.0507 913.435 66.304ZM921.187 70L916.063 55.804H919.591L921.467 61.824C921.84 63 922.158 64.0547 922.419 64.988C922.68 65.9027 922.848 66.528 922.923 66.864L923.007 67.368C923.194 66.3227 923.726 64.4747 924.603 61.824L926.563 55.804H930.035L924.827 70H921.187ZM940.842 61.74V61.32C940.805 60.4053 940.553 59.6773 940.086 59.136C939.638 58.576 938.976 58.296 938.098 58.296C937.296 58.296 936.596 58.5947 935.998 59.192C935.42 59.7707 935.046 60.62 934.878 61.74H940.842ZM943.138 66.304V69.216C942.149 69.832 940.721 70.14 938.854 70.14C936.596 70.14 934.813 69.468 933.506 68.124C932.2 66.78 931.546 65.044 931.546 62.916C931.546 60.6573 932.162 58.884 933.394 57.596C934.626 56.308 936.166 55.664 938.014 55.664C939.862 55.664 941.328 56.224 942.41 57.344C943.493 58.464 944.034 60.0973 944.034 62.244C944.034 62.7667 943.969 63.4387 943.838 64.26H934.934C935.177 65.2867 935.681 66.0707 936.446 66.612C937.23 67.1533 938.201 67.424 939.358 67.424C940.852 67.424 942.112 67.0507 943.138 66.304ZM947.363 70V50.204H950.723V70H947.363ZM806.856 86.04V92.2H809.208C810.29 92.2 811.102 91.9293 811.644 91.388C812.185 90.828 812.456 90.0533 812.456 89.064C812.456 88.0933 812.166 87.3467 811.588 86.824C811.028 86.3013 810.216 86.04 809.152 86.04H806.856ZM813.072 102L808.788 95.112H806.856V102H803.328V83.128H809.152C811.298 83.128 812.978 83.6693 814.192 84.752C815.424 85.8347 816.04 87.2813 816.04 89.092C816.021 90.436 815.694 91.5747 815.06 92.508C814.425 93.4227 813.557 94.104 812.456 94.552L817.3 102H813.072ZM828.316 93.74V93.32C828.279 92.4053 828.027 91.6773 827.56 91.136C827.112 90.576 826.449 90.296 825.572 90.296C824.769 90.296 824.069 90.5947 823.472 91.192C822.893 91.7707 822.52 92.62 822.352 93.74H828.316ZM830.612 98.304V101.216C829.623 101.832 828.195 102.14 826.328 102.14C824.069 102.14 822.287 101.468 820.98 100.124C819.673 98.78 819.02 97.044 819.02 94.916C819.02 92.6573 819.636 90.884 820.868 89.596C822.1 88.308 823.64 87.664 825.488 87.664C827.336 87.664 828.801 88.224 829.884 89.344C830.967 90.464 831.508 92.0973 831.508 94.244C831.508 94.7667 831.443 95.4387 831.312 96.26H822.408C822.651 97.2867 823.155 98.0707 823.92 98.612C824.704 99.1533 825.675 99.424 826.832 99.424C828.325 99.424 829.585 99.0507 830.612 98.304ZM840.8 99.312C841.808 99.312 842.648 98.9293 843.32 98.164C843.992 97.38 844.328 96.2507 844.328 94.776C844.328 93.3387 843.974 92.2653 843.264 91.556C842.555 90.828 841.743 90.464 840.828 90.464C839.858 90.464 839.036 90.8653 838.364 91.668C837.711 92.452 837.384 93.5533 837.384 94.972C837.384 96.26 837.711 97.3053 838.364 98.108C839.018 98.9107 839.83 99.312 840.8 99.312ZM844.328 82.204H847.688V102H844.328V99.788C843.358 101.393 841.92 102.196 840.016 102.196C838.15 102.196 836.666 101.487 835.564 100.068C834.482 98.6493 833.94 96.932 833.94 94.916C833.94 92.676 834.51 90.9027 835.648 89.596C836.806 88.2707 838.28 87.608 840.072 87.608C841.92 87.608 843.339 88.4013 844.328 89.988V82.204ZM860.213 87.804H863.601V102H860.213V99.676C859.466 101.319 858.01 102.14 855.845 102.14C854.408 102.14 853.288 101.729 852.485 100.908C851.682 100.087 851.281 98.92 851.281 97.408V87.804H854.641V96.624C854.641 97.52 854.856 98.2013 855.285 98.668C855.733 99.1347 856.34 99.368 857.105 99.368C858.076 99.368 858.832 99.0413 859.373 98.388C859.933 97.7347 860.213 96.7453 860.213 95.42V87.804ZM870.041 94.944C870.079 96.288 870.48 97.3707 871.245 98.192C872.029 99.0133 873.084 99.424 874.409 99.424C875.567 99.424 876.64 99.1067 877.629 98.472V101.384C876.64 101.963 875.408 102.252 873.933 102.252C871.749 102.252 869.976 101.561 868.613 100.18C867.269 98.7987 866.597 97.0533 866.597 94.944C866.616 92.872 867.288 91.1267 868.613 89.708C869.957 88.2893 871.787 87.58 874.101 87.58C875.483 87.58 876.659 87.8413 877.629 88.364V91.332C876.696 90.7347 875.632 90.436 874.437 90.436C873.131 90.436 872.076 90.8467 871.273 91.668C870.471 92.4893 870.06 93.5813 870.041 94.944ZM884.694 90.324V97.548C884.694 98.1453 884.852 98.6027 885.17 98.92C885.487 99.2187 885.926 99.368 886.486 99.368C887.195 99.368 887.848 99.172 888.446 98.78V101.664C887.792 101.981 886.952 102.14 885.926 102.14C882.864 102.14 881.334 100.591 881.334 97.492V90.324H879.206V87.804H881.334V84.388H884.694V87.804H888.222V90.324H884.694ZM891.455 102V87.804H894.815V102H891.455ZM891.119 83.548C891.119 82.988 891.315 82.512 891.707 82.12C892.099 81.728 892.575 81.532 893.135 81.532C893.695 81.532 894.171 81.728 894.563 82.12C894.955 82.512 895.151 82.988 895.151 83.548C895.151 84.1267 894.955 84.612 894.563 85.004C894.171 85.396 893.695 85.592 893.135 85.592C892.575 85.592 892.099 85.396 891.707 85.004C891.315 84.612 891.119 84.1267 891.119 83.548ZM904.764 102.224C902.618 102.224 900.938 101.552 899.724 100.208C898.53 98.864 897.932 97.1467 897.932 95.056C897.932 92.8907 898.558 91.108 899.808 89.708C901.059 88.2893 902.711 87.58 904.764 87.58C906.948 87.58 908.638 88.2707 909.832 89.652C911.027 91.0147 911.624 92.7507 911.624 94.86C911.624 97.0067 911.018 98.7707 909.804 100.152C908.61 101.533 906.93 102.224 904.764 102.224ZM904.764 90.324C903.7 90.324 902.879 90.7627 902.3 91.64C901.74 92.5173 901.46 93.6187 901.46 94.944C901.46 96.2507 901.75 97.3427 902.328 98.22C902.907 99.0973 903.728 99.536 904.792 99.536C905.894 99.536 906.724 99.1067 907.284 98.248C907.844 97.3893 908.124 96.2973 908.124 94.972C908.124 93.6093 907.854 92.4987 907.312 91.64C906.771 90.7627 905.922 90.324 904.764 90.324ZM917.98 87.804V90.24C918.783 88.504 920.239 87.636 922.348 87.636C923.767 87.636 924.887 88.0653 925.708 88.924C926.53 89.7827 926.94 90.996 926.94 92.564V102H923.58V93.264C923.58 92.3307 923.356 91.6307 922.908 91.164C922.46 90.6787 921.854 90.436 921.088 90.436C920.211 90.436 919.474 90.7813 918.876 91.472C918.279 92.144 917.98 93.1147 917.98 94.384V102H914.62V87.804H917.98Z" fill="url(#paint1_linear_5019_1825)"/>
<path d="M5.97004 258.06H8.46204C10.4407 258.06 11.9434 257.453 12.97 256.24C13.9967 255.008 14.51 253.365 14.51 251.312C14.51 249.501 13.9594 248.017 12.858 246.86C11.7754 245.684 10.2914 245.096 8.40604 245.096H5.97004V258.06ZM2.35804 242.128H8.51804C11.3367 242.128 13.642 242.996 15.434 244.732C17.226 246.468 18.122 248.661 18.122 251.312C18.122 254.205 17.254 256.548 15.518 258.34C13.782 260.113 11.4487 261 8.51804 261H2.35804V242.128ZM27.2886 261.224C25.1419 261.224 23.4619 260.552 22.2486 259.208C21.0539 257.864 20.4566 256.147 20.4566 254.056C20.4566 251.891 21.0819 250.108 22.3326 248.708C23.5832 247.289 25.2352 246.58 27.2886 246.58C29.4726 246.58 31.1619 247.271 32.3566 248.652C33.5512 250.015 34.1486 251.751 34.1486 253.86C34.1486 256.007 33.5419 257.771 32.3286 259.152C31.1339 260.533 29.4539 261.224 27.2886 261.224ZM27.2886 249.324C26.2246 249.324 25.4032 249.763 24.8246 250.64C24.2646 251.517 23.9846 252.619 23.9846 253.944C23.9846 255.251 24.2739 256.343 24.8526 257.22C25.4312 258.097 26.2526 258.536 27.3166 258.536C28.4179 258.536 29.2486 258.107 29.8086 257.248C30.3686 256.389 30.6486 255.297 30.6486 253.972C30.6486 252.609 30.3779 251.499 29.8366 250.64C29.2952 249.763 28.4459 249.324 27.2886 249.324ZM40.1686 261L35.6886 246.804H39.1886L40.4766 251.48C40.8499 252.824 41.1579 254.028 41.4006 255.092C41.6619 256.137 41.8206 256.847 41.8766 257.22L41.9886 257.78C42.1753 256.641 42.7166 254.541 43.6126 251.48L44.9846 246.804H48.0366L49.4086 251.48C49.8193 252.861 50.1553 254.084 50.4166 255.148C50.6966 256.193 50.8739 256.893 50.9486 257.248L51.0326 257.808C51.2193 256.707 51.7699 254.597 52.6846 251.48L54.0286 246.804H57.3886L52.8806 261H49.2406L47.9806 256.352C47.6446 255.139 47.3553 254.037 47.1126 253.048C46.8699 252.04 46.7113 251.349 46.6366 250.976L46.5246 250.388C46.2819 251.62 45.7966 253.608 45.0686 256.352L43.8086 261H40.1686ZM63.0265 246.804V249.24C63.8291 247.504 65.2851 246.636 67.3945 246.636C68.8131 246.636 69.9331 247.065 70.7545 247.924C71.5758 248.783 71.9865 249.996 71.9865 251.564V261H68.6265V252.264C68.6265 251.331 68.4025 250.631 67.9545 250.164C67.5065 249.679 66.8998 249.436 66.1345 249.436C65.2571 249.436 64.5198 249.781 63.9225 250.472C63.3251 251.144 63.0265 252.115 63.0265 253.384V261H59.6665V246.804H63.0265ZM79.6865 249.324V256.548C79.6865 257.145 79.8452 257.603 80.1625 257.92C80.4798 258.219 80.9185 258.368 81.4785 258.368C82.1878 258.368 82.8412 258.172 83.4385 257.78V260.664C82.7852 260.981 81.9452 261.14 80.9185 261.14C77.8572 261.14 76.3265 259.591 76.3265 256.492V249.324H74.1985V246.804H76.3265V243.388H79.6865V246.804H83.2145V249.324H79.6865ZM86.4479 261V246.804H89.8079V261H86.4479ZM86.1119 242.548C86.1119 241.988 86.3079 241.512 86.6999 241.12C87.0919 240.728 87.5679 240.532 88.1279 240.532C88.6879 240.532 89.1639 240.728 89.5559 241.12C89.9479 241.512 90.1439 241.988 90.1439 242.548C90.1439 243.127 89.9479 243.612 89.5559 244.004C89.1639 244.396 88.6879 244.592 88.1279 244.592C87.5679 244.592 87.0919 244.396 86.6999 244.004C86.3079 243.612 86.1119 243.127 86.1119 242.548ZM97.0413 246.804V249.044C97.844 247.439 99.1787 246.636 101.045 246.636C103.117 246.636 104.461 247.532 105.077 249.324C105.451 248.465 106.011 247.803 106.757 247.336C107.504 246.869 108.353 246.636 109.305 246.636C110.743 246.636 111.853 247.075 112.637 247.952C113.421 248.811 113.813 250.043 113.813 251.648V261H110.425V252.292C110.425 250.388 109.697 249.436 108.241 249.436C107.513 249.436 106.86 249.753 106.281 250.388C105.721 251.023 105.441 252.021 105.441 253.384V261H102.053V252.292C102.053 250.388 101.325 249.436 99.8693 249.436C99.1413 249.436 98.488 249.753 97.9093 250.388C97.3307 251.023 97.0413 252.021 97.0413 253.384V261H93.6813V246.804H97.0413ZM125.919 252.74V252.32C125.882 251.405 125.63 250.677 125.163 250.136C124.715 249.576 124.052 249.296 123.175 249.296C122.372 249.296 121.672 249.595 121.075 250.192C120.496 250.771 120.123 251.62 119.955 252.74H125.919ZM128.215 257.304V260.216C127.226 260.832 125.798 261.14 123.931 261.14C121.672 261.14 119.89 260.468 118.583 259.124C117.276 257.78 116.623 256.044 116.623 253.916C116.623 251.657 117.239 249.884 118.471 248.596C119.703 247.308 121.243 246.664 123.091 246.664C124.939 246.664 126.404 247.224 127.487 248.344C128.57 249.464 129.111 251.097 129.111 253.244C129.111 253.767 129.046 254.439 128.915 255.26H120.011C120.254 256.287 120.758 257.071 121.523 257.612C122.307 258.153 123.278 258.424 124.435 258.424C125.928 258.424 127.188 258.051 128.215 257.304ZM144.273 253.832H149.593L149.341 252.992C148.706 250.976 148.183 249.287 147.773 247.924C147.381 246.543 147.138 245.675 147.045 245.32L146.933 244.76C146.765 245.693 145.962 248.447 144.525 253.02L144.273 253.832ZM151.833 261L150.489 256.716H143.349L142.005 261H138.309L144.693 242.128H149.257L155.641 261H151.833ZM161.98 261L156.856 246.804H160.384L162.26 252.824C162.633 254 162.95 255.055 163.212 255.988C163.473 256.903 163.641 257.528 163.716 257.864L163.8 258.368C163.986 257.323 164.518 255.475 165.396 252.824L167.356 246.804H170.828L165.62 261H161.98ZM179.171 261.224C177.025 261.224 175.345 260.552 174.131 259.208C172.937 257.864 172.339 256.147 172.339 254.056C172.339 251.891 172.965 250.108 174.215 248.708C175.466 247.289 177.118 246.58 179.171 246.58C181.355 246.58 183.045 247.271 184.239 248.652C185.434 250.015 186.031 251.751 186.031 253.86C186.031 256.007 185.425 257.771 184.211 259.152C183.017 260.533 181.337 261.224 179.171 261.224ZM179.171 249.324C178.107 249.324 177.286 249.763 176.707 250.64C176.147 251.517 175.867 252.619 175.867 253.944C175.867 255.251 176.157 256.343 176.735 257.22C177.314 258.097 178.135 258.536 179.199 258.536C180.301 258.536 181.131 258.107 181.691 257.248C182.251 256.389 182.531 255.297 182.531 253.972C182.531 252.609 182.261 251.499 181.719 250.64C181.178 249.763 180.329 249.324 179.171 249.324ZM189.167 261V246.804H192.527V261H189.167ZM188.831 242.548C188.831 241.988 189.027 241.512 189.419 241.12C189.811 240.728 190.287 240.532 190.847 240.532C191.407 240.532 191.883 240.728 192.275 241.12C192.667 241.512 192.863 241.988 192.863 242.548C192.863 243.127 192.667 243.612 192.275 244.004C191.883 244.396 191.407 244.592 190.847 244.592C190.287 244.592 189.811 244.396 189.419 244.004C189.027 243.612 188.831 243.127 188.831 242.548ZM202.505 258.312C203.513 258.312 204.353 257.929 205.025 257.164C205.697 256.38 206.033 255.251 206.033 253.776C206.033 252.339 205.678 251.265 204.969 250.556C204.26 249.828 203.448 249.464 202.533 249.464C201.562 249.464 200.741 249.865 200.069 250.668C199.416 251.452 199.089 252.553 199.089 253.972C199.089 255.26 199.416 256.305 200.069 257.108C200.722 257.911 201.534 258.312 202.505 258.312ZM206.033 241.204H209.393V261H206.033V258.788C205.062 260.393 203.625 261.196 201.721 261.196C199.854 261.196 198.37 260.487 197.269 259.068C196.186 257.649 195.645 255.932 195.645 253.916C195.645 251.676 196.214 249.903 197.353 248.596C198.51 247.271 199.985 246.608 201.777 246.608C203.625 246.608 205.044 247.401 206.033 248.988V241.204ZM220.378 254.896H218.642C217.765 254.896 217.093 255.083 216.626 255.456C216.159 255.811 215.926 256.268 215.926 256.828C215.926 258.023 216.617 258.62 217.998 258.62C218.745 258.62 219.323 258.405 219.734 257.976C220.163 257.528 220.378 256.949 220.378 256.24V254.896ZM213.49 250.64V247.532C214.554 246.879 216.085 246.552 218.082 246.552C221.927 246.552 223.85 248.344 223.85 251.928V261H220.518V259.292C219.865 260.505 218.633 261.112 216.822 261.112C215.478 261.112 214.405 260.72 213.602 259.936C212.818 259.152 212.426 258.163 212.426 256.968C212.426 255.624 212.93 254.569 213.938 253.804C214.946 253.039 216.402 252.656 218.306 252.656H220.378V251.788C220.378 251.004 220.173 250.407 219.762 249.996C219.351 249.585 218.651 249.38 217.662 249.38C216.15 249.38 214.759 249.8 213.49 250.64ZM230.777 246.804V249.24C231.58 247.504 233.036 246.636 235.145 246.636C236.564 246.636 237.684 247.065 238.505 247.924C239.327 248.783 239.737 249.996 239.737 251.564V261H236.377V252.264C236.377 251.331 236.153 250.631 235.705 250.164C235.257 249.679 234.651 249.436 233.885 249.436C233.008 249.436 232.271 249.781 231.673 250.472C231.076 251.144 230.777 252.115 230.777 253.384V261H227.417V246.804H230.777ZM246.037 253.944C246.075 255.288 246.476 256.371 247.241 257.192C248.025 258.013 249.08 258.424 250.405 258.424C251.563 258.424 252.636 258.107 253.625 257.472V260.384C252.636 260.963 251.404 261.252 249.929 261.252C247.745 261.252 245.972 260.561 244.609 259.18C243.265 257.799 242.593 256.053 242.593 253.944C242.612 251.872 243.284 250.127 244.609 248.708C245.953 247.289 247.783 246.58 250.097 246.58C251.479 246.58 252.655 246.841 253.625 247.364V250.332C252.692 249.735 251.628 249.436 250.433 249.436C249.127 249.436 248.072 249.847 247.269 250.668C246.467 251.489 246.056 252.581 246.037 253.944ZM265.142 252.74V252.32C265.104 251.405 264.852 250.677 264.386 250.136C263.938 249.576 263.275 249.296 262.398 249.296C261.595 249.296 260.895 249.595 260.298 250.192C259.719 250.771 259.346 251.62 259.178 252.74H265.142ZM267.438 257.304V260.216C266.448 260.832 265.02 261.14 263.154 261.14C260.895 261.14 259.112 260.468 257.806 259.124C256.499 257.78 255.846 256.044 255.846 253.916C255.846 251.657 256.462 249.884 257.694 248.596C258.926 247.308 260.466 246.664 262.314 246.664C264.162 246.664 265.627 247.224 266.71 248.344C267.792 249.464 268.334 251.097 268.334 253.244C268.334 253.767 268.268 254.439 268.138 255.26H259.234C259.476 256.287 259.98 257.071 260.746 257.612C261.53 258.153 262.5 258.424 263.658 258.424C265.151 258.424 266.411 258.051 267.438 257.304Z" fill="url(#paint2_linear_5019_1825)"/>
<path d="M37.5934 31V12.128H41.1214V31H37.5934ZM48.5917 16.804V19.24C49.3944 17.504 50.8504 16.636 52.9597 16.636C54.3784 16.636 55.4984 17.0653 56.3197 17.924C57.1411 18.7827 57.5517 19.996 57.5517 21.564V31H54.1917V22.264C54.1917 21.3307 53.9677 20.6307 53.5197 20.164C53.0717 19.6787 52.4651 19.436 51.6997 19.436C50.8224 19.436 50.0851 19.7813 49.4877 20.472C48.8904 21.144 48.5917 22.1147 48.5917 23.384V31H45.2317V16.804H48.5917ZM69.6478 17.252V20.22C68.7144 19.66 67.5478 19.38 66.1478 19.38C65.5691 19.38 65.1118 19.5107 64.7758 19.772C64.4584 20.0147 64.2998 20.332 64.2998 20.724C64.2998 20.8733 64.3184 21.0133 64.3558 21.144C64.4118 21.2747 64.4958 21.4053 64.6078 21.536C64.7384 21.648 64.8598 21.7507 64.9718 21.844C65.0838 21.9373 65.2424 22.04 65.4478 22.152C65.6531 22.2453 65.8304 22.3293 65.9798 22.404C66.1291 22.4787 66.3344 22.572 66.5958 22.684C66.8571 22.796 67.0624 22.8893 67.2118 22.964C68.2011 23.4493 68.9851 23.9907 69.5638 24.588C70.1424 25.1853 70.4318 25.96 70.4318 26.912C70.4318 28.2373 69.9558 29.2733 69.0038 30.02C68.0518 30.7667 66.7824 31.14 65.1958 31.14C63.4411 31.14 62.0224 30.8507 60.9398 30.272V27.192C62.1904 28.032 63.5438 28.452 64.9998 28.452C65.6158 28.452 66.0918 28.34 66.4278 28.116C66.7824 27.8733 66.9598 27.5467 66.9598 27.136C66.9598 26.8933 66.9038 26.6787 66.7918 26.492C66.6798 26.2867 66.4651 26.0907 66.1478 25.904C65.8304 25.7173 65.5784 25.5867 65.3918 25.512C65.2238 25.4187 64.8784 25.26 64.3558 25.036C64.2998 25.0173 64.2531 24.9987 64.2158 24.98C64.1971 24.9613 64.1598 24.9427 64.1038 24.924C64.0478 24.9053 64.0011 24.8867 63.9638 24.868C61.8918 23.9347 60.8558 22.5907 60.8558 20.836C60.8558 19.5293 61.3504 18.5027 62.3398 17.756C63.3291 17.0093 64.5704 16.636 66.0638 16.636C67.5011 16.636 68.6958 16.8413 69.6478 17.252ZM82.005 16.804H85.393V31H82.005V28.676C81.2583 30.3187 79.8023 31.14 77.637 31.14C76.1996 31.14 75.0796 30.7293 74.277 29.908C73.4743 29.0867 73.073 27.92 73.073 26.408V16.804H76.433V25.624C76.433 26.52 76.6476 27.2013 77.077 27.668C77.525 28.1347 78.1316 28.368 78.897 28.368C79.8676 28.368 80.6236 28.0413 81.165 27.388C81.725 26.7347 82.005 25.7453 82.005 24.42V16.804ZM92.505 16.804V19.324C93.1583 17.5693 94.353 16.692 96.089 16.692C96.481 16.692 96.7983 16.72 97.041 16.776V20.024C96.6117 19.8373 96.1357 19.744 95.613 19.744C94.6983 19.744 93.9517 20.1173 93.373 20.864C92.7943 21.6107 92.505 22.544 92.505 23.664V31H89.117L89.145 16.804H92.505ZM106.368 24.896H104.632C103.755 24.896 103.083 25.0827 102.616 25.456C102.149 25.8107 101.916 26.268 101.916 26.828C101.916 28.0227 102.607 28.62 103.988 28.62C104.735 28.62 105.313 28.4053 105.724 27.976C106.153 27.528 106.368 26.9493 106.368 26.24V24.896ZM99.4801 20.64V17.532C100.544 16.8787 102.075 16.552 104.072 16.552C107.917 16.552 109.84 18.344 109.84 21.928V31H106.508V29.292C105.855 30.5053 104.623 31.112 102.812 31.112C101.468 31.112 100.395 30.72 99.5921 29.936C98.8081 29.152 98.4161 28.1627 98.4161 26.968C98.4161 25.624 98.9201 24.5693 99.9281 23.804C100.936 23.0387 102.392 22.656 104.296 22.656H106.368V21.788C106.368 21.004 106.163 20.4067 105.752 19.996C105.341 19.5853 104.641 19.38 103.652 19.38C102.14 19.38 100.749 19.8 99.4801 20.64ZM116.768 16.804V19.24C117.57 17.504 119.026 16.636 121.136 16.636C122.554 16.636 123.674 17.0653 124.496 17.924C125.317 18.7827 125.728 19.996 125.728 21.564V31H122.368V22.264C122.368 21.3307 122.144 20.6307 121.696 20.164C121.248 19.6787 120.641 19.436 119.876 19.436C118.998 19.436 118.261 19.7813 117.664 20.472C117.066 21.144 116.768 22.1147 116.768 23.384V31H113.408V16.804H116.768ZM132.028 23.944C132.065 25.288 132.466 26.3707 133.232 27.192C134.016 28.0133 135.07 28.424 136.396 28.424C137.553 28.424 138.626 28.1067 139.616 27.472V30.384C138.626 30.9627 137.394 31.252 135.92 31.252C133.736 31.252 131.962 30.5613 130.6 29.18C129.256 27.7987 128.584 26.0533 128.584 23.944C128.602 21.872 129.274 20.1267 130.6 18.708C131.944 17.2893 133.773 16.58 136.088 16.58C137.469 16.58 138.645 16.8413 139.616 17.364V20.332C138.682 19.7347 137.618 19.436 136.424 19.436C135.117 19.436 134.062 19.8467 133.26 20.668C132.457 21.4893 132.046 22.5813 132.028 23.944ZM151.132 22.74V22.32C151.095 21.4053 150.843 20.6773 150.376 20.136C149.928 19.576 149.265 19.296 148.388 19.296C147.585 19.296 146.885 19.5947 146.288 20.192C145.709 20.7707 145.336 21.62 145.168 22.74H151.132ZM153.428 27.304V30.216C152.439 30.832 151.011 31.14 149.144 31.14C146.885 31.14 145.103 30.468 143.796 29.124C142.489 27.78 141.836 26.044 141.836 23.916C141.836 21.6573 142.452 19.884 143.684 18.596C144.916 17.308 146.456 16.664 148.304 16.664C150.152 16.664 151.617 17.224 152.7 18.344C153.783 19.464 154.324 21.0973 154.324 23.244C154.324 23.7667 154.259 24.4387 154.128 25.26H145.224C145.467 26.2867 145.971 27.0707 146.736 27.612C147.52 28.1533 148.491 28.424 149.648 28.424C151.141 28.424 152.401 28.0507 153.428 27.304ZM178.446 12.912V16.356C177.027 15.5347 175.459 15.124 173.742 15.124C172.024 15.124 170.587 15.712 169.43 16.888C168.291 18.0453 167.722 19.604 167.722 21.564C167.722 23.524 168.291 25.0827 169.43 26.24C170.587 27.3973 172.09 27.976 173.938 27.976C175.711 27.976 177.223 27.5093 178.474 26.576V30.104C177.316 30.8507 175.692 31.224 173.602 31.224C170.802 31.224 168.487 30.3467 166.658 28.592C164.847 26.8187 163.942 24.476 163.942 21.564C163.942 18.708 164.838 16.384 166.63 14.592C168.44 12.7813 170.764 11.876 173.602 11.876C175.674 11.876 177.288 12.2213 178.446 12.912ZM187.796 31.224C185.649 31.224 183.969 30.552 182.756 29.208C181.561 27.864 180.964 26.1467 180.964 24.056C180.964 21.8907 181.589 20.108 182.84 18.708C184.091 17.2893 185.743 16.58 187.796 16.58C189.98 16.58 191.669 17.2707 192.864 18.652C194.059 20.0147 194.656 21.7507 194.656 23.86C194.656 26.0067 194.049 27.7707 192.836 29.152C191.641 30.5333 189.961 31.224 187.796 31.224ZM187.796 19.324C186.732 19.324 185.911 19.7627 185.332 20.64C184.772 21.5173 184.492 22.6187 184.492 23.944C184.492 25.2507 184.781 26.3427 185.36 27.22C185.939 28.0973 186.76 28.536 187.824 28.536C188.925 28.536 189.756 28.1067 190.316 27.248C190.876 26.3893 191.156 25.2973 191.156 23.972C191.156 22.6093 190.885 21.4987 190.344 20.64C189.803 19.7627 188.953 19.324 187.796 19.324ZM206.136 17.252V20.22C205.203 19.66 204.036 19.38 202.636 19.38C202.057 19.38 201.6 19.5107 201.264 19.772C200.947 20.0147 200.788 20.332 200.788 20.724C200.788 20.8733 200.807 21.0133 200.844 21.144C200.9 21.2747 200.984 21.4053 201.096 21.536C201.227 21.648 201.348 21.7507 201.46 21.844C201.572 21.9373 201.731 22.04 201.936 22.152C202.141 22.2453 202.319 22.3293 202.468 22.404C202.617 22.4787 202.823 22.572 203.084 22.684C203.345 22.796 203.551 22.8893 203.7 22.964C204.689 23.4493 205.473 23.9907 206.052 24.588C206.631 25.1853 206.92 25.96 206.92 26.912C206.92 28.2373 206.444 29.2733 205.492 30.02C204.54 30.7667 203.271 31.14 201.684 31.14C199.929 31.14 198.511 30.8507 197.428 30.272V27.192C198.679 28.032 200.032 28.452 201.488 28.452C202.104 28.452 202.58 28.34 202.916 28.116C203.271 27.8733 203.448 27.5467 203.448 27.136C203.448 26.8933 203.392 26.6787 203.28 26.492C203.168 26.2867 202.953 26.0907 202.636 25.904C202.319 25.7173 202.067 25.5867 201.88 25.512C201.712 25.4187 201.367 25.26 200.844 25.036C200.788 25.0173 200.741 24.9987 200.704 24.98C200.685 24.9613 200.648 24.9427 200.592 24.924C200.536 24.9053 200.489 24.8867 200.452 24.868C198.38 23.9347 197.344 22.5907 197.344 20.836C197.344 19.5293 197.839 18.5027 198.828 17.756C199.817 17.0093 201.059 16.636 202.552 16.636C203.989 16.636 205.184 16.8413 206.136 17.252ZM213.789 19.324V26.548C213.789 27.1453 213.948 27.6027 214.265 27.92C214.583 28.2187 215.021 28.368 215.581 28.368C216.291 28.368 216.944 28.172 217.541 27.78V30.664C216.888 30.9813 216.048 31.14 215.021 31.14C211.96 31.14 210.429 29.5907 210.429 26.492V19.324H208.301V16.804H210.429V13.388H213.789V16.804H217.317V19.324H213.789ZM68.8556 47.04V53.2H71.2076C72.2902 53.2 73.1022 52.9293 73.6436 52.388C74.1849 51.828 74.4556 51.0533 74.4556 50.064C74.4556 49.0933 74.1662 48.3467 73.5876 47.824C73.0276 47.3013 72.2156 47.04 71.1516 47.04H68.8556ZM75.0716 63L70.7876 56.112H68.8556V63H65.3276V44.128H71.1516C73.2982 44.128 74.9782 44.6693 76.1916 45.752C77.4236 46.8347 78.0396 48.2813 78.0396 50.092C78.0209 51.436 77.6942 52.5747 77.0596 53.508C76.4249 54.4227 75.5569 55.104 74.4556 55.552L79.2996 63H75.0716ZM90.3159 54.74V54.32C90.2785 53.4053 90.0265 52.6773 89.5599 52.136C89.1119 51.576 88.4492 51.296 87.5719 51.296C86.7692 51.296 86.0692 51.5947 85.4719 52.192C84.8932 52.7707 84.5199 53.62 84.3519 54.74H90.3159ZM92.6119 59.304V62.216C91.6225 62.832 90.1945 63.14 88.3279 63.14C86.0692 63.14 84.2865 62.468 82.9799 61.124C81.6732 59.78 81.0199 58.044 81.0199 55.916C81.0199 53.6573 81.6359 51.884 82.8679 50.596C84.0999 49.308 85.6399 48.664 87.4879 48.664C89.3359 48.664 90.8012 49.224 91.8839 50.344C92.9665 51.464 93.5079 53.0973 93.5079 55.244C93.5079 55.7667 93.4425 56.4387 93.3119 57.26H84.4079C84.6505 58.2867 85.1545 59.0707 85.9199 59.612C86.7039 60.1533 87.6745 60.424 88.8319 60.424C90.3252 60.424 91.5852 60.0507 92.6119 59.304ZM102.8 60.312C103.808 60.312 104.648 59.9293 105.32 59.164C105.992 58.38 106.328 57.2507 106.328 55.776C106.328 54.3387 105.974 53.2653 105.264 52.556C104.555 51.828 103.743 51.464 102.828 51.464C101.858 51.464 101.036 51.8653 100.364 52.668C99.7108 53.452 99.3842 54.5533 99.3842 55.972C99.3842 57.26 99.7108 58.3053 100.364 59.108C101.018 59.9107 101.83 60.312 102.8 60.312ZM106.328 43.204H109.688V63H106.328V60.788C105.358 62.3933 103.92 63.196 102.016 63.196C100.15 63.196 98.6655 62.4867 97.5642 61.068C96.4815 59.6493 95.9402 57.932 95.9402 55.916C95.9402 53.676 96.5095 51.9027 97.6482 50.596C98.8055 49.2707 100.28 48.608 102.072 48.608C103.92 48.608 105.339 49.4013 106.328 50.988V43.204ZM122.213 48.804H125.601V63H122.213V60.676C121.466 62.3187 120.01 63.14 117.845 63.14C116.408 63.14 115.288 62.7293 114.485 61.908C113.682 61.0867 113.281 59.92 113.281 58.408V48.804H116.641V57.624C116.641 58.52 116.856 59.2013 117.285 59.668C117.733 60.1347 118.34 60.368 119.105 60.368C120.076 60.368 120.832 60.0413 121.373 59.388C121.933 58.7347 122.213 57.7453 122.213 56.42V48.804ZM132.041 55.944C132.079 57.288 132.48 58.3707 133.245 59.192C134.029 60.0133 135.084 60.424 136.409 60.424C137.567 60.424 138.64 60.1067 139.629 59.472V62.384C138.64 62.9627 137.408 63.252 135.933 63.252C133.749 63.252 131.976 62.5613 130.613 61.18C129.269 59.7987 128.597 58.0533 128.597 55.944C128.616 53.872 129.288 52.1267 130.613 50.708C131.957 49.2893 133.787 48.58 136.101 48.58C137.483 48.58 138.659 48.8413 139.629 49.364V52.332C138.696 51.7347 137.632 51.436 136.437 51.436C135.131 51.436 134.076 51.8467 133.273 52.668C132.471 53.4893 132.06 54.5813 132.041 55.944ZM146.694 51.324V58.548C146.694 59.1453 146.852 59.6027 147.17 59.92C147.487 60.2187 147.926 60.368 148.486 60.368C149.195 60.368 149.848 60.172 150.446 59.78V62.664C149.792 62.9813 148.952 63.14 147.926 63.14C144.864 63.14 143.334 61.5907 143.334 58.492V51.324H141.206V48.804H143.334V45.388H146.694V48.804H150.222V51.324H146.694ZM153.455 63V48.804H156.815V63H153.455ZM153.119 44.548C153.119 43.988 153.315 43.512 153.707 43.12C154.099 42.728 154.575 42.532 155.135 42.532C155.695 42.532 156.171 42.728 156.563 43.12C156.955 43.512 157.151 43.988 157.151 44.548C157.151 45.1267 156.955 45.612 156.563 46.004C156.171 46.396 155.695 46.592 155.135 46.592C154.575 46.592 154.099 46.396 153.707 46.004C153.315 45.612 153.119 45.1267 153.119 44.548ZM166.764 63.224C164.618 63.224 162.938 62.552 161.724 61.208C160.53 59.864 159.932 58.1467 159.932 56.056C159.932 53.8907 160.558 52.108 161.808 50.708C163.059 49.2893 164.711 48.58 166.764 48.58C168.948 48.58 170.638 49.2707 171.832 50.652C173.027 52.0147 173.624 53.7507 173.624 55.86C173.624 58.0067 173.018 59.7707 171.804 61.152C170.61 62.5333 168.93 63.224 166.764 63.224ZM166.764 51.324C165.7 51.324 164.879 51.7627 164.3 52.64C163.74 53.5173 163.46 54.6187 163.46 55.944C163.46 57.2507 163.75 58.3427 164.328 59.22C164.907 60.0973 165.728 60.536 166.792 60.536C167.894 60.536 168.724 60.1067 169.284 59.248C169.844 58.3893 170.124 57.2973 170.124 55.972C170.124 54.6093 169.854 53.4987 169.312 52.64C168.771 51.7627 167.922 51.324 166.764 51.324ZM179.98 48.804V51.24C180.783 49.504 182.239 48.636 184.348 48.636C185.767 48.636 186.887 49.0653 187.708 49.924C188.53 50.7827 188.94 51.996 188.94 53.564V63H185.58V54.264C185.58 53.3307 185.356 52.6307 184.908 52.164C184.46 51.6787 183.854 51.436 183.088 51.436C182.211 51.436 181.474 51.7813 180.876 52.472C180.279 53.144 179.98 54.1147 179.98 55.384V63H176.62V48.804H179.98Z" fill="url(#paint3_linear_5019_1825)"/>
<path d="M454.25 180V159.78H458.87V180H454.25ZM474.831 160.68V165C473.211 164.06 471.531 163.59 469.791 163.59C469.011 163.59 468.411 163.75 467.991 164.07C467.591 164.39 467.391 164.8 467.391 165.3C467.391 165.8 467.641 166.25 468.141 166.65C468.641 167.03 469.391 167.44 470.391 167.88C471.011 168.16 471.521 168.41 471.921 168.63C472.341 168.83 472.811 169.12 473.331 169.5C473.871 169.86 474.291 170.25 474.591 170.67C474.911 171.07 475.181 171.57 475.401 172.17C475.621 172.77 475.731 173.42 475.731 174.12C475.731 175.94 475.061 177.42 473.721 178.56C472.381 179.68 470.601 180.24 468.381 180.24C466.001 180.24 464.061 179.82 462.561 178.98V174.33C464.381 175.65 466.321 176.31 468.381 176.31C469.081 176.31 469.661 176.13 470.121 175.77C470.581 175.39 470.811 174.9 470.811 174.3C470.811 174.1 470.781 173.91 470.721 173.73C470.661 173.55 470.551 173.38 470.391 173.22C470.231 173.06 470.071 172.93 469.911 172.83C469.771 172.71 469.551 172.58 469.251 172.44C468.971 172.28 468.731 172.15 468.531 172.05C468.331 171.95 468.031 171.81 467.631 171.63C467.251 171.45 466.941 171.31 466.701 171.21C465.401 170.61 464.351 169.87 463.551 168.99C462.771 168.11 462.381 166.94 462.381 165.48C462.381 163.74 463.021 162.34 464.301 161.28C465.581 160.2 467.351 159.66 469.611 159.66C471.631 159.66 473.371 160 474.831 160.68ZM477.921 169.83C477.921 166.73 478.811 164.23 480.591 162.33C482.391 160.41 484.781 159.45 487.761 159.45C490.761 159.45 493.151 160.4 494.931 162.3C496.711 164.2 497.601 166.71 497.601 169.83C497.601 172.93 496.701 175.44 494.901 177.36C493.121 179.26 490.741 180.21 487.761 180.21C484.761 180.21 482.371 179.26 480.591 177.36C478.811 175.46 477.921 172.95 477.921 169.83ZM484.191 165.33C483.311 166.43 482.871 167.93 482.871 169.83C482.871 171.73 483.311 173.24 484.191 174.36C485.071 175.46 486.261 176.01 487.761 176.01C489.261 176.01 490.451 175.46 491.331 174.36C492.211 173.24 492.651 171.73 492.651 169.83C492.651 167.93 492.211 166.43 491.331 165.33C490.451 164.21 489.261 163.65 487.761 163.65C486.261 163.65 485.071 164.21 484.191 165.33Z" fill="#1C75BC"/>
<path d="M442.19 205.11H446.51V196.23L442.19 205.11ZM453.26 205.11V208.83H450.86V213H446.51V208.83H437.9V205.11L443.9 193.32H450.86V205.11H453.26ZM460.096 197.04V200.37C460.536 200.31 460.976 200.28 461.416 200.28C463.556 200.28 465.196 200.83 466.336 201.93C467.476 203.03 468.046 204.53 468.046 206.43C468.046 208.47 467.366 210.11 466.006 211.35C464.666 212.57 462.756 213.18 460.276 213.18C458.096 213.18 456.336 212.83 454.996 212.13V207.99C456.356 208.83 457.876 209.25 459.556 209.25C462.236 209.25 463.576 208.29 463.576 206.37C463.576 205.65 463.296 205.08 462.736 204.66C462.196 204.24 461.376 204.03 460.276 204.03C458.736 204.03 457.256 204.36 455.836 205.02V193.32H466.846V197.04H460.096ZM470.096 203.1C470.096 199.98 470.696 197.51 471.896 195.69C473.096 193.87 474.876 192.96 477.236 192.96C479.596 192.96 481.376 193.87 482.576 195.69C483.796 197.51 484.406 199.98 484.406 203.1C484.406 206.18 483.796 208.64 482.576 210.48C481.376 212.32 479.596 213.24 477.236 213.24C474.876 213.24 473.096 212.33 471.896 210.51C470.696 208.67 470.096 206.2 470.096 203.1ZM477.236 196.86C475.456 196.86 474.566 198.94 474.566 203.1C474.566 207.26 475.456 209.34 477.236 209.34C479.036 209.34 479.936 207.26 479.936 203.1C479.936 198.94 479.036 196.86 477.236 196.86ZM486.602 203.1C486.602 199.98 487.202 197.51 488.402 195.69C489.602 193.87 491.382 192.96 493.742 192.96C496.102 192.96 497.882 193.87 499.082 195.69C500.302 197.51 500.912 199.98 500.912 203.1C500.912 206.18 500.302 208.64 499.082 210.48C497.882 212.32 496.102 213.24 493.742 213.24C491.382 213.24 489.602 212.33 488.402 210.51C487.202 208.67 486.602 206.2 486.602 203.1ZM493.742 196.86C491.962 196.86 491.072 198.94 491.072 203.1C491.072 207.26 491.962 209.34 493.742 209.34C495.542 209.34 496.442 207.26 496.442 203.1C496.442 198.94 495.542 196.86 493.742 196.86ZM502.358 201.06V196.59L507.878 193.38H511.658V213H507.308V198.09L502.358 201.06Z" fill="#1C75BC"/>
<path fill-rule="evenodd" clip-rule="evenodd" d="M578.63 308.402C580.867 308.468 582.735 306.707 582.802 304.468L582.998 297.926C583.065 295.686 581.304 293.815 579.065 293.749L577.041 293.689C575.128 293.633 573.538 292.237 573.021 290.392C572.714 289.294 572.35 288.203 571.93 287.123C571.23 285.324 571.678 283.235 573.198 282.046L574.711 280.862C576.487 279.471 576.789 276.898 575.382 275.134L571.268 269.976C569.881 268.237 567.354 267.94 565.602 269.311L563.976 270.583C562.479 271.754 560.383 271.707 558.812 270.637C557.834 269.971 556.826 269.356 555.792 268.792C554.099 267.869 553.098 265.986 553.492 264.098L553.882 262.231C554.342 260.032 552.928 257.878 550.728 257.427L544.182 256.083C541.995 255.635 539.857 257.04 539.399 259.226L538.997 261.143C538.604 263.02 536.948 264.341 535.04 264.519C533.858 264.629 532.677 264.798 531.501 265.028C529.63 265.393 527.679 264.604 526.768 262.928L525.811 261.166C524.747 259.21 522.306 258.477 520.341 259.525L514.467 262.659C512.479 263.719 511.737 266.197 512.813 268.178L513.712 269.832C514.635 271.53 514.214 273.627 512.855 275C512.032 275.832 511.255 276.7 510.525 277.599C509.324 279.08 507.321 279.729 505.547 279.03L503.626 278.272C501.553 277.455 499.209 278.465 498.378 280.534L495.93 286.626C495.091 288.715 496.112 291.088 498.205 291.914L500.044 292.64C501.835 293.347 502.857 295.216 502.704 297.136C502.614 298.271 502.578 299.411 502.599 300.555C502.633 302.478 501.503 304.278 499.677 304.876L497.794 305.493C495.657 306.193 494.498 308.5 495.21 310.634L497.286 316.856C497.992 318.973 500.274 320.122 502.393 319.428L504.353 318.785C506.165 318.192 508.125 318.958 509.237 320.506C509.921 321.458 510.646 322.367 511.409 323.234C512.686 324.685 512.982 326.804 511.96 328.445L510.963 330.044C509.771 331.957 510.366 334.476 512.289 335.653L517.961 339.123C519.859 340.284 522.338 339.698 523.516 337.808L524.594 336.079C525.602 334.463 527.592 333.79 529.436 334.264C530.59 334.562 531.76 334.803 532.94 334.986C534.831 335.28 536.4 336.697 536.679 338.592L536.965 340.533C537.29 342.746 539.344 344.278 541.556 343.958L548.176 343C550.396 342.679 551.933 340.615 551.607 338.394L551.33 336.507C551.05 334.602 552.158 332.785 553.898 331.963C554.423 331.714 554.946 331.452 555.464 331.175C555.997 330.891 556.52 330.596 557.031 330.289C558.662 329.311 560.757 329.386 562.182 330.644L563.727 332.007C565.395 333.478 567.935 333.33 569.422 331.677L573.841 326.763C575.349 325.085 575.2 322.498 573.508 321.005L572.066 319.733C570.619 318.456 570.295 316.346 571.098 314.59C571.577 313.543 572.004 312.475 572.379 311.389C573.002 309.581 574.669 308.286 576.579 308.342L578.63 308.402ZM547.419 316.373C538.241 321.268 526.756 317.856 521.817 308.768C516.874 299.679 520.319 288.299 529.497 283.406C538.67 278.51 550.155 281.925 555.098 291.014C560.036 300.104 556.593 311.478 547.419 316.373Z" fill="#1C75BC"/>
<path fill-rule="evenodd" clip-rule="evenodd" d="M661.047 103.367C664.607 103.472 667.578 100.671 667.685 97.1088L667.997 86.701C668.104 83.136 665.302 80.1599 661.739 80.055L658.521 79.9603C655.476 79.8707 652.947 77.6491 652.125 74.7141C651.635 72.9673 651.057 71.2321 650.389 69.5144C649.276 66.6515 649.987 63.3287 652.405 61.4362L654.812 59.5524C657.638 57.3409 658.118 53.2471 655.88 50.4412L649.336 42.2352C647.13 39.4683 643.108 38.996 640.321 41.1764L637.735 43.2003C635.353 45.0635 632.019 44.9882 629.52 43.2866C627.964 42.2273 626.36 41.2479 624.714 40.3508C622.022 38.8829 620.429 35.8868 621.056 32.8834L621.677 29.9137C622.407 26.4146 620.157 22.9874 616.658 22.2694L606.244 20.1328C602.764 19.419 599.363 21.6539 598.635 25.1324L597.996 28.1824C597.37 31.1688 594.735 33.2695 591.699 33.5527C589.82 33.728 587.941 33.9973 586.07 34.3626C583.093 34.9439 579.989 33.6876 578.54 31.021L577.017 28.2193C575.325 25.1061 571.441 23.9402 568.316 25.6075L558.97 30.5932C555.808 32.2802 554.626 36.223 556.338 39.3733L557.769 42.0062C559.237 44.7072 558.567 48.0422 556.405 50.2271C555.096 51.5504 553.86 52.9311 552.699 54.362C550.787 56.7188 547.602 57.751 544.779 56.6381L541.724 55.4331C538.425 54.1326 534.696 55.7394 533.374 59.031L529.48 68.7229C528.145 72.0462 529.769 75.8219 533.099 77.1358L536.025 78.2904C538.874 79.4149 540.5 82.3885 540.257 85.4442C540.113 87.2488 540.057 89.0636 540.089 90.8828C540.144 93.9419 538.346 96.8056 535.44 97.7576L532.445 98.7389C529.046 99.8528 527.201 103.522 528.334 106.918L531.636 116.817C532.76 120.184 536.39 122.012 539.761 120.908L542.88 119.886C545.762 118.942 548.88 120.16 550.65 122.624C551.738 124.137 552.891 125.584 554.105 126.964C556.137 129.272 556.608 132.643 554.982 135.253L553.396 137.797C551.499 140.841 552.447 144.849 555.505 146.72L564.529 152.241C567.549 154.088 571.493 153.155 573.366 150.15L575.082 147.398C576.685 144.827 579.851 143.756 582.784 144.512C584.621 144.985 586.482 145.368 588.359 145.66C591.368 146.127 593.864 148.382 594.308 151.396L594.762 154.484C595.28 158.005 598.547 160.442 602.067 159.933L612.598 158.409C616.129 157.898 618.575 154.615 618.056 151.082L617.615 148.079C617.17 145.049 618.933 142.158 621.701 140.85C622.537 140.454 623.368 140.037 624.193 139.597C625.041 139.145 625.872 138.675 626.686 138.186C629.28 136.631 632.613 136.751 634.881 138.752L637.339 140.92C639.992 143.26 644.034 143.026 646.399 140.395L653.428 132.577C655.828 129.908 655.59 125.792 652.899 123.418L650.605 121.393C648.304 119.362 647.788 116.004 649.065 113.212C649.826 111.546 650.506 109.846 651.102 108.118C652.095 105.243 654.746 103.182 657.785 103.271L661.047 103.367ZM611.394 116.049C596.793 123.836 578.521 118.407 570.664 103.949C562.8 89.4888 568.281 71.3843 582.882 63.6009C597.475 55.8119 615.746 61.2441 623.61 75.7043C631.466 90.1655 625.989 108.261 611.394 116.049Z" fill="#1C75BC"/>
<path fill-rule="evenodd" clip-rule="evenodd" d="M408.779 272.616C410.94 272.68 412.744 270.979 412.809 268.816L412.998 262.497C413.063 260.333 411.362 258.526 409.199 258.462L407.245 258.404C405.396 258.35 403.861 257.001 403.361 255.219C403.064 254.159 402.713 253.105 402.308 252.062C401.632 250.324 402.064 248.307 403.532 247.158L404.993 246.014C406.709 244.671 407 242.186 405.642 240.482L401.668 235.5C400.329 233.82 397.887 233.533 396.195 234.857L394.625 236.086C393.179 237.217 391.154 237.171 389.637 236.138C388.692 235.495 387.718 234.901 386.719 234.356C385.085 233.465 384.118 231.646 384.498 229.822L384.875 228.019C385.319 225.895 383.953 223.814 381.828 223.378L375.505 222.081C373.393 221.647 371.328 223.004 370.885 225.116L370.498 226.968C370.118 228.781 368.518 230.056 366.675 230.228C365.533 230.335 364.393 230.498 363.257 230.72C361.449 231.073 359.565 230.31 358.685 228.691L357.76 226.99C356.733 225.1 354.375 224.392 352.477 225.405L346.803 228.432C344.884 229.456 344.166 231.85 345.205 233.762L346.074 235.361C346.965 237.001 346.559 239.026 345.246 240.352C344.451 241.156 343.701 241.994 342.996 242.863C341.835 244.294 339.901 244.92 338.188 244.245L336.332 243.513C334.33 242.723 332.066 243.699 331.263 245.697L328.899 251.582C328.088 253.599 329.074 255.892 331.096 256.69L332.872 257.391C334.602 258.073 335.589 259.879 335.442 261.734C335.354 262.83 335.32 263.931 335.34 265.036C335.373 266.893 334.281 268.632 332.517 269.21L330.699 269.806C328.635 270.482 327.515 272.71 328.203 274.772L330.208 280.782C330.89 282.826 333.094 283.936 335.141 283.265L337.035 282.645C338.784 282.072 340.677 282.811 341.752 284.307C342.412 285.226 343.113 286.105 343.85 286.942C345.083 288.344 345.369 290.39 344.382 291.975L343.419 293.52C342.268 295.368 342.843 297.801 344.7 298.937L350.178 302.289C352.012 303.411 354.406 302.844 355.544 301.02L356.585 299.349C357.558 297.788 359.481 297.138 361.262 297.596C362.377 297.884 363.507 298.116 364.647 298.293C366.473 298.577 367.989 299.946 368.258 301.776L368.534 303.651C368.848 305.789 370.832 307.268 372.969 306.959L379.363 306.034C381.507 305.724 382.992 303.73 382.677 301.585L382.409 299.762C382.139 297.922 383.209 296.167 384.89 295.373C385.397 295.133 385.902 294.879 386.403 294.612C386.918 294.338 387.422 294.052 387.917 293.756C389.491 292.812 391.515 292.885 392.892 294.099L394.384 295.415C395.995 296.836 398.449 296.694 399.885 295.097L404.153 290.35C405.61 288.73 405.466 286.231 403.832 284.789L402.439 283.56C401.041 282.327 400.728 280.288 401.504 278.593C401.966 277.582 402.379 276.549 402.741 275.5C403.343 273.754 404.953 272.503 406.798 272.558L408.779 272.616ZM378.632 280.315C369.767 285.043 358.673 281.747 353.903 272.969C349.129 264.19 352.456 253.198 361.321 248.472C370.181 243.743 381.275 247.041 386.049 255.82C390.819 264.601 387.493 275.587 378.632 280.315Z" fill="#1C75BC"/>
<path fill-rule="evenodd" clip-rule="evenodd" d="M414.716 117.392C415.885 117.427 416.861 116.506 416.896 115.336L416.999 111.916C417.034 110.745 416.113 109.767 414.943 109.732L413.885 109.701C412.885 109.672 412.054 108.942 411.784 107.977C411.623 107.404 411.433 106.833 411.214 106.269C410.848 105.328 411.082 104.237 411.876 103.615L412.667 102.996C413.595 102.269 413.753 100.924 413.018 100.002L410.868 97.3058C410.143 96.3967 408.821 96.2415 407.906 96.958L407.056 97.6229C406.273 98.2352 405.178 98.2104 404.356 97.6513C403.845 97.3032 403.318 96.9815 402.777 96.6867C401.893 96.2044 401.369 95.2199 401.576 94.2331L401.779 93.2574C402.02 92.1077 401.28 90.9816 400.13 90.7457L396.709 90.0436C395.565 89.8091 394.448 90.5434 394.209 91.6864L393.999 92.6885C393.793 93.6698 392.927 94.36 391.93 94.453C391.312 94.5106 390.695 94.5991 390.08 94.7191C389.102 94.9101 388.082 94.4974 387.606 93.6212L387.106 92.7006C386.55 91.6777 385.273 91.2946 384.247 91.8425L381.176 93.4806C380.137 94.0349 379.749 95.3304 380.311 96.3655L380.781 97.2306C381.264 98.1181 381.043 99.2139 380.333 99.9318C379.903 100.367 379.497 100.82 379.115 101.29C378.487 102.065 377.441 102.404 376.513 102.038L375.509 101.642C374.425 101.215 373.2 101.743 372.766 102.824L371.486 106.009C371.048 107.101 371.581 108.341 372.675 108.773L373.637 109.153C374.573 109.522 375.107 110.499 375.027 111.503C374.98 112.096 374.961 112.692 374.972 113.29C374.99 114.295 374.399 115.236 373.445 115.549L372.461 115.871C371.344 116.237 370.737 117.443 371.11 118.559L372.195 121.811C372.564 122.918 373.757 123.518 374.864 123.155L375.889 122.82C376.836 122.51 377.861 122.91 378.442 123.719C378.8 124.216 379.179 124.692 379.577 125.145C380.245 125.904 380.4 127.011 379.865 127.869L379.345 128.705C378.721 129.705 379.032 131.022 380.037 131.637L383.002 133.45C383.995 134.058 385.29 133.751 385.906 132.764L386.47 131.859C386.996 131.015 388.037 130.663 389 130.911C389.604 131.066 390.215 131.192 390.832 131.288C391.821 131.442 392.641 132.183 392.787 133.173L392.936 134.188C393.106 135.344 394.18 136.145 395.336 135.978L398.796 135.477C399.957 135.309 400.761 134.231 400.59 133.07L400.445 132.083C400.299 131.087 400.878 130.138 401.787 129.708C402.062 129.578 402.335 129.441 402.606 129.296C402.885 129.148 403.158 128.993 403.426 128.833C404.278 128.322 405.373 128.361 406.118 129.018L406.926 129.731C407.797 130.5 409.125 130.423 409.903 129.558L412.212 126.99C413.001 126.113 412.923 124.76 412.038 123.98L411.285 123.315C410.528 122.647 410.359 121.544 410.778 120.627C411.029 120.079 411.252 119.521 411.448 118.953C411.774 118.008 412.645 117.331 413.644 117.361L414.716 117.392ZM398.401 121.559C393.603 124.117 387.6 122.334 385.018 117.583C382.434 112.832 384.235 106.883 389.033 104.326C393.828 101.767 399.831 103.552 402.415 108.303C404.996 113.054 403.196 119 398.401 121.559Z" fill="#1C75BC"/>
<path d="M475.852 101.892C476.83 97.221 481.397 94.2198 486.069 95.1781L500.055 98.0472C504.754 99.0113 507.775 103.614 506.794 108.313L505.961 112.3C505.119 116.333 507.257 120.357 510.873 122.328C513.083 123.533 515.237 124.848 517.326 126.271C520.682 128.556 525.16 128.657 528.357 126.155L531.831 123.437C535.573 120.509 540.973 121.143 543.937 124.859L552.725 135.878C555.73 139.646 555.086 145.144 551.291 148.114L548.059 150.643C544.811 153.184 543.856 157.646 545.351 161.491C546.248 163.797 547.024 166.127 547.682 168.473C548.786 172.414 552.182 175.398 556.271 175.518L560.593 175.645C565.376 175.786 569.14 179.783 568.996 184.57L568.576 198.546C568.433 203.329 564.443 207.091 559.663 206.951L555.283 206.822C551.202 206.701 547.641 209.469 546.309 213.33C545.508 215.651 544.595 217.933 543.572 220.17C541.858 223.92 542.55 228.429 545.641 231.157L548.722 233.875C552.335 237.064 552.655 242.59 549.433 246.174L539.993 256.673C536.816 260.206 531.389 260.52 527.826 257.377L524.525 254.466C521.48 251.78 517.004 251.619 513.521 253.707C512.428 254.363 511.311 254.995 510.173 255.601C509.065 256.192 507.949 256.753 506.826 257.284C503.11 259.04 500.743 262.922 501.341 266.992L501.933 271.024C502.63 275.768 499.345 280.177 494.603 280.864L480.461 282.91C475.735 283.593 471.347 280.321 470.651 275.593L470.041 271.446C469.446 267.398 466.093 264.37 462.054 263.743C459.533 263.351 457.034 262.837 454.567 262.202C450.629 261.187 446.376 262.625 444.224 266.078L441.92 269.773C439.404 273.808 434.108 275.061 430.053 272.58L417.936 265.167C413.828 262.655 412.556 257.272 415.104 253.184L417.232 249.769C419.417 246.264 418.783 241.737 416.056 238.637C414.426 236.785 412.876 234.841 411.416 232.809C409.039 229.5 404.852 227.865 400.982 229.132L396.794 230.504C392.266 231.987 387.391 229.533 385.883 225.011L381.448 211.718C379.927 207.159 382.404 202.231 386.969 200.735L390.991 199.417C394.893 198.139 397.307 194.294 397.233 190.186C397.19 187.743 397.266 185.306 397.459 182.882C397.786 178.779 395.603 174.786 391.776 173.276L387.847 171.725C383.375 169.961 381.195 164.891 382.987 160.428L388.216 147.413C389.992 142.993 395 140.835 399.429 142.581L403.532 144.2C407.322 145.694 411.6 144.308 414.167 141.143C415.726 139.221 417.386 137.367 419.145 135.59C422.047 132.656 422.947 128.178 420.976 124.551L419.054 121.016C416.755 116.786 418.343 111.49 422.589 109.225L435.138 102.53C439.334 100.291 444.55 101.857 446.822 106.037L448.867 109.799C450.813 113.38 454.983 115.067 458.98 114.286C461.493 113.796 464.015 113.435 466.539 113.2C470.616 112.819 474.154 109.998 474.994 105.988L475.852 101.892ZM475 129.495C442.137 129.495 415.495 156.137 415.495 189C415.495 221.864 442.137 248.504 475 248.504C507.863 248.504 534.505 221.864 534.505 189C534.505 156.137 507.863 129.496 475 129.495Z" fill="url(#paint4_linear_5019_1825)"/>
<path d="M381.618 186C380.295 186 379.236 187.333 379.236 189C379.236 190.667 380.295 192 381.618 192C382.941 192 384 190.667 384 189C384 187.333 382.941 186 381.618 186Z" fill="white"/>
<path d="M252.293 39.2929C251.902 39.6834 251.902 40.3166 252.293 40.7071L258.657 47.0711C259.047 47.4616 259.681 47.4616 260.071 47.0711C260.462 46.6805 260.462 46.0474 260.071 45.6569L254.414 40L260.071 34.3431C260.462 33.9526 260.462 33.3195 260.071 32.9289C259.681 32.5384 259.047 32.5384 258.657 32.9289L252.293 39.2929ZM379.236 189H380.236C380.236 187.658 381.05 187 381.618 187V186V185C379.54 185 378.236 187.009 378.236 189H379.236ZM381.618 186V187C382.186 187 383 187.658 383 189H384H385C385 187.009 383.697 185 381.618 185V186ZM384 189H383C383 190.342 382.186 191 381.618 191V192V193C383.697 193 385 190.991 385 189H384ZM381.618 192V191C381.05 191 380.236 190.342 380.236 189H379.236H378.236C378.236 190.991 379.54 193 381.618 193V192ZM379.236 189V188H337.309V189V190H379.236V189ZM317.309 169H318.309V60H317.309H316.309V169H317.309ZM297.309 40V39H253V40V41H297.309V40ZM317.309 60H318.309C318.309 48.402 308.907 39 297.309 39V40V41C307.803 41 316.309 49.5066 316.309 60H317.309ZM337.309 189V188C326.816 188 318.309 179.493 318.309 169H317.309H316.309C316.309 180.598 325.711 190 337.309 190V189Z" fill="url(#paint5_linear_5019_1825)"/>
<path d="M580 189C578.333 189 577 190.333 577 192C577 193.667 578.333 195 580 195C581.667 195 583 193.667 583 192C583 190.333 581.667 189 580 189Z" fill="white"/>
<path d="M764.707 374.207C765.098 373.817 765.098 373.183 764.707 372.793L758.343 366.429C757.953 366.038 757.319 366.038 756.929 366.429C756.538 366.819 756.538 367.453 756.929 367.843L762.586 373.5L756.929 379.157C756.538 379.547 756.538 380.181 756.929 380.571C757.319 380.962 757.953 380.962 758.343 380.571L764.707 374.207ZM577 192H578C578 190.886 578.886 190 580 190V189V188C577.781 188 576 189.781 576 192H577ZM580 189V190C581.114 190 582 190.886 582 192H583H584C584 189.781 582.219 188 580 188V189ZM583 192H582C582 193.114 581.114 194 580 194V195V196C582.219 196 584 194.219 584 192H583ZM580 195V194C578.886 194 578 193.114 578 192H577H576C576 194.219 577.781 196 580 196V195ZM583 192V193H652V192V191H583V192ZM672 212H671V353.5H672H673V212H672ZM692 373.5V374.5H764V373.5V372.5H692V373.5ZM672 353.5H671C671 365.098 680.402 374.5 692 374.5V373.5V372.5C681.507 372.5 673 363.993 673 353.5H672ZM652 192V193C662.493 193 671 201.507 671 212H672H673C673 200.402 663.598 191 652 191V192Z" fill="url(#paint6_linear_5019_1825)"/>
<path d="M457 276C455.333 276 454 277.333 454 279C454 280.667 455.333 282 457 282C458.667 282 460 280.667 460 279C460 277.333 458.667 276 457 276Z" fill="white"/>
<path d="M135.707 292.293C135.317 291.902 134.683 291.902 134.293 292.293L127.929 298.657C127.538 299.047 127.538 299.681 127.929 300.071C128.319 300.462 128.953 300.462 129.343 300.071L135 294.414L140.657 300.071C141.047 300.462 141.681 300.462 142.071 300.071C142.462 299.681 142.462 299.047 142.071 298.657L135.707 292.293ZM454 279H455C455 277.886 455.886 277 457 277V276V275C454.781 275 453 276.781 453 279H454ZM457 276V277C458.114 277 459 277.886 459 279H460H461C461 276.781 459.219 275 457 275V276ZM460 279H459C459 280.114 458.114 281 457 281V282V283C459.219 283 461 281.219 461 279H460ZM457 282V281C455.886 281 455 280.114 455 279H454H453C453 281.219 454.781 283 457 283V282ZM457 282H456V303H457H458V282H457ZM437 323V322H155V323V324H437V323ZM135 303H136V293H135H134V303H135ZM155 323V322C144.507 322 136 313.493 136 303H135H134C134 314.598 143.402 324 155 324V323ZM457 303H456C456 313.493 447.493 322 437 322V323V324C448.598 324 458 314.598 458 303H457Z" fill="#1C75BC"/>
<path d="M462 92C460.333 92 459 93.3333 459 95C459 96.6667 460.333 98 462 98C463.667 98 465 96.6667 465 95C465 93.3333 463.667 92 462 92Z" fill="white"/>
<path d="M864.293 31.7071C864.683 32.0976 865.317 32.0976 865.707 31.7071L872.071 25.3431C872.462 24.9526 872.462 24.3195 872.071 23.9289C871.681 23.5384 871.047 23.5384 870.657 23.9289L865 29.5858L859.343 23.9289C858.953 23.5384 858.319 23.5384 857.929 23.9289C857.538 24.3195 857.538 24.9526 857.929 25.3431L864.293 31.7071ZM459 95H460C460 93.8856 460.886 93 462 93V92V91C459.781 91 458 92.7811 458 95H459ZM462 92V93C463.114 93 464 93.8856 464 95H465H466C466 92.7811 464.219 91 462 91V92ZM465 95H464C464 96.1144 463.114 97 462 97V98V99C464.219 99 466 97.2189 466 95H465ZM462 98V97C460.886 97 460 96.1144 460 95H459H458C458 97.2189 459.781 99 462 99V98ZM462 92H463V21H462H461V92H462ZM482 1V2H845V1V0H482V1ZM865 21H864V31H865H866V21H865ZM845 1V2C855.493 2 864 10.5066 864 21H865H866C866 9.40202 856.598 0 845 0V1ZM462 21H463C463 10.5066 471.507 2 482 2V1V0C470.402 0 461 9.40202 461 21H462Z" fill="#1C75BC"/>
<defs>
<linearGradient id="paint0_linear_5019_1825" x1="554.078" y1="429.961" x2="548.329" y2="331.599" gradientUnits="userSpaceOnUse">
<stop stop-color="#0B3C5D"/>
<stop offset="1" stop-color="#1C639B"/>
</linearGradient>
<linearGradient id="paint1_linear_5019_1825" x1="555.556" y1="120.974" x2="552.683" y2="55.3011" gradientUnits="userSpaceOnUse">
<stop stop-color="#0B3C5D"/>
<stop offset="1" stop-color="#1C639B"/>
</linearGradient>
<linearGradient id="paint2_linear_5019_1825" x1="-244.773" y1="274.987" x2="-245.359" y2="242.098" gradientUnits="userSpaceOnUse">
<stop stop-color="#0B3C5D"/>
<stop offset="1" stop-color="#1C639B"/>
</linearGradient>
<linearGradient id="paint3_linear_5019_1825" x1="-210.576" y1="81.974" x2="-213.21" y2="16.281" gradientUnits="userSpaceOnUse">
<stop stop-color="#0B3C5D"/>
<stop offset="1" stop-color="#1C639B"/>
</linearGradient>
<linearGradient id="paint4_linear_5019_1825" x1="210.566" y1="312.299" x2="182.142" y2="123.29" gradientUnits="userSpaceOnUse">
<stop stop-color="#0B3C5D"/>
<stop offset="1" stop-color="#1C639B"/>
</linearGradient>
<linearGradient id="paint5_linear_5019_1825" x1="134.24" y1="215.688" x2="107.777" y2="64.034" gradientUnits="userSpaceOnUse">
<stop stop-color="#0B3C5D"/>
<stop offset="1" stop-color="#1C639B"/>
</linearGradient>
<linearGradient id="paint6_linear_5019_1825" x1="407.472" y1="402.253" x2="379.934" y2="216.654" gradientUnits="userSpaceOnUse">
<stop stop-color="#0B3C5D"/>
<stop offset="1" stop-color="#1C639B"/>
</linearGradient>
</defs>
</svg>
