<svg width="564" height="293" viewBox="0 0 564 293" fill="none" xmlns="http://www.w3.org/2000/svg">
<path d="M422 154V24H468.423C478.846 24 488.067 25.0269 496.085 27.0806C504.102 29.1343 510.356 32.4887 514.846 37.1438C519.336 41.7988 521.581 48.0284 521.581 55.8325C521.581 62.1306 519.657 67.9494 515.808 73.2891C512.12 78.4918 506.748 82.1201 499.693 84.1738V84.9953C508.673 86.5013 515.969 89.8557 521.581 95.0584C527.194 100.124 530 107.107 530 116.006C530 124.495 527.514 131.615 522.543 137.365C517.572 142.978 510.757 147.154 502.098 149.893C493.439 152.631 483.416 154 472.031 154H422ZM444.129 78.8341H465.537C477.724 78.8341 486.463 77.0542 491.755 73.4945C497.207 69.7978 499.933 64.8004 499.933 58.5024C499.933 51.2459 497.047 46.1801 491.274 43.3049C485.661 40.2928 477.323 38.7867 466.258 38.7867H444.129V78.8341ZM444.129 139.213H469.385C481.733 139.213 491.274 137.296 498.009 133.463C504.904 129.492 508.352 123.4 508.352 115.185C508.352 107.518 504.984 101.904 498.249 98.3444C491.675 94.7846 482.053 93.0047 469.385 93.0047H444.129V139.213Z" fill="white"/>
<path d="M268 25V154H242V25H268Z" fill="white"/>
<path d="M400.999 29.8837V48.0075C384.004 38.1921 356.444 37.2477 339.288 46.8724C302.816 67.3236 305.547 119.739 346.001 134.324C365.267 141.269 384.854 138.502 403 130.051V147.221C350.392 168.321 278.978 138.808 291.432 76.6049C300.895 29.3114 358.605 16.7392 400.999 29.8933V29.8837Z" fill="white"/>
<path d="M518.636 267.99H515.276V254.802L504.776 237.96H508.682L517.502 252.954H516.578L525.44 237.96H529.094L518.636 254.886V267.99Z" fill="white"/>
<path d="M475.593 267.99V237.96H485.253C488.165 237.96 490.713 238.604 492.897 239.892C495.109 241.18 496.831 242.958 498.063 245.226C499.323 247.466 499.953 250.042 499.953 252.954C499.953 255.866 499.323 258.456 498.063 260.724C496.831 262.992 495.109 264.77 492.897 266.058C490.713 267.346 488.165 267.99 485.253 267.99H475.593ZM478.953 265.008H485.253C487.549 265.008 489.523 264.504 491.175 263.496C492.855 262.488 494.157 261.074 495.081 259.254C496.005 257.434 496.467 255.334 496.467 252.954C496.467 250.574 496.005 248.488 495.081 246.696C494.157 244.876 492.855 243.462 491.175 242.454C489.523 241.446 487.549 240.942 485.253 240.942H478.953V265.008Z" fill="white"/>
<path d="M450.706 268.662C448.606 268.662 446.66 268.27 444.868 267.486C443.104 266.702 441.55 265.61 440.206 264.21C438.89 262.782 437.868 261.116 437.14 259.212C436.412 257.28 436.048 255.194 436.048 252.954C436.048 250.714 436.412 248.642 437.14 246.738C437.868 244.834 438.89 243.182 440.206 241.782C441.55 240.354 443.104 239.248 444.868 238.464C446.66 237.68 448.606 237.288 450.706 237.288C452.806 237.288 454.752 237.68 456.544 238.464C458.336 239.248 459.89 240.354 461.206 241.782C462.55 243.182 463.586 244.834 464.314 246.738C465.042 248.642 465.406 250.714 465.406 252.954C465.406 255.194 465.042 257.28 464.314 259.212C463.586 261.116 462.55 262.782 461.206 264.21C459.89 265.61 458.336 266.702 456.544 267.486C454.752 268.27 452.806 268.662 450.706 268.662ZM450.706 265.638C452.918 265.638 454.864 265.092 456.544 264C458.224 262.908 459.54 261.41 460.492 259.506C461.444 257.574 461.92 255.39 461.92 252.954C461.92 250.49 461.444 248.32 460.492 246.444C459.54 244.54 458.224 243.042 456.544 241.95C454.864 240.858 452.918 240.312 450.706 240.312C448.522 240.312 446.59 240.858 444.91 241.95C443.23 243.042 441.914 244.54 440.962 246.444C440.01 248.32 439.534 250.49 439.534 252.954C439.534 255.39 440.01 257.574 440.962 259.506C441.914 261.41 443.23 262.908 444.91 264C446.59 265.092 448.522 265.638 450.706 265.638Z" fill="white"/>
<path d="M406.347 267.99V237.96H417.393C419.185 237.96 420.753 238.296 422.097 238.968C423.441 239.612 424.491 240.536 425.247 241.74C426.003 242.916 426.381 244.302 426.381 245.898C426.381 247.382 426.003 248.684 425.247 249.804C424.491 250.924 423.441 251.792 422.097 252.408C420.753 253.024 419.185 253.332 417.393 253.332H410.085V251.316H418.233C420.137 251.316 421.789 251.652 423.189 252.324C424.617 252.996 425.709 253.948 426.465 255.18C427.249 256.412 427.641 257.868 427.641 259.548C427.641 261.228 427.249 262.712 426.465 264C425.681 265.26 424.575 266.24 423.147 266.94C421.747 267.64 420.109 267.99 418.233 267.99H406.347ZM409.707 265.05H418.233C420.081 265.05 421.537 264.56 422.601 263.58C423.665 262.572 424.197 261.214 424.197 259.506C424.197 257.798 423.665 256.454 422.601 255.474C421.537 254.494 420.081 254.004 418.233 254.004H409.287V251.064H417.351C419.115 251.064 420.487 250.616 421.467 249.72C422.475 248.796 422.979 247.536 422.979 245.94C422.979 244.4 422.475 243.182 421.467 242.286C420.459 241.362 419.087 240.9 417.351 240.9H409.707V265.05Z" fill="white"/>
<path d="M362.237 267.99H359.003V237.96H362.615L379.625 264.378H378.785V237.96H382.019V267.99H378.407L361.397 241.572H362.237V267.99Z" fill="white"/>
<path d="M334.117 268.662C332.017 268.662 330.071 268.27 328.279 267.486C326.515 266.702 324.961 265.61 323.617 264.21C322.301 262.782 321.279 261.116 320.551 259.212C319.823 257.28 319.459 255.194 319.459 252.954C319.459 250.714 319.823 248.642 320.551 246.738C321.279 244.834 322.301 243.182 323.617 241.782C324.961 240.354 326.515 239.248 328.279 238.464C330.071 237.68 332.017 237.288 334.117 237.288C336.217 237.288 338.163 237.68 339.955 238.464C341.747 239.248 343.301 240.354 344.617 241.782C345.961 243.182 346.997 244.834 347.725 246.738C348.453 248.642 348.817 250.714 348.817 252.954C348.817 255.194 348.453 257.28 347.725 259.212C346.997 261.116 345.961 262.782 344.617 264.21C343.301 265.61 341.747 266.702 339.955 267.486C338.163 268.27 336.217 268.662 334.117 268.662ZM334.117 265.638C336.329 265.638 338.275 265.092 339.955 264C341.635 262.908 342.951 261.41 343.903 259.506C344.855 257.574 345.331 255.39 345.331 252.954C345.331 250.49 344.855 248.32 343.903 246.444C342.951 244.54 341.635 243.042 339.955 241.95C338.275 240.858 336.329 240.312 334.117 240.312C331.933 240.312 330.001 240.858 328.321 241.95C326.641 243.042 325.325 244.54 324.373 246.444C323.421 248.32 322.945 250.49 322.945 252.954C322.945 255.39 323.421 257.574 324.373 259.506C325.325 261.41 326.641 262.908 328.321 264C330.001 265.092 331.933 265.638 334.117 265.638Z" fill="white"/>
<path d="M309.277 267.99H305.917V237.96H309.277V267.99Z" fill="white"/>
<path d="M287.561 267.99H284.201V240.522H287.561V267.99ZM296.885 240.942H274.877V237.96H296.885V240.942Z" fill="white"/>
<path d="M266.54 259.674H251.042V256.734H266.54V259.674ZM272.084 267.99H268.556L258.14 240.018H259.526L249.11 267.99H245.708L257.09 237.96H260.702L272.084 267.99Z" fill="white"/>
<path d="M237.617 260.64L239.969 262.95C238.765 264.714 237.155 266.114 235.139 267.15C233.123 268.158 231.023 268.662 228.839 268.662C226.795 268.662 224.905 268.27 223.169 267.486C221.433 266.702 219.907 265.596 218.591 264.168C217.303 262.74 216.295 261.074 215.567 259.17C214.867 257.266 214.517 255.208 214.517 252.996C214.517 250.756 214.881 248.684 215.609 246.78C216.337 244.876 217.345 243.21 218.633 241.782C219.921 240.354 221.447 239.248 223.211 238.464C224.975 237.68 226.879 237.288 228.923 237.288C231.219 237.288 233.305 237.778 235.181 238.758C237.085 239.738 238.681 241.152 239.969 243L237.617 245.31C236.581 243.658 235.321 242.412 233.837 241.572C232.381 240.732 230.715 240.312 228.839 240.312C226.767 240.312 224.905 240.858 223.253 241.95C221.629 243.042 220.341 244.54 219.389 246.444C218.465 248.348 218.003 250.532 218.003 252.996C218.003 255.404 218.465 257.574 219.389 259.506C220.341 261.41 221.629 262.908 223.253 264C224.905 265.092 226.767 265.638 228.839 265.638C230.687 265.638 232.353 265.218 233.837 264.378C235.349 263.51 236.609 262.264 237.617 260.64Z" fill="white"/>
<path d="M204.335 267.99H200.975V237.96H204.335V267.99Z" fill="white"/>
<path d="M177.259 267.99H173.899V237.96H191.917V240.9H177.259V267.99ZM191.161 254.088H176.839V251.148H191.161V254.088Z" fill="white"/>
<path d="M161.996 267.99H158.636V237.96H161.996V267.99Z" fill="white"/>
<path d="M140.28 267.99H136.92V240.522H140.28V267.99ZM149.604 240.942H127.596V237.96H149.604V240.942Z" fill="white"/>
<path d="M102.429 267.99H99.0692V237.96H110.073C111.949 237.96 113.587 238.31 114.987 239.01C116.387 239.71 117.479 240.69 118.263 241.95C119.047 243.21 119.439 244.694 119.439 246.402C119.439 248.082 119.047 249.552 118.263 250.812C117.479 252.072 116.387 253.066 114.987 253.794C113.587 254.494 111.949 254.844 110.073 254.844H102.009V251.904H110.073C111.921 251.904 113.363 251.414 114.399 250.434C115.463 249.454 115.995 248.11 115.995 246.402C115.995 244.666 115.463 243.322 114.399 242.37C113.363 241.39 111.921 240.9 110.073 240.9H102.429V267.99ZM122.211 267.99H117.927L107.217 254.004H111.123L122.211 267.99Z" fill="white"/>
<path d="M89.4555 267.99H70.6395V237.96H89.4555V240.9H73.9995V265.05H89.4555V267.99ZM88.6995 254.088H73.5795V251.148H88.6995V254.088Z" fill="white"/>
<path d="M58.83 260.64L61.182 262.95C59.978 264.714 58.368 266.114 56.352 267.15C54.336 268.158 52.236 268.662 50.052 268.662C48.008 268.662 46.118 268.27 44.382 267.486C42.646 266.702 41.12 265.596 39.804 264.168C38.516 262.74 37.508 261.074 36.78 259.17C36.08 257.266 35.73 255.208 35.73 252.996C35.73 250.756 36.094 248.684 36.822 246.78C37.55 244.876 38.558 243.21 39.846 241.782C41.134 240.354 42.66 239.248 44.424 238.464C46.188 237.68 48.092 237.288 50.136 237.288C52.432 237.288 54.518 237.778 56.394 238.758C58.298 239.738 59.894 241.152 61.182 243L58.83 245.31C57.794 243.658 56.534 242.412 55.05 241.572C53.594 240.732 51.928 240.312 50.052 240.312C47.98 240.312 46.118 240.858 44.466 241.95C42.842 243.042 41.554 244.54 40.602 246.444C39.678 248.348 39.216 250.532 39.216 252.996C39.216 255.404 39.678 257.574 40.602 259.506C41.554 261.41 42.842 262.908 44.466 264C46.118 265.092 47.98 265.638 50.052 265.638C51.9 265.638 53.566 265.218 55.05 264.378C56.562 263.51 57.822 262.264 58.83 260.64Z" fill="white"/>
<path d="M531.653 214.99H510.533V180.67H515.477V210.622H531.653V214.99Z" fill="white"/>
<path d="M488.634 206.35H470.25V202.078H488.634V206.35ZM495.162 214.99H489.882L478.554 183.982H480.282L468.954 214.99H463.914L476.826 180.67H482.202L495.162 214.99Z" fill="white"/>
<path d="M426.177 214.99H421.377V180.67H426.609L445.329 209.998H443.697V180.67H448.497V214.99H443.265L424.545 185.662H426.177V214.99Z" fill="white"/>
<path d="M387.747 215.758C385.315 215.758 383.059 215.31 380.979 214.414C378.931 213.518 377.139 212.27 375.603 210.67C374.067 209.038 372.867 207.134 372.003 204.958C371.171 202.75 370.755 200.366 370.755 197.806C370.755 195.246 371.171 192.878 372.003 190.702C372.867 188.526 374.067 186.638 375.603 185.038C377.139 183.406 378.931 182.142 380.979 181.246C383.059 180.35 385.315 179.902 387.747 179.902C390.179 179.902 392.435 180.35 394.515 181.246C396.595 182.142 398.403 183.406 399.939 185.038C401.475 186.638 402.659 188.526 403.491 190.702C404.323 192.878 404.739 195.246 404.739 197.806C404.739 200.366 404.323 202.75 403.491 204.958C402.659 207.134 401.475 209.038 399.939 210.67C398.403 212.27 396.595 213.518 394.515 214.414C392.435 215.31 390.179 215.758 387.747 215.758ZM387.747 211.294C390.083 211.294 392.131 210.718 393.891 209.566C395.683 208.414 397.075 206.814 398.067 204.766C399.091 202.718 399.603 200.398 399.603 197.806C399.603 195.182 399.091 192.862 398.067 190.846C397.075 188.83 395.683 187.246 393.891 186.094C392.131 184.942 390.083 184.366 387.747 184.366C385.443 184.366 383.395 184.942 381.603 186.094C379.843 187.246 378.451 188.83 377.427 190.846C376.435 192.862 375.939 195.182 375.939 197.806C375.939 200.398 376.435 202.718 377.427 204.766C378.451 206.814 379.843 208.414 381.603 209.566C383.395 210.718 385.443 211.294 387.747 211.294Z" fill="white"/>
<path d="M354.134 214.99H349.19V180.67H354.134V214.99Z" fill="white"/>
<path d="M323.321 214.99H318.377V184.51H323.321V214.99ZM333.689 184.99H308.009V180.67H333.689V184.99Z" fill="white"/>
<path d="M292.978 206.35H274.594V202.078H292.978V206.35ZM299.506 214.99H294.226L282.898 183.982H284.626L273.298 214.99H268.258L281.17 180.67H286.546L299.506 214.99Z" fill="white"/>
<path d="M230.521 214.99H225.721V180.67H230.953L249.673 209.998H248.041V180.67H252.841V214.99H247.609L228.889 185.662H230.521V214.99Z" fill="white"/>
<path d="M188.055 214.99H183.111V180.67H195.927C198.135 180.67 200.071 181.086 201.735 181.918C203.399 182.75 204.695 183.918 205.623 185.422C206.551 186.926 207.015 188.67 207.015 190.654C207.015 192.67 206.551 194.43 205.623 195.934C204.695 197.406 203.399 198.574 201.735 199.438C200.071 200.27 198.135 200.686 195.927 200.686H187.575V196.414H195.927C197.815 196.414 199.303 195.902 200.391 194.878C201.479 193.854 202.023 192.446 202.023 190.654C202.023 188.862 201.479 187.47 200.391 186.478C199.303 185.454 197.815 184.942 195.927 184.942H188.055V214.99ZM210.279 214.99H204.135L192.279 199.006H197.991L210.279 214.99Z" fill="white"/>
<path d="M167.035 214.99H144.955V180.67H167.035V184.942H149.899V210.718H167.035V214.99ZM166.171 199.63H149.419V195.358H166.171V199.63Z" fill="white"/>
<path d="M119.087 214.99H114.143V184.51H119.087V214.99ZM129.455 184.99H103.775V180.67H129.455V184.99Z" fill="white"/>
<path d="M65.9895 214.99H61.1895V180.67H66.4215L85.1415 209.998H83.5095V180.67H88.3095V214.99H83.0775L64.3575 185.662H65.9895V214.99Z" fill="white"/>
<path d="M42.696 214.99H37.752V180.67H42.696V214.99Z" fill="white"/>
<path d="M137 152.878C159.13 139.961 174 115.962 174 88.49C174 61.6355 159.791 38.0996 138.482 24.99H209V153.99H137V152.878Z" fill="white"/>
<path fill-rule="evenodd" clip-rule="evenodd" d="M80.8708 30.5122C77.4115 34.0851 74.446 38.5659 72.4746 43.2043C68.8786 51.6679 69.0257 51.878 79.2368 52.8427C83.0125 53.1989 87.4008 53.7359 88.9907 54.0354L91.8806 54.5808V24.99H89.0506C87.0141 24.99 84.718 26.541 80.8708 30.5122ZM96.084 54.5808L98.9738 54.0354C100.564 53.7359 104.952 53.1989 108.728 52.8427C118.939 51.878 119.086 51.6679 115.49 43.2043C111.724 34.3425 103.212 24.99 98.9139 24.99H96.084V54.5808ZM68.8544 30.3472C63.2334 32.8409 50.8975 41.503 50.8975 42.9563C50.8975 44.149 61.0907 49.1332 63.5623 49.149C64.5648 49.1553 65.8994 47.1986 67.0217 44.0786C68.0263 41.2834 70.457 36.5546 72.4231 33.5702C76.3154 27.6602 75.8531 27.243 68.8544 30.3472ZM115.541 33.5702C117.508 36.5546 119.938 41.2834 120.943 44.0786C122.062 47.1902 123.403 49.1584 124.402 49.1563C125.299 49.1542 128.866 47.8186 132.328 46.1877L138.623 43.2222L131.802 38.1645C125.636 33.5912 115.374 28.1425 112.928 28.1425C112.399 28.1425 113.576 30.5847 115.541 33.5702ZM43.446 51.484C38.9494 57.5883 35.2189 66.1517 33.4703 74.3798C31.0523 85.7573 30.055 84.8883 45.5372 84.8883H59.091L59.8245 77.2696C60.227 73.0789 61.2211 66.1044 62.0323 61.7697C62.8436 57.4349 63.5077 53.821 63.5077 53.7391C63.5077 53.6582 62.273 53.2809 60.765 52.9026C58.5435 52.3446 51.135 49.2509 47.518 47.3688C47.104 47.1534 45.2713 49.005 43.446 51.484ZM132.864 50.6223C128.529 52.3793 124.871 53.8662 124.734 53.9261C124.598 53.986 125.143 57.5484 125.947 61.8432C126.75 66.137 127.738 73.0789 128.14 77.2696L128.874 84.8883H156.18L155.448 79.3713C154.028 68.659 147.456 53.1075 142.618 49.0113C140.928 47.5811 139.976 47.7377 132.864 50.6223ZM66.7243 60.8785C66.0644 63.9533 65.2847 69.3116 64.9915 72.7878C64.6973 76.264 64.2549 80.4085 64.0079 81.9985L63.5602 84.8883H91.8806V58.8924L82.1602 57.6514C76.8146 56.9694 71.4237 56.1592 70.1816 55.8502C68.1798 55.3532 67.7867 55.9259 66.7243 60.8785ZM106.855 57.3435L96.084 58.9113V84.8883H124.404L123.957 81.9985C123.71 80.4085 123.267 76.264 122.973 72.7878C122.188 63.5004 120.255 55.4425 118.853 55.6201C118.178 55.7052 112.78 56.4807 106.855 57.3435ZM32.0001 90.9307C32.0821 99.1798 37.6695 114.655 43.3472 122.359L46.567 126.729L54.7752 123.438C59.2885 121.627 63.0937 120.1 63.2303 120.045C63.3669 119.991 62.8215 116.432 62.0176 112.137C61.2147 107.843 60.227 100.9 59.8245 96.7103L59.091 89.0917H45.5372C33.3211 89.0917 31.9844 89.2735 32.0001 90.9307ZM64.278 95.1341C64.6752 100.893 67.3244 117.444 67.9433 118.034C68.1041 118.188 73.557 117.57 80.0585 116.66L91.8806 115.006V89.0917H63.8597L64.278 95.1341ZM96.084 115.006L107.906 116.66C114.409 117.57 119.86 118.188 120.021 118.034C120.64 117.444 123.289 100.893 123.687 95.1341L124.105 89.0917H96.084V115.006ZM128.14 96.7103C127.738 100.9 126.75 107.843 125.947 112.137C125.143 116.432 124.598 119.991 124.734 120.045C124.871 120.1 128.676 121.627 133.189 123.438L141.398 126.729L144.617 122.359C149.019 116.386 152.758 107.77 154.494 99.6002C156.912 88.2226 157.91 89.0917 142.427 89.0917H128.874L128.14 96.7103ZM81.9847 120.685C72.4861 121.787 69.8128 122.502 69.8128 123.942C69.8128 124.592 71.4479 128.525 73.4456 132.679C77.6069 141.33 85.0196 148.99 89.2303 148.99H91.8806V134.278C91.8806 123.136 91.5622 119.6 90.567 119.704C89.8451 119.781 85.9822 120.222 81.9847 120.685ZM96.084 148.99H98.9139C103.212 148.99 111.724 139.637 115.49 130.776C119.086 122.312 118.939 122.102 108.728 121.137C104.952 120.781 100.564 120.244 98.9738 119.945L96.084 119.399V148.99ZM55.6369 127.792L49.3412 130.758L56.1623 135.816C62.3286 140.389 72.5902 145.837 75.0365 145.837C75.5651 145.837 74.3882 143.395 72.4231 140.41C70.457 137.425 68.0263 132.697 67.0217 129.901C65.9026 126.79 64.5617 124.822 63.5623 124.824C62.666 124.826 59.0983 126.161 55.6369 127.792ZM120.943 129.901C119.938 132.697 117.508 137.425 115.541 140.41C113.576 143.395 112.399 145.837 112.928 145.837C115.374 145.837 125.636 140.389 131.802 135.816L138.623 130.758L132.328 127.792C128.866 126.161 125.299 124.826 124.402 124.824C123.403 124.822 122.062 126.79 120.943 129.901Z" fill="white"/>
</svg>
