<svg width="12" height="20" viewBox="0 0 12 20" fill="none" xmlns="http://www.w3.org/2000/svg">
<path d="M6 19.2C9.30879 19.2 12 16.5088 12 13.2V4.8C12 4.35762 11.6416 4.00005 11.2 4.00005C10.7584 4.00005 10.4 4.35762 10.4 4.8V13.2C10.4 15.6256 8.42637 17.6 6 17.6C3.57363 17.6 1.60005 15.6256 1.60005 13.2V4.39995C1.60005 2.85601 2.85601 1.60005 4.39995 1.60005C5.94404 1.60005 7.2 2.85601 7.2 4.39995V12.4C7.2 13.0616 6.66167 13.6 6 13.6C5.33833 13.6 4.8 13.0616 4.8 12.4V4.8C4.8 4.35762 4.44155 4.00005 4.00005 4.00005C3.5584 4.00005 3.19995 4.35762 3.19995 4.8V12.4C3.19995 13.944 4.45605 15.2 6 15.2C7.54395 15.2 8.80005 13.944 8.80005 12.4V4.39995C8.80005 1.97446 6.82646 0 4.39995 0C1.97358 0 0 1.97446 0 4.39995V13.2C0 16.5088 2.69121 19.2 6 19.2Z" fill="white"/>
</svg>
