<svg width="30" height="30" viewBox="0 0 30 30" fill="none" xmlns="http://www.w3.org/2000/svg">
<path d="M6.69699 5.35718H23.3041C24.1936 5.35712 25.0493 5.69741 25.6958 6.30825C26.3423 6.91909 26.7306 7.75417 26.7809 8.64218L26.7863 8.83932V21.1608C26.7863 22.0502 26.446 22.9059 25.8352 23.5524C25.2244 24.1989 24.3893 24.5872 23.5013 24.6375L23.3041 24.6429H6.69699C5.80755 24.643 4.95181 24.3027 4.30531 23.6918C3.65881 23.081 3.27056 22.2459 3.2202 21.3579L3.21484 21.1608V8.83932C3.21479 7.94989 3.55508 7.09415 4.16592 6.44764C4.77676 5.80114 5.61184 5.41289 6.49984 5.36254L6.69699 5.35718H23.3041H6.69699ZM25.1791 11.684L15.3713 16.784C15.2763 16.8333 15.1724 16.8632 15.0656 16.8719C14.9589 16.8805 14.8516 16.8677 14.7498 16.8343L14.6298 16.784L4.82199 11.684V21.1608C4.822 21.6313 4.99896 22.0847 5.31771 22.4308C5.63647 22.777 6.07374 22.9906 6.5427 23.0293L6.69699 23.0358H23.3041C23.7749 23.0357 24.2284 22.8586 24.5745 22.5396C24.9207 22.2206 25.1342 21.7831 25.1727 21.314L25.1791 21.1608V11.684ZM23.3041 6.96432H6.69699C6.22643 6.96434 5.77307 7.14129 5.42692 7.46005C5.08077 7.77881 4.86714 8.21607 4.82842 8.68503L4.82199 8.83932V9.87218L15.0006 15.165L25.1791 9.87218V8.83932C25.1791 8.36859 25.002 7.9151 24.683 7.56892C24.364 7.22274 23.9265 7.00921 23.4573 6.97075L23.3041 6.96432Z" fill="white"/>
</svg>
