<svg width="180" height="180" viewBox="0 0 180 180" fill="none" xmlns="http://www.w3.org/2000/svg">
<path d="M78.2965 120.704C75.6949 117.916 74.394 113.914 74.394 108.7V73.1276C74.394 67.9604 75.6949 63.9591 78.2965 61.1236C79.7797 59.6445 81.5599 58.5 83.5183 57.7666C85.4768 57.0331 87.5685 56.7276 89.6538 56.8704C91.7363 56.7301 93.8246 57.0369 95.7799 57.7703C97.7351 58.5036 99.5124 59.6468 100.994 61.1236C103.595 63.9591 104.896 67.9604 104.896 73.1276V80.1578H95.1137V72.4773C95.1137 68.3881 93.3637 66.3376 89.8638 66.3259C86.3638 66.3259 84.6139 68.3822 84.6139 72.4773V109.491C84.6139 113.533 86.3638 115.537 89.8638 115.537C93.3637 115.537 95.1137 113.533 95.1137 109.491V99.3325H104.896V108.7C104.896 113.867 103.595 117.869 100.994 120.704C98.3862 123.551 94.6062 124.957 89.6538 124.957C84.7014 124.957 80.9039 123.551 78.2965 120.704Z" fill="#1C75BC"/>
<path d="M89.712 12.4757C101.999 12.459 114.114 15.3656 125.067 20.9575C136.02 26.5494 145.498 34.6674 152.724 44.6468C159.951 54.6262 164.722 66.1829 166.645 78.3706C168.568 90.5582 167.589 103.03 163.788 114.765H176.756C182.638 93.3292 180.474 70.4702 170.673 50.5329C160.873 30.5956 144.12 14.9699 123.599 6.62619C103.078 -1.7175 80.2194 -2.19751 59.3691 5.27741C38.5187 12.7523 21.13 27.6611 10.5083 47.1695H24.9981C32.1181 36.4935 41.747 27.7434 53.0338 21.6924C64.3206 15.6415 76.9178 12.476 89.712 12.4757Z" fill="#1C75BC"/>
<path d="M159.884 124.695C151.32 142.583 136.307 156.534 117.884 163.72C99.4615 170.906 79.0081 170.79 60.6675 163.395C42.327 156.001 27.4708 141.881 19.109 123.897C10.7471 105.912 9.50484 85.4079 15.6338 66.5379L15.9313 66.2919H52.9957C53.1238 66.2798 53.2527 66.2798 53.3807 66.2919C56.9681 66.2919 58.7181 68.6997 58.7181 73.0408V79.3855H68.518V73.7438C68.518 68.3892 67.1996 64.2883 64.563 61.4411C63.1924 60.0517 61.5549 58.9566 59.7499 58.2225C57.9449 57.4883 56.0102 57.1303 54.0632 57.1702H5.86898C-2.51749 79.3747 -1.89527 103.997 7.6019 125.746C17.0991 147.494 34.7131 164.633 56.658 173.477C78.6029 182.322 103.127 182.166 124.959 173.044C146.791 163.922 164.188 146.562 173.411 124.695H159.884Z" fill="#1C75BC"/>
<path d="M143.139 104.957H132.779V108.032C132.957 109.823 132.492 111.618 131.467 113.094C130.938 113.615 130.302 114.016 129.605 114.267C128.907 114.519 128.163 114.617 127.425 114.553H121.492V94.2356H126.095C127.027 94.1471 127.968 94.258 128.855 94.5609C129.741 94.8638 130.554 95.352 131.24 95.9932C131.86 96.8029 132.264 97.759 132.412 98.7701H142.912C142.124 93.6029 139.674 90.2636 135.492 88.84V88.6467C137.65 87.7504 139.415 86.1032 140.462 84.0068C141.659 81.4059 142.223 78.5565 142.107 75.6936V73.0397C142.107 67.8725 140.882 64.0411 138.432 61.5454C135.982 59.0497 132.091 57.8077 126.76 57.8194H111.132V124.026H127.425C132.569 124.026 136.472 122.673 139.149 120.001C140.576 118.529 141.627 116.732 142.212 114.764H176.441L177.141 104.886L143.139 104.957ZM121.492 67.3101H126.48C127.225 67.2467 127.975 67.3582 128.671 67.6357C129.366 67.9133 129.988 68.3493 130.487 68.9095C131.471 70.4809 131.914 72.3334 131.747 74.1821V77.8554C131.909 79.7473 131.353 81.6309 130.19 83.128C129.564 83.6997 128.828 84.1366 128.027 84.4117C127.226 84.6867 126.378 84.7942 125.535 84.7274H121.492V67.3101Z" fill="#1C75BC"/>
<path d="M37.6279 72.5837V107.735C37.6279 113.101 38.9462 117.202 41.5829 120.037C44.2253 122.92 48.0403 124.343 53.0627 124.343C58.0851 124.343 61.9175 122.92 64.56 120.037C67.2024 117.155 68.5149 113.007 68.5149 107.735V86.1519H53.5352V95.6075H58.7851V108.561C58.7851 112.849 57.0001 114.993 53.4302 114.993C49.8602 114.993 48.0694 112.849 48.0578 108.561V72.5837H37.6279Z" fill="#1C75BC"/>
</svg>
