<svg width="22" height="22" viewBox="0 0 22 22" fill="none" xmlns="http://www.w3.org/2000/svg">
<path fill-rule="evenodd" clip-rule="evenodd" d="M20.3078 10.9035C20.3078 5.80811 16.1406 1.67749 11.0001 1.67749C5.85958 1.67749 1.69238 5.80811 1.69238 10.9035C1.69238 15.9989 5.85958 20.1295 11.0001 20.1295C16.1406 20.1295 20.3078 15.9989 20.3078 10.9035ZM13.5166 16.9194C12.6981 18.452 11.7553 19.0441 11.0001 19.0441C10.2448 19.0441 9.30205 18.452 8.4835 16.9194C8.33541 16.6421 8.19671 16.3425 8.06907 16.0228C8.98248 15.8914 9.96736 15.8187 11.0001 15.8187C12.0328 15.8187 13.0177 15.8914 13.9311 16.0228C13.8034 16.3425 13.6647 16.6421 13.5166 16.9194ZM14.2967 14.9451C13.2634 14.7878 12.1543 14.7024 11.0001 14.7024C9.84583 14.7024 8.73675 14.7878 7.70348 14.9451C7.40752 13.9065 7.2185 12.7214 7.17642 11.4462H14.8237C14.7816 12.7214 14.5926 13.9065 14.2967 14.9451ZM15.0294 16.2156C14.6788 17.1462 14.2385 17.95 13.7321 18.5828C14.8864 18.1793 15.9225 17.5273 16.7749 16.6917C16.2441 16.5078 15.659 16.3472 15.0294 16.2156ZM17.5792 15.7767C16.9148 15.5251 16.1755 15.3109 15.3782 15.1415C15.6874 14.0238 15.8782 12.7726 15.9193 11.4462H19.1948C19.0873 13.0645 18.5028 14.5536 17.5792 15.7767ZM6.62197 15.1415C6.3127 14.0238 6.12195 12.7726 6.08086 11.4462H2.80537C2.91283 13.0645 3.49738 14.5536 4.42091 15.7767C5.08537 15.5251 5.82464 15.3109 6.62197 15.1415ZM5.22524 16.6917C6.07766 17.5273 7.11372 18.1793 8.26804 18.5828C7.76164 17.95 7.32137 17.1462 6.97074 16.2156C6.34112 16.3472 5.75608 16.5078 5.22524 16.6917ZM14.8237 10.3608H7.17642C7.2185 9.08558 7.40752 7.90042 7.70348 6.86188C8.73675 7.01915 9.84583 7.10455 11.0001 7.10455C12.1543 7.10455 13.2634 7.01915 14.2967 6.86188C14.5926 7.90042 14.7816 9.08558 14.8237 10.3608ZM8.4835 4.88757C8.33541 5.16485 8.19671 5.46451 8.06907 5.7842C8.98248 5.91559 9.96736 5.9883 11.0001 5.9883C12.0328 5.9883 13.0177 5.91559 13.9311 5.7842C13.8034 5.46451 13.6647 5.16485 13.5166 4.88757C12.6981 3.35499 11.7553 2.7629 11.0001 2.7629C10.2448 2.7629 9.30205 3.35499 8.4835 4.88757ZM15.9193 10.3608C15.8782 9.03439 15.6874 7.78318 15.3782 6.66547C16.1755 6.4961 16.9148 6.2819 17.5792 6.03028C18.5028 7.25335 19.0873 8.74248 19.1948 10.3608H15.9193ZM15.0294 5.59137C15.659 5.45977 16.2441 5.29918 16.7749 5.11528C15.9225 4.27964 14.8864 3.62767 13.7321 3.22418C14.2385 3.857 14.6788 4.66074 15.0294 5.59137ZM5.22524 5.11529C5.75608 5.29918 6.34111 5.45977 6.97074 5.59137C7.32136 4.66074 7.76164 3.857 8.26804 3.22418C7.11372 3.62767 6.07766 4.27964 5.22524 5.11529ZM6.62197 6.66547C5.82464 6.4961 5.08537 6.2819 4.42091 6.03028C3.49738 7.25335 2.91283 8.74248 2.80537 10.3608H6.08086C6.12195 9.03439 6.3127 7.78318 6.62197 6.66547Z" fill="white"/>
</svg>
