<svg width="30" height="30" viewBox="0 0 30 30" fill="none" xmlns="http://www.w3.org/2000/svg">
<path d="M15 27.5C15 27.5 5 20 5 12.5C5 6.25 10 2.5 15 2.5C20 2.5 25 6.25 25 12.5C25 20 15 27.5 15 27.5ZM15 16.25C15.9946 16.25 16.9484 15.8549 17.6517 15.1517C18.3549 14.4484 18.75 13.4946 18.75 12.5C18.75 11.5054 18.3549 10.5516 17.6517 9.84835C16.9484 9.14509 15.9946 8.75 15 8.75C14.0054 8.75 13.0516 9.14509 12.3483 9.84835C11.6451 10.5516 11.25 11.5054 11.25 12.5C11.25 13.4946 11.6451 14.4484 12.3483 15.1517C13.0516 15.8549 14.0054 16.25 15 16.25V16.25Z" stroke="white" stroke-width="2"/>
</svg>
