<svg width="562" height="178" viewBox="0 0 562 178" fill="none" xmlns="http://www.w3.org/2000/svg">
<path d="M422 154V24H468.423C478.846 24 488.067 25.0269 496.085 27.0806C504.102 29.1343 510.356 32.4887 514.846 37.1438C519.336 41.7988 521.581 48.0284 521.581 55.8325C521.581 62.1306 519.657 67.9494 515.808 73.2891C512.12 78.4918 506.748 82.1201 499.693 84.1738V84.9953C508.673 86.5013 515.969 89.8557 521.581 95.0584C527.194 100.124 530 107.107 530 116.006C530 124.495 527.514 131.615 522.543 137.365C517.572 142.978 510.757 147.154 502.098 149.893C493.439 152.631 483.416 154 472.031 154H422ZM444.129 78.8341H465.537C477.724 78.8341 486.463 77.0542 491.755 73.4945C497.207 69.7978 499.933 64.8004 499.933 58.5024C499.933 51.2459 497.047 46.1801 491.274 43.3049C485.661 40.2928 477.323 38.7867 466.258 38.7867H444.129V78.8341ZM444.129 139.213H469.385C481.733 139.213 491.274 137.296 498.009 133.463C504.904 129.492 508.352 123.4 508.352 115.185C508.352 107.518 504.984 101.904 498.249 98.3444C491.675 94.7846 482.053 93.0047 469.385 93.0047H444.129V139.213Z" fill="white"/>
<path d="M268 25V154H242V25H268Z" fill="white"/>
<path d="M400.999 29.8837V48.0075C384.004 38.1921 356.444 37.2477 339.288 46.8724C302.816 67.3236 305.547 119.739 346.001 134.324C365.267 141.269 384.854 138.502 403 130.051V147.221C350.392 168.321 278.978 138.808 291.432 76.6049C300.895 29.3114 358.605 16.7392 400.999 29.8933V29.8837Z" fill="white"/>
<path d="M137 152.878C159.13 139.961 174 115.962 174 88.49C174 61.6355 159.791 38.0996 138.482 24.99H209V153.99H137V152.878Z" fill="white"/>
<path fill-rule="evenodd" clip-rule="evenodd" d="M80.8708 30.5122C77.4115 34.0851 74.446 38.5659 72.4746 43.2043C68.8786 51.6679 69.0257 51.878 79.2368 52.8427C83.0125 53.1989 87.4008 53.7359 88.9907 54.0354L91.8806 54.5808V24.99H89.0506C87.0141 24.99 84.718 26.541 80.8708 30.5122ZM96.084 54.5808L98.9738 54.0354C100.564 53.7359 104.952 53.1989 108.728 52.8427C118.939 51.878 119.086 51.6679 115.49 43.2043C111.724 34.3425 103.212 24.99 98.9139 24.99H96.084V54.5808ZM68.8544 30.3472C63.2334 32.8409 50.8975 41.503 50.8975 42.9563C50.8975 44.149 61.0907 49.1332 63.5623 49.149C64.5648 49.1553 65.8994 47.1986 67.0217 44.0786C68.0263 41.2834 70.457 36.5546 72.4231 33.5702C76.3154 27.6602 75.8531 27.243 68.8544 30.3472ZM115.541 33.5702C117.508 36.5546 119.938 41.2834 120.943 44.0786C122.062 47.1902 123.403 49.1584 124.402 49.1563C125.299 49.1542 128.866 47.8186 132.328 46.1877L138.623 43.2222L131.802 38.1645C125.636 33.5912 115.374 28.1425 112.928 28.1425C112.399 28.1425 113.576 30.5847 115.541 33.5702ZM43.446 51.484C38.9494 57.5883 35.2189 66.1517 33.4703 74.3798C31.0523 85.7573 30.055 84.8883 45.5372 84.8883H59.091L59.8245 77.2696C60.227 73.0789 61.2211 66.1044 62.0323 61.7697C62.8436 57.4349 63.5077 53.821 63.5077 53.7391C63.5077 53.6582 62.273 53.2809 60.765 52.9026C58.5435 52.3446 51.135 49.2509 47.518 47.3688C47.104 47.1534 45.2713 49.005 43.446 51.484ZM132.864 50.6223C128.529 52.3793 124.871 53.8662 124.734 53.9261C124.598 53.986 125.143 57.5484 125.947 61.8432C126.75 66.137 127.738 73.0789 128.14 77.2696L128.874 84.8883H156.18L155.448 79.3713C154.028 68.659 147.456 53.1075 142.618 49.0113C140.928 47.5811 139.976 47.7377 132.864 50.6223ZM66.7243 60.8785C66.0644 63.9533 65.2847 69.3116 64.9915 72.7878C64.6973 76.264 64.2549 80.4085 64.0079 81.9985L63.5602 84.8883H91.8806V58.8924L82.1602 57.6514C76.8146 56.9694 71.4237 56.1592 70.1816 55.8502C68.1798 55.3532 67.7867 55.9259 66.7243 60.8785ZM106.855 57.3435L96.084 58.9113V84.8883H124.404L123.957 81.9985C123.71 80.4085 123.267 76.264 122.973 72.7878C122.188 63.5004 120.255 55.4425 118.853 55.6201C118.178 55.7052 112.78 56.4807 106.855 57.3435ZM32.0001 90.9307C32.0821 99.1798 37.6695 114.655 43.3472 122.359L46.567 126.729L54.7752 123.438C59.2885 121.627 63.0937 120.1 63.2303 120.045C63.3669 119.991 62.8215 116.432 62.0176 112.137C61.2147 107.843 60.227 100.9 59.8245 96.7103L59.091 89.0917H45.5372C33.3211 89.0917 31.9844 89.2735 32.0001 90.9307ZM64.278 95.1341C64.6752 100.893 67.3244 117.444 67.9433 118.034C68.1041 118.188 73.557 117.57 80.0585 116.66L91.8806 115.006V89.0917H63.8597L64.278 95.1341ZM96.084 115.006L107.906 116.66C114.409 117.57 119.86 118.188 120.021 118.034C120.64 117.444 123.289 100.893 123.687 95.1341L124.105 89.0917H96.084V115.006ZM128.14 96.7103C127.738 100.9 126.75 107.843 125.947 112.137C125.143 116.432 124.598 119.991 124.734 120.045C124.871 120.1 128.676 121.627 133.189 123.438L141.398 126.729L144.617 122.359C149.019 116.386 152.758 107.77 154.494 99.6002C156.912 88.2226 157.91 89.0917 142.427 89.0917H128.874L128.14 96.7103ZM81.9847 120.685C72.4861 121.787 69.8128 122.502 69.8128 123.942C69.8128 124.592 71.4479 128.525 73.4456 132.679C77.6069 141.33 85.0196 148.99 89.2303 148.99H91.8806V134.278C91.8806 123.136 91.5622 119.6 90.567 119.704C89.8451 119.781 85.9822 120.222 81.9847 120.685ZM96.084 148.99H98.9139C103.212 148.99 111.724 139.637 115.49 130.776C119.086 122.312 118.939 122.102 108.728 121.137C104.952 120.781 100.564 120.244 98.9738 119.945L96.084 119.399V148.99ZM55.6369 127.792L49.3412 130.758L56.1623 135.816C62.3286 140.389 72.5902 145.837 75.0365 145.837C75.5651 145.837 74.3882 143.395 72.4231 140.41C70.457 137.425 68.0263 132.697 67.0217 129.901C65.9026 126.79 64.5617 124.822 63.5623 124.824C62.666 124.826 59.0983 126.161 55.6369 127.792ZM120.943 129.901C119.938 132.697 117.508 137.425 115.541 140.41C113.576 143.395 112.399 145.837 112.928 145.837C115.374 145.837 125.636 140.389 131.802 135.816L138.623 130.758L132.328 127.792C128.866 126.161 125.299 124.826 124.402 124.824C123.403 124.822 122.062 126.79 120.943 129.901Z" fill="white"/>
</svg>
