<svg width="30" height="30" viewBox="0 0 30 30" fill="none" xmlns="http://www.w3.org/2000/svg">
<path d="M24.3742 27.1875H24.2148C5.79291 26.1281 3.17729 10.5844 2.81166 5.84063C2.7822 5.47179 2.82581 5.10077 2.93998 4.74882C3.05416 4.39687 3.23666 4.07091 3.47702 3.78961C3.71739 3.50831 4.0109 3.27721 4.34074 3.10954C4.67057 2.94187 5.03025 2.84093 5.39916 2.8125H10.5648C10.9403 2.81214 11.3073 2.92454 11.6182 3.13515C11.9291 3.34576 12.1696 3.64488 12.3085 3.99375L13.7335 7.5C13.8707 7.84083 13.9048 8.21445 13.8315 8.57446C13.7581 8.93447 13.5806 9.26501 13.321 9.525L11.3242 11.5406C11.6361 13.3132 12.485 14.9472 13.7559 16.2215C15.0269 17.4959 16.6587 18.349 18.4304 18.6656L20.4648 16.65C20.7287 16.3933 21.0623 16.2199 21.4241 16.1516C21.7859 16.0832 22.1598 16.1229 22.4992 16.2656L26.0335 17.6813C26.3772 17.8246 26.6703 18.067 26.8757 18.3775C27.081 18.6881 27.1893 19.0527 27.1867 19.425V24.375C27.1867 25.1209 26.8904 25.8363 26.3629 26.3637C25.8355 26.8912 25.1201 27.1875 24.3742 27.1875ZM5.62416 4.6875C5.37552 4.6875 5.13707 4.78627 4.96125 4.96209C4.78544 5.1379 4.68666 5.37636 4.68666 5.625V5.7C5.11791 11.25 7.88354 24.375 24.3179 25.3125C24.4411 25.3201 24.5645 25.3033 24.6812 25.2631C24.7979 25.2229 24.9054 25.1601 24.9978 25.0782C25.0901 24.9963 25.1653 24.897 25.2192 24.786C25.2731 24.675 25.3045 24.5544 25.3117 24.4312V19.425L21.7773 18.0094L19.0867 20.6812L18.6367 20.625C10.4804 19.6031 9.37416 11.4469 9.37416 11.3625L9.31791 10.9125L11.9804 8.22188L10.5742 4.6875H5.62416Z" fill="white"/>
</svg>
